<?xml version="1.0" encoding="UTF-8" standalone="no"?><!DOCTYPE svg PUBLIC "-//W3C//DTD SVG 1.1//EN" "http://www.w3.org/Graphics/SVG/1.1/DTD/svg11.dtd"><svg width="100%" height="100%" viewBox="0 0 30175 22942" version="1.1" xmlns="http://www.w3.org/2000/svg" xmlns:xlink="http://www.w3.org/1999/xlink" xml:space="preserve" xmlns:serif="http://www.serif.com/" style="fill-rule:evenodd;clip-rule:evenodd;stroke-linejoin:round;stroke-miterlimit:1.41421;"><g id="login-3"><path id="Shape" d="M22121,11832.1c-50.642,-607.637 -151.912,-1215.28 -340,-1801.22c-79.567,-253.192 -180.833,-499.13 -274.879,-745.088c-50.642,-122.967 -94.046,-245.954 -137.45,-368.921l-43.4,-151.912c-14.463,-50.642 -21.704,-101.267 -36.163,-151.909l0,-144.67c7.238,180.833 7.238,-7.238 21.7,-65.104c36.163,-65.105 72.342,-122.984 108.509,-188.088c159.145,-260.417 303.816,-535.296 376.162,-831.875c137.429,-571.479 144.671,-1287.62 -36.183,-1851.86c-14.463,-57.867 -36.163,-108.509 -57.863,-159.15c144.671,-195.313 195.313,-455.73 151.909,-737.846c-151.909,-1099.53 -651.042,-2126.74 -1367.19,-2973.09c-383.383,-455.729 -868.054,-853.575 -1453.99,-1012.73c-600.4,-166.371 -1244.22,-79.567 -1830.16,101.267c-513.591,159.15 -998.262,412.325 -1519.1,557.012c-72.325,21.704 -151.908,36.163 -224.237,50.625c-14.479,0 -36.179,7.242 -57.879,7.242c-108.509,7.237 -217.017,7.237 -325.521,7.237l-28.925,0c-14.479,0 -21.7,-7.237 -36.179,-7.237c-43.404,-14.463 -94.029,-21.704 -137.434,-36.163c-65.104,-21.704 -137.445,-43.404 -202.55,-65.104l-28.941,-7.241c-7.221,-7.238 -21.7,-7.238 -28.925,-14.463c-455.729,-224.254 -875.296,-513.608 -1345.48,-716.146c-607.641,-267.654 -1244.22,-419.566 -1909.73,-274.896c-665.52,144.688 -1128.47,636.58 -1511.88,1164.65c-332.741,455.729 -672.741,998.262 -802.95,1548.02c-151.908,622.117 28.942,1200.82 434.03,1671.01c231.491,274.896 535.312,462.966 810.187,694.441c65.104,57.884 130.208,115.746 188.075,173.613c14.479,14.479 50.642,72.342 79.583,94.046c14.463,28.941 36.163,57.862 50.625,86.804l0,7.242c14.479,72.325 -7.221,166.37 -7.221,14.458c0,36.167 -14.479,166.375 -7.241,137.45c-7.238,36.162 -14.463,72.325 -28.942,101.267c-7.221,21.7 -28.921,72.345 -36.162,94.045c-36.163,65.105 -79.567,137.43 -122.967,202.534c14.458,-21.7 -72.346,101.287 -86.808,115.746c-28.942,36.166 -65.104,72.345 -101.284,108.508c-101.266,108.508 -202.533,209.775 -303.82,318.283c-817.413,824.65 -1721.63,1605.9 -2423.32,2546.3c-1236.98,1663.77 -1070.6,4101.56 303.821,5635.12c1598.66,1786.75 4224.54,1873.56 6438.08,1830.16c1208.05,-21.704 2394.39,-180.85 3551.8,-535.296c542.534,-166.388 1070.59,-361.7 1598.66,-571.475c535.296,-209.775 1121.23,-397.867 1613.14,-694.446c1099.53,-672.742 1222.5,-1996.53 1128.48,-3161.16m7754.62,9787.33c-72.325,-36.179 -209.775,-108.504 -339.983,-122.984c-108.508,-14.462 -217.012,-14.462 -325.521,-14.462c-144.671,-7.242 -289.358,-14.463 -434.029,-28.942c-368.921,-36.162 -723.383,-115.729 -1092.31,-166.371c-383.384,-50.641 -781.25,-79.566 -1179.1,-72.345c-79.583,-166.371 -209.792,-282.117 -376.163,-354.442c-217.012,-188.092 -477.429,-195.313 -774.012,-130.208c-36.179,7.22 -79.584,14.458 -115.746,28.92c-390.625,50.642 -781.25,151.913 -1164.63,224.255c-455.729,79.566 -911.459,137.45 -1367.19,195.312c-441.266,50.642 -918.7,28.942 -1352.73,137.45c-1114.01,-151.912 -2242.48,-173.612 -3370.96,-202.554c-1453.99,-36.163 -2922.45,28.942 -4369.21,115.746c-1453.99,86.808 -2900.76,231.475 -4354.75,354.446c-708.904,57.883 -1425.05,108.508 -2141.2,72.341c-701.684,-28.937 -1388.89,-188.071 -2090.57,-245.954c-795.709,-65.104 -1562.5,57.883 -2343.75,202.554c-361.684,65.104 -730.605,130.209 -1099.53,159.15c-390.625,36.163 -774.012,21.7 -1164.64,50.625c-455.729,36.179 -585.938,701.684 -159.146,889.754c658.279,282.121 1396.12,195.313 2090.57,94.046c679.967,-94.046 1367.19,-224.254 2054.39,-224.254c665.504,0 1323.79,166.392 1982.07,238.717c745.071,79.583 1504.62,86.804 2249.7,50.641c1468.45,-72.345 2929.69,-231.475 4405.38,-303.82c1453.99,-72.342 2915.22,-122.967 4369.21,-144.671c1070.59,-14.479 2148.44,-28.938 3219.03,-101.284l65.104,43.405c231.492,151.908 484.671,260.416 752.325,332.758c535.296,144.671 1106.77,115.746 1649.31,-7.238c412.325,-94.029 810.171,-231.475 1200.8,-390.625c383.404,-65.104 766.792,-122.97 1157.42,-137.433c354.458,-14.479 716.146,0.004 1063.37,57.867c376.162,65.104 745.087,180.85 1121.23,267.658c368.921,86.804 737.846,188.071 1121.25,224.233c209.775,21.7 434.025,28.942 643.8,0c101.267,-14.462 217.017,-28.92 311.058,-72.325c144.671,-57.883 217.017,-159.15 325.521,-260.416c231.479,-238.717 86.808,-636.579 -166.387,-759.55" style="fill:#2c9cf2;fill-rule:nonzero;"/><path id="Shape1" serif:id="Shape" d="M29912.4,21559.2c-71.975,-35.95 -327.55,-212.871 -456.859,-228.459c-108.195,-12.991 -333.595,20.867 -441.791,18.267c-133.188,-3.458 -284.042,-47.713 -433.184,-61.567c-364.65,-33.779 -720.67,-60.946 -1082.74,-110.75c-388.338,-51.996 -606.163,-59.808 -997.925,-57.987c-78.142,-159.671 -384.817,-372.321 -548.183,-441.042c-218.955,-190.112 -474.125,-0.437 -770.246,64.083c-38.5,8.375 -76.725,17.325 -114.65,26.855c-387.925,47.633 -773.7,152.004 -1156.89,219.983c-450.416,79.688 -905.158,140.313 -1359.46,193.575c-436.204,51.542 -915.504,-56.05 -1344.38,52.642c-1107.74,-148.105 -2228.41,-86.417 -3347.8,-114.563c-1443.51,-33.779 -2899.1,30.317 -4339.58,116.925c-1440.5,86.604 -2883.15,160.942 -4324.96,284.363c-705.592,60.62 -1399.43,88.733 -2108.04,55.816c-698.7,-32.479 -1381.88,-154.954 -2077.57,-212.979c-789.204,-65.821 -1569.06,109.683 -2342.33,251.717c-362.062,66.258 -777.071,60.471 -1143.87,91.225c-385.341,34.204 -719.466,89.358 -1105.23,118.812c-449.137,33.78 -585.346,702.409 -158.192,884.725c656.03,280.184 1385.76,191.842 2074.55,93.967c2074.34,-117.188 1441.86,-224.763 2040.49,-223.879c659.041,0 1314.2,164.554 1968.94,237.308c741.8,82.709 1491.79,83.146 2236.61,48.067c1459.03,-69.292 2912.03,-179.167 4371.5,-251.054c1444.8,-71.884 2891.05,-172.325 4338.75,-197.155c1063.35,-18.187 2199.12,17.325 3263.33,-56.725c21.121,15.588 -20.692,-14.291 0,0c229.941,150.63 483.262,261.713 749.554,328.688c534.046,140.733 1292.25,181.596 1825.87,61.213c367.329,-88.38 450.258,-132.934 801.708,-271.705c37.396,-14.766 230.938,-81.895 268.121,-97.22c166.183,-85.596 666.929,-119.567 1080.11,-137.275c353.592,-17.263 708,-85.071 1057.75,-30.08c376.288,64.959 739.221,177.121 1109.9,264.6c370.683,87.471 734.908,184.484 1109.9,221.284c213.463,25.558 429.192,129.725 642.663,104.166c105.467,-10.787 209.325,-33.891 309.475,-68.854c142.083,-49.604 391.283,-73.854 496.021,-173.025c303.566,-287.429 159.104,-878.816 -91.334,-1003.96l-0.016,0Z" style="fill:#e1e8ee;fill-rule:nonzero;"/><path id="Shape2" serif:id="Shape" d="M18742.7,14414.6l0,7016.79l-7696.75,0l0,-7016.79c0,-1309.32 1070.61,-2387.15 2387.16,-2387.15l339.983,0c188.087,0 332.758,-151.908 332.758,-332.758l0,-1200.82l1533.56,0l0,1200.82c0,188.071 151.912,332.758 332.762,332.758l383.383,0c1316.56,0 2387.16,1070.59 2387.16,2387.15" style="fill:#fbe3d5;fill-rule:nonzero;"/><path id="Shape3" serif:id="Shape" d="M17860.2,3165.96c-245.954,-318.279 -477.429,-405.083 -716.146,-535.291c-651.041,-361.705 -998.262,-1099.55 -1671,-1171.88c-1019.97,-108.509 -1229.74,651.041 -2589.71,1280.38c-846.354,390.625 -889.754,448.491 -1186.33,752.308c-897,918.7 0,3356.48 0,3356.48l1048.9,-1157.4l4665.79,238.717l535.296,918.679c79.567,21.704 672.742,-2705.43 -86.808,-3682" style="fill:#c3996b;fill-rule:nonzero;"/><path id="Shape4" serif:id="Shape" d="M15285,1545.62c-455.729,0 -730.625,209.775 -1128.47,513.592c-296.596,231.479 -672.742,513.595 -1229.76,774.012c-817.413,376.163 -868.054,434.029 -1150.17,716.146l-14.462,14.479c-723.388,745.071 -195.313,2589.69 -21.705,3117.76l947.625,-1041.67c14.479,-21.7 43.4,-28.938 72.342,-28.938l4665.79,238.713c28.941,0 57.862,21.704 72.341,43.404l434.03,752.325c65.104,-253.192 166.37,-766.788 209.774,-1367.19c43.4,-672.741 21.7,-1576.98 -347.225,-2054.41c-195.312,-253.179 -383.383,-354.446 -571.475,-455.729c-36.162,-21.7 -72.325,-36.163 -108.504,-57.867c-274.879,-151.908 -491.896,-368.921 -708.908,-571.475c-289.358,-282.116 -564.238,-549.758 -933.158,-585.937c-65.105,-7.221 -122.971,-7.221 -188.075,-7.221m-3580.73,5396.42c-36.179,0 -72.341,-21.7 -86.804,-57.863c-36.179,-101.283 -911.458,-2502.9 14.463,-3450.52l14.462,-14.479c289.354,-296.579 354.459,-361.683 1200.81,-752.308c542.537,-253.179 889.758,-513.596 1193.58,-752.309c441.267,-340 795.712,-607.641 1439.53,-535.312c426.788,43.4 723.371,332.758 1041.67,636.579c202.537,195.313 412.329,405.088 665.504,542.533c36.162,21.7 72.346,36.163 108.508,57.867c202.55,108.504 412.325,217.013 636.579,499.129c745.071,954.863 238.717,3559.03 101.267,3776.04c-36.162,57.883 -94.046,50.642 -108.508,50.642c-21.7,-7.238 -43.4,-21.7 -57.863,-43.4l-506.371,-875.296l-4571.75,-231.475l-1019.97,1128.47c-14.479,14.462 -43.4,21.7 -65.104,21.7" style="fill:#3b4249;fill-rule:nonzero;"/><path id="Shape5" serif:id="Shape" d="M13491,3455.33c-50.625,0 -86.804,-43.404 -94.029,-86.804c0,-36.179 21.7,-72.346 57.866,-86.804c7.238,0 817.413,-303.821 1475.69,-1236.98c28.942,-43.404 86.808,-50.646 122.971,-21.704c43.4,28.925 50.641,86.808 21.7,122.97c-694.446,983.8 -1526.32,1294.84 -1562.5,1302.08c0,7.237 -7.221,7.237 -21.7,7.237m802.95,0c-50.625,0 -86.805,-43.4 -86.805,-94.046c0.001,-28.937 14.48,-50.641 36.18,-72.341c7.221,-7.221 455.729,-368.925 665.504,-593.159c36.162,-36.183 94.046,-36.183 130.208,-7.241c36.163,36.162 36.163,94.046 7.238,130.208c-217.013,231.475 -658.28,593.179 -679.98,607.638c-28.941,21.704 -50.645,28.941 -72.345,28.941m918.7,-737.846c-50.646,0 -86.809,-43.404 -86.809,-86.804c0,-28.941 14.463,-50.646 28.942,-72.346c7.221,-7.237 188.075,-166.37 289.342,-491.891c14.479,-50.642 65.104,-72.346 115.745,-57.884c50.642,14.48 72.342,65.105 57.863,115.746c-122.967,383.388 -339.979,571.479 -347.221,578.7c-14.462,7.238 -36.162,14.479 -57.862,14.479m-238.717,737.846c-50.642,0 -86.804,-43.4 -86.804,-94.046c0,-36.162 21.7,-65.104 50.641,-79.562c7.221,0 571.459,-289.358 737.846,-802.954c14.463,-50.642 65.104,-72.342 115.729,-57.879c50.642,14.479 72.346,65.104 57.884,115.745c-195.313,585.938 -802.954,896.996 -831.892,911.459c-14.462,0 -28.942,7.237 -43.404,7.237m-2907.99,390.625c-50.641,0 -86.804,-43.4 -86.804,-94.046c0,-21.7 7.238,-43.4 21.7,-57.862c86.809,-101.283 188.075,-188.092 296.579,-260.417c43.405,-28.941 101.288,-14.479 122.988,28.925c21.7,43.4 14.462,94.042 -21.7,122.984c-94.046,65.104 -188.092,144.67 -260.417,231.475c-21.704,21.704 -50.641,28.941 -72.345,28.941m-470.192,1005.49c-50.642,0 -86.804,-43.404 -86.804,-86.804l0,-14.463c0,-14.462 65.104,-419.567 318.283,-817.412c28.938,-43.405 79.562,-57.884 122.967,-28.942c43.404,28.942 57.883,79.567 28.941,122.967c-231.475,361.704 -289.358,745.087 -289.358,745.087c-14.463,43.404 -50.625,79.567 -94.029,79.567m5678.54,-1511.86c-21.699,0 -43.399,-7.237 -65.104,-28.941c-79.566,-79.567 -173.608,-151.909 -274.879,-209.775c-43.4,-28.938 -57.879,-79.563 -28.937,-122.967c21.7,-36.179 79.562,-50.642 115.746,-28.942c115.729,65.105 217.012,144.671 311.041,238.717c36.179,36.163 36.179,94.046 0,130.208c-14.462,14.463 -36.162,21.7 -57.867,21.7m491.892,831.892c-43.4,0 -79.562,-28.942 -86.804,-72.342c0,-7.241 -50.625,-238.716 -296.579,-585.937c-28.942,-43.404 -14.463,-101.267 28.942,-122.971c36.162,-21.7 86.804,-14.479 115.729,21.704c274.896,376.146 332.758,643.8 332.758,658.263c7.242,50.641 -21.7,94.046 -72.342,108.508c-7.22,-7.225 -14.462,-7.225 -21.7,-7.225" style="fill:#e4c09d;fill-rule:nonzero;"/><path id="Shape6" serif:id="Shape" d="M14872.7,11050.8c-571.475,0 -766.787,-311.058 -766.787,-311.058l0,-253.179l1533.56,0l0,253.179c0,0 -195.312,311.058 -766.771,311.058" style="fill:#d5b6a5;fill-rule:nonzero;"/><path id="Shape7" serif:id="Shape" d="M16355.6,12070.8l-14.462,-0.005l-0.001,65.109c0.001,802.95 -651.041,1453.99 -1446.75,1453.99c-795.729,0 -1446.77,-651.041 -1446.77,-1453.99l0,-65.104l-14.463,0c-1309.32,0 -2387.15,1070.59 -2387.15,2387.15l0,7016.79l7696.75,0l0,-7016.79c0,-1316.56 -1070.59,-2387.16 -2387.15,-2387.16" style="fill:#edd4c6;fill-rule:nonzero;"/><path id="Shape8" serif:id="Shape" d="M11154.5,21315.6l7479.75,0l0,-6908.29c0,-1258.68 -1019.97,-2278.64 -2278.65,-2278.64l-383.387,0c-245.954,0 -441.267,-195.313 -441.267,-441.271l0,-1092.29l-1316.55,0l0,1092.29c0,245.958 -195.312,441.271 -441.266,441.271l-339.984,0c-1258.68,0 -2278.65,1019.96 -2278.65,2278.64l0,6908.29l-0.008,0Zm7588.25,217.013l-7696.75,0c-57.867,0 -108.508,-50.642 -108.508,-108.505l0,-7016.79c0,-1374.43 1121.23,-2495.66 2495.66,-2495.66l339.983,0c122.988,0 224.255,-101.266 224.255,-224.254l0,-1200.8c0,-57.883 50.641,-108.508 108.508,-108.508l1533.56,0c57.879,0 108.504,50.625 108.504,108.508l0,1200.8c0,122.988 101.288,224.254 224.255,224.254l383.387,0c1374.42,0 2495.66,1121.23 2495.66,2495.66l0,7016.79c0,65.105 -50.625,108.505 -108.508,108.505Z" style="fill:#3b4249;fill-rule:nonzero;"/><path id="Shape9" serif:id="Shape" d="M18742.7,14414.6l0,7016.79l-7696.75,0l0,-7016.79c0,-1179.11 868.055,-2170.14 1996.53,-2350.99c7.237,1012.73 831.891,1837.38 1851.86,1837.38c1012.73,0 1844.62,-817.413 1851.84,-1837.38c1128.48,180.85 1996.53,1171.88 1996.53,2350.99" style="fill:#84bde1;fill-rule:nonzero;"/><path id="Shape10" serif:id="Shape" d="M18004.9,5994.38l0,1866.32c0,1548.02 -1265.9,2806.7 -2806.7,2806.7l-658.279,0c-1540.8,0 -2806.72,-1265.9 -2806.72,-2806.7l0,-1931.42c0,-260.417 130.208,-737.846 332.762,-1142.95c202.55,-405.088 462.967,-745.071 723.384,-745.071c0,0 1077.83,419.55 2199.06,419.55c1056.15,0 2155.68,-419.55 2155.68,-419.55c528.071,0 860.817,1425.05 860.817,1953.12" style="fill:#fbe3d5;fill-rule:nonzero;"/><path id="Shape11" serif:id="Shape" d="M18004.9,5647.17l-716.146,-933.159c-144.671,-180.854 -368.925,-274.895 -600.4,-238.716l-969.325,267.637c-79.583,21.704 -159.15,36.184 -238.712,50.642c-390.625,50.646 -781.25,50.646 -1171.88,0c-101.288,-14.458 -202.554,-36.163 -296.6,-65.104l-911.459,-260.417c-217.012,-36.162 -434.025,43.404 -578.695,209.775l-788.492,904.238c0,-260.417 224.254,-557.013 419.567,-962.1c195.312,-405.088 376.162,-578.7 636.579,-578.7c0,0 1077.83,419.55 2199.06,419.55c1056.15,0 2242.48,-455.73 2242.48,-455.73c528.075,7.238 774.012,1114.01 774.012,1642.08m-3132.22,4441.54c2662.03,0 3132.22,-2235.24 3132.22,-2235.24c0,1548.04 -1265.9,2806.72 -2806.7,2806.72l-658.279,0c-1540.8,0 -2806.72,-1265.92 -2806.72,-2806.72c0,0 470.208,2235.24 3139.48,2235.24" style="fill:#d5b6a5;fill-rule:nonzero;"/><path id="Shape12" serif:id="Shape" d="M12767.7,4149.79c-180.854,14.462 -405.104,267.637 -607.642,687.204c-188.087,383.383 -318.296,839.112 -318.296,1092.31l0,1924.18c0,1490.16 1208.05,2698.21 2698.21,2698.21l658.283,0c1490.15,0 2698.2,-1208.05 2698.2,-2698.21l-0.004,-1866.32c0.004,-578.7 -339.98,-1801.22 -730.605,-1837.38c-166.371,57.862 -1179.12,419.546 -2177.38,419.546c-1056.13,7.241 -2054.39,-354.442 -2220.76,-419.546m2423.31,6626.17l-651.041,0c-1605.9,0 -2915.22,-1309.3 -2915.22,-2915.21l0,-1931.42c0,-289.358 137.45,-774.025 339.999,-1186.35c144.671,-303.817 448.492,-810.171 824.655,-810.171c14.462,0 28.925,0 36.162,7.221c7.238,7.237 1070.61,412.325 2162.9,412.325c1019.96,0 2105.03,-412.325 2119.51,-412.325c14.462,-7.221 28.925,-7.221 36.162,-7.221c629.342,0 962.1,1526.32 962.1,2054.39l0,1866.32c7.225,1613.15 -1302.08,2922.45 -2915.22,2922.45" style="fill:#3b4249;fill-rule:nonzero;"/><path id="Shape13" serif:id="Shape" d="M13136.6,12092.5c-166.387,28.925 -325.52,72.325 -484.67,137.429c0,1179.12 1005.5,2133.97 2242.48,2133.97c1236.98,0 2242.47,-954.858 2242.47,-2133.97l0,-14.462c-144.67,-57.863 -289.341,-94.046 -441.25,-122.967c-7.241,976.562 -802.95,1765.03 -1779.51,1765.03c-976.563,0 -1772.29,-788.471 -1779.52,-1765.03" style="fill:#b5def2;fill-rule:nonzero;"/><path id="Shape14" serif:id="Shape" d="M11154.5,21315.6l7479.75,0l0,-6908.29c0,-1063.37 -759.55,-1996.53 -1786.74,-2220.78c-79.584,1012.74 -925.938,1808.45 -1953.12,1808.45c-1027.2,0 -1880.8,-802.95 -1953.12,-1808.45c-1027.2,231.492 -1786.76,1164.65 -1786.76,2220.78l0,6908.29l-0.008,0Zm7588.25,217.013l-7696.75,0c-57.867,0 -108.508,-50.642 -108.508,-108.505l0,-7016.79c0,-593.179 217.012,-1164.64 600.4,-1620.37c383.4,-448.508 911.458,-745.087 1490.17,-839.133c57.866,-7.221 115.729,28.941 122.97,86.808l0,14.479c7.238,954.859 788.488,1728.87 1743.35,1728.87c954.863,0 1736.11,-774.012 1743.33,-1728.87c0,-57.883 50.641,-108.508 108.508,-108.508l14.479,0c571.459,94.029 1099.53,390.625 1482.92,839.116c390.625,448.488 600.416,1027.2 600.416,1620.36l0,7016.79c7.221,72.346 -43.404,115.746 -101.287,115.746Zm-8998.83,477.433l-7421.88,0c-57.867,0 -108.509,-50.642 -108.509,-108.508c0,-57.884 50.642,-108.509 108.509,-108.509l7421.88,0c57.862,0 108.504,50.625 108.504,108.508c0,57.867 -50.642,108.509 -108.504,108.509Zm19531.2,0l-1779.52,0c-57.862,0 -108.504,-50.642 -108.504,-108.508c0,-57.884 50.642,-108.509 108.504,-108.509l1779.52,0c57.862,0 108.504,50.625 108.504,108.508c0,57.867 -50.642,108.509 -108.504,108.509Zm-16883.7,0l-1345.48,0c-57.867,0 -108.509,-50.642 -108.509,-108.508c0,-57.884 50.642,-108.509 108.509,-108.509l1345.48,0c57.867,0 108.508,50.625 108.508,108.508c0,57.867 -50.641,108.509 -108.508,108.509Zm12283,0l-11241.3,0c-57.863,0 -108.504,-50.642 -108.504,-108.508c0,-57.884 50.641,-108.509 108.504,-108.509l11241.3,0c57.867,0 108.508,50.625 108.508,108.508c0,57.867 -50.641,108.509 -108.508,108.509Z" style="fill:#3b4249;fill-rule:nonzero;"/><path id="Shape15" serif:id="Shape" d="M20102.8,15376.6l0,5526.62c0,289.338 -231.496,520.834 -520.834,520.834l-9375,0c-289.358,0 -520.833,-231.496 -520.833,-520.834l0,-5526.62c0,-289.341 231.475,-520.833 520.833,-520.833l9375,0c289.338,0 520.834,231.492 520.834,520.833" style="fill:#e4e6e9;fill-rule:nonzero;"/><path id="Shape16" serif:id="Shape" d="M20102.8,20295.7l0,607.641c0,289.338 -231.496,520.834 -520.834,520.834l-9375,0c-289.358,0 -520.833,-231.496 -520.833,-520.834l0,-607.641l10416.7,0Z" style="fill:#cdcfd2;fill-rule:nonzero;"/><path id="Shape17" serif:id="Shape" d="M9686.04,18248.4c-57.879,0 -108.504,-50.642 -108.504,-108.509l0,-1099.53c0,-57.883 50.625,-108.508 108.504,-108.508c57.866,0 108.508,50.625 108.508,108.508l0,1099.53c0,57.867 -50.642,108.509 -108.508,108.509" style="fill:#3b4249;fill-rule:nonzero;"/><path id="Shape18" serif:id="Shape" d="M19582,21532.6l-9375,0c-347.225,0 -629.341,-282.117 -629.341,-629.338l0,-2097.81c0,-57.867 50.625,-108.508 108.508,-108.508c57.863,0 108.504,50.641 108.504,108.508l0,2097.81c0,224.233 188.075,412.324 412.329,412.324l9375,0c224.234,0 412.325,-188.091 412.325,-412.325l0,-5526.62c0,-224.237 -188.091,-412.325 -412.325,-412.325l-9375,0c-224.254,0 -412.329,188.088 -412.329,412.325l0,1085.07c0,57.879 -50.641,108.504 -108.504,108.504c-57.883,0 -108.508,-50.624 -108.508,-108.504l0,-1085.07c0,-347.22 282.116,-629.341 629.341,-629.341l9375,0c347.221,0 629.338,282.121 629.338,629.341l0,5526.62c0,347.221 -282.117,629.338 -629.338,629.338" style="fill:#3b4249;fill-rule:nonzero;"/><path id="Shape19" serif:id="Shape" d="M19393.8,17134.4c-50.625,0 -86.804,-36.162 -86.804,-86.804l0,-991.025c0,-238.717 -195.313,-434.029 -434.029,-434.029l-1121.23,0c-50.641,0 -86.804,-36.163 -86.804,-86.804c0,-50.642 36.163,-86.809 86.804,-86.809l1121.23,0c332.758,0 607.637,274.879 607.637,607.642l0,991.025c0,50.642 -36.162,86.804 -86.804,86.804m-2256.95,-1511.86l-788.471,0c-50.641,0 -86.804,-36.163 -86.804,-86.805c0,-50.641 36.163,-86.804 86.804,-86.804l781.25,-0.004c50.625,0.004 86.804,36.167 86.804,86.808c0,50.642 -36.179,86.805 -79.583,86.805m-1945.88,2958.63c412.325,491.891 94.046,708.908 -296.579,708.908c-390.625,0 -708.925,-318.283 -708.925,-708.908c0,-390.625 318.3,-708.925 708.925,-708.925c390.625,0 578.695,354.462 296.579,708.925" style="fill:#fefefe;fill-rule:nonzero;"/><path id="Shape20" serif:id="Shape" d="M14894.4,17973.6c-332.758,0 -600.417,267.638 -600.417,600.4c0,332.758 267.659,600.396 600.417,600.396c188.075,0 332.746,-57.863 368.925,-137.429c43.404,-86.805 -14.479,-224.255 -151.908,-390.625c-36.184,-36.18 -36.184,-94.046 0,-137.446c108.504,-137.45 137.429,-274.879 86.804,-383.388c-50.642,-94.046 -159.15,-151.908 -303.821,-151.908m0,1425.05c-448.504,0 -817.429,-368.921 -817.429,-817.413c0,-448.508 368.925,-817.429 817.429,-817.429c224.238,0 412.329,101.284 499.133,274.896c79.567,159.129 50.625,354.442 -65.104,535.296c159.133,217.012 202.534,397.862 130.209,556.996c-72.346,166.387 -289.359,267.654 -564.238,267.654" style="fill:#3b4249;fill-rule:nonzero;"/><path id="Shape21" serif:id="Shape" d="M14785.9,17445.5c-0.004,0 79.563,-282.121 296.579,-347.225" style="fill:#e4e6e9;fill-rule:nonzero;"/><path id="Shape22" serif:id="Shape" d="M14785.9,17554c-57.883,0 -108.508,-50.642 -108.508,-108.504c0,-7.242 0,-21.704 7.221,-28.942c7.241,-14.462 101.283,-339.983 368.925,-419.55c57.879,-14.479 115.745,21.704 130.208,79.567c14.479,57.866 -14.463,108.508 -72.329,130.208c-159.146,43.404 -224.25,267.659 -224.25,274.879c-14.463,36.18 -50.646,72.342 -101.271,72.342" style="fill:#3b4249;fill-rule:nonzero;"/><path id="Shape23" serif:id="Shape" d="M13252.3,6341.62c86.808,-159.15 260.416,-253.196 441.266,-253.196c180.855,0 347.225,94.046 441.271,253.196" style="fill:#fbe4d6;fill-rule:nonzero;"/><path id="Shape24" serif:id="Shape" d="M14134.8,6428.42c-28.941,0 -57.883,-14.479 -72.345,-43.404c-72.346,-130.209 -217.013,-209.792 -361.684,-209.792c-151.912,0 -289.358,79.583 -361.7,209.792c-21.704,43.404 -79.566,57.866 -115.733,28.925c-36.179,-28.925 -57.879,-79.567 -28.938,-115.73c108.505,-180.85 303.817,-296.595 513.592,-296.595c209.792,0 405.104,115.745 513.613,296.595c21.7,43.404 7.22,94.03 -28.942,115.73c-28.942,14.479 -43.404,14.479 -57.867,14.479" style="fill:#3b4249;fill-rule:nonzero;"/><path id="Shape25" serif:id="Shape" d="M15473.1,6341.62c86.805,-159.15 260.417,-253.196 441.267,-253.196c180.833,0 347.221,94.046 441.25,253.196" style="fill:#fbe4d6;fill-rule:nonzero;"/><path id="Shape26" serif:id="Shape" d="M16348.4,6428.42c-28.942,0 -57.883,-14.479 -72.346,-43.404c-72.346,-130.209 -217.012,-209.792 -361.683,-209.792c-151.913,0 -289.358,79.583 -361.7,209.792c-21.704,43.404 -79.567,57.866 -115.733,28.925c-36.18,-28.925 -57.88,-79.567 -28.938,-115.73c108.504,-180.85 303.817,-296.595 513.592,-296.595c209.791,0 405.104,115.745 513.612,296.595c21.7,43.404 7.221,94.03 -28.941,115.73c-21.7,14.479 -43.405,14.479 -57.867,14.479m-1569.74,1605.9c-50.641,0 -86.804,-36.184 -86.804,-86.808c0,-50.642 36.163,-86.805 86.804,-86.805c101.267,0 217.013,-65.104 296.58,-115.745c-108.509,-173.613 -166.371,-419.567 -173.613,-455.73c-7.221,-50.641 21.704,-94.045 65.104,-101.266c43.404,-7.242 86.809,21.7 101.288,65.104c21.7,94.025 94.025,347.221 188.071,455.729c28.941,36.162 28.941,86.804 -7.238,122.967c-7.225,0 -245.937,202.554 -470.192,202.554m-151.908,1150.17c0,0 -7.242,0 0,0c-679.983,-57.879 -817.417,-557.013 -824.654,-578.713c-14.463,-43.404 14.462,-94.029 65.104,-108.508c43.404,-14.463 94.046,14.479 108.508,65.104c7.238,14.479 115.746,405.104 658.28,448.508c50.625,0 86.804,43.4 79.566,94.025c0,50.642 -36.162,86.809 -86.804,79.584" style="fill:#3b4249;fill-rule:nonzero;"/><path id="Shape27" serif:id="Shape" d="M14916.1,12909.9c-21.704,0 -43.404,-7.238 -57.883,-21.7l-289.342,-260.417c-36.179,-28.942 -36.179,-86.808 -7.237,-122.971c28.937,-36.179 86.804,-36.179 122.967,-7.237l224.254,202.55l195.312,-202.55c36.163,-36.163 86.804,-36.163 122.967,0c36.183,36.162 36.183,86.804 0,122.966l-253.175,260.417c-14.463,21.704 -36.163,28.942 -57.867,28.942" style="fill:#010202;fill-opacity:0.0941176;fill-rule:nonzero;"/><path id="Shape28" serif:id="Shape" d="M13208.9,13712.8c-14.463,0 -36.167,-7.237 -50.629,-21.7c-86.805,-86.804 -159.146,-188.075 -231.492,-289.358c-21.7,-28.925 -14.463,-72.325 14.479,-94.029c28.925,-21.7 72.329,-14.479 94.029,14.462c65.104,94.046 137.446,188.075 217.013,267.659c21.704,28.921 21.704,65.104 0,94.025c-7.221,21.704 -21.7,28.941 -43.4,28.941m1417.83,708.909l-7.242,0c-390.625,-43.405 -759.546,-188.075 -1077.83,-412.325c-28.942,-21.704 -36.162,-57.867 -14.462,-94.029c21.704,-28.942 57.866,-36.184 94.029,-14.48c303.82,209.792 651.041,347.221 1019.97,390.625c36.18,7.238 65.104,36.18 57.88,72.342c-14.48,36.167 -43.4,57.867 -72.342,57.867m470.192,7.237c-36.167,0 -65.105,-28.937 -65.105,-65.104c0,-36.163 28.938,-65.104 57.88,-65.104c636.562,-50.642 1215.28,-376.163 1598.66,-889.754c21.704,-28.942 65.104,-36.163 94.046,-14.463c28.925,21.7 36.162,65.104 14.462,94.025c-412.325,542.538 -1027.2,882.538 -1699.95,940.4m1757.81,-1077.83c-36.163,0 -65.104,-28.942 -65.104,-65.104c0,-14.479 0,-21.7 7.241,-36.179c36.163,-57.867 72.342,-115.729 101.267,-180.834c14.479,-28.941 57.883,-43.404 86.804,-21.7c28.942,14.459 43.404,50.625 28.942,86.805c-36.163,65.104 -65.104,130.208 -108.504,188.07c-7.242,14.463 -28.942,28.942 -50.646,28.942m202.554,-397.862c-36.162,0 -65.104,-28.942 -65.104,-65.105c0,-7.241 0,-14.462 7.242,-21.704c28.92,-79.566 57.862,-166.371 79.562,-253.175c7.242,-36.179 43.404,-50.641 79.567,-43.404c28.941,7.225 50.641,43.404 43.404,72.329c-21.7,86.804 -50.625,180.85 -86.804,267.654c-7.225,28.942 -36.167,43.405 -57.867,43.405m-4246.25,173.608c-21.7,0 -50.642,-14.458 -57.879,-36.163c-50.629,-101.283 -86.808,-202.55 -122.971,-311.058c-14.462,-36.162 7.242,-72.342 43.404,-79.567c36.163,-7.237 72.342,7.225 79.567,43.405c28.937,101.266 72.342,195.312 115.746,289.341c14.462,28.938 0,72.342 -28.942,86.804c-7.225,7.238 -21.7,7.238 -28.925,7.238" style="fill:#3b4249;fill-rule:nonzero;"/><path id="Shape29" serif:id="Shape" d="M15082.5,7289.25c0,0 166.371,209.775 289.359,405.088c72.325,115.745 14.458,267.654 -108.509,318.295c-137.45,50.625 -318.3,79.567 -477.429,0l419.546,-245.954l-122.967,-477.429Z" style="fill:#010202;fill-opacity:0.0666667;fill-rule:nonzero;"/><path id="Shape30" serif:id="Shape" d="M17136.9,7846.25c0,289.358 -231.475,520.833 -520.833,520.833c-289.342,0 -520.834,-231.475 -520.834,-520.833c0,-289.342 231.492,-520.833 520.834,-520.833c282.116,-7.225 520.833,231.491 520.833,520.833m-3399.88,0c0,289.358 -231.475,520.833 -520.833,520.833c-289.359,0 -520.834,-231.475 -520.834,-520.833c0,-289.342 231.475,-520.833 520.834,-520.833c282.116,-7.225 520.833,231.491 520.833,520.833" style="fill:#be1e2c;fill-opacity:0.0941176;fill-rule:nonzero;"/><path id="Shape31" serif:id="Shape" d="M21665.3,-2071.3c-21.704,0 -43.405,-21.704 -43.405,-43.404c0,-14.463 7.221,-21.704 14.463,-28.925l180.85,-195.313c14.462,-14.479 43.404,-21.7 57.867,0c14.458,14.463 21.7,43.405 0,57.867l-180.854,195.313c-7.221,14.462 -14.459,14.462 -28.921,14.462Zm-130.209,-50.629c-21.704,0 -43.404,-21.7 -43.404,-43.4l0,-195.313c0,-21.704 21.7,-43.404 43.404,-43.404c21.7,0 43.4,21.7 43.4,43.404l0,195.313c0,28.925 -21.7,43.4 -43.4,43.4Zm376.146,188.075l-195.312,0c-21.704,0 -43.405,-21.7 -43.405,-43.404c0,-21.7 21.7,-43.4 43.405,-43.4l195.312,0c21.7,0 43.4,21.7 43.4,43.4c0,21.704 -21.7,43.404 -43.4,43.404Zm-2314.81,325.521l-245.955,0c-14.458,0 -28.92,-14.463 -28.92,-36.163c0,-14.479 14.462,-28.942 28.92,-28.942l245.959,0c14.458,0 28.937,14.463 28.937,36.163c7.225,14.479 -7.237,28.942 -28.937,28.942l-0.004,0Zm-65.104,166.371l-180.855,-0.001c-14.458,0 -28.92,-14.462 -28.92,-36.162c0,-14.463 14.462,-28.942 28.92,-28.942l180.855,0c14.458,0 28.937,14.479 28.937,36.184c7.225,14.458 -7.238,28.92 -28.938,28.92Zm43.4,166.392l-217.012,0c-14.463,0 -36.163,-14.479 -36.163,-36.183c0,-21.7 14.463,-36.163 36.163,-36.163l217.012,0c14.463,0 36.163,14.463 36.163,36.163c0,21.704 -21.7,36.183 -36.163,36.183Zm-101.266,166.371l-122.988,0c-14.462,0 -36.162,-14.463 -36.162,-36.163c0,-21.704 14.462,-36.183 36.162,-36.183l122.988,0c14.462,0 36.162,14.479 36.162,36.183c0,21.7 -14.462,36.163 -36.162,36.163Zm72.325,166.371l-195.313,0c-14.462,0 -36.162,-14.463 -36.162,-36.163c0,-21.704 14.462,-36.162 36.162,-36.162l195.313,0c14.479,0 36.183,14.458 36.183,36.162c0,21.7 -14.479,36.163 -36.183,36.163Zm50.641,166.387l-245.954,0c-14.462,0 -36.162,-14.479 -36.162,-36.179c0,-21.7 14.462,-36.162 36.162,-36.162l245.954,0c14.463,0 36.167,14.462 36.167,36.162c0,21.7 -14.462,36.179 -36.167,36.179Zm-9418.42,15740.8c-151.913,0 -267.659,122.988 -267.659,267.659c0,151.908 122.988,267.654 267.659,267.654c151.908,0 267.654,-122.988 267.654,-267.654c0,-144.671 -122.983,-267.659 -267.654,-267.659Zm-925.921,-4824.92c-21.7,-43.404 -7.242,-101.284 36.162,-130.209l737.846,-600.416c50.646,-43.404 122.971,-36.163 159.15,7.237c36.163,43.404 28.925,115.75 -14.479,151.913l-737.846,600.4c-50.625,43.4 -122.971,36.179 -159.133,-7.225c-14.479,-7.238 -21.7,-14.479 -21.7,-21.7Zm10387.7,-5729.17c-50.641,0 -94.046,-36.179 -101.266,-86.804l-224.254,-925.938c-14.463,-65.104 21.699,-122.97 79.566,-137.433c57.883,-14.479 115.746,21.704 130.209,79.567l224.254,925.921c14.462,65.104 -21.704,122.987 -79.567,137.445c-7.242,7.242 -21.7,7.242 -28.942,7.242Zm151.909,8723.96c-21.7,-43.404 -7.238,-101.283 36.166,-130.208l752.325,-585.937c50.625,-36.18 122.967,-36.18 159.134,14.462c36.179,43.4 28.937,115.746 -21.704,151.908l-752.309,585.938c-50.641,36.162 -122.966,36.162 -159.15,-14.463c-7.221,0 -14.462,-7.237 -14.462,-21.7Zm-8289.92,-11711.5c-245.954,0 -441.267,195.312 -441.267,441.266c0,245.959 195.313,441.271 441.267,441.271c245.954,0 441.267,-195.312 441.267,-441.271c0,-245.954 -195.313,-441.266 -441.267,-441.266Zm0,643.821c-115.746,0 -202.55,-94.046 -202.55,-202.555c0,-115.745 94.042,-202.55 202.55,-202.55c115.746,0 202.554,94.046 202.554,202.55c0,108.509 -86.808,202.555 -202.554,202.555Zm8340.58,5794.25c-245.958,0 -441.27,195.312 -441.27,441.25c0,245.954 195.312,441.266 441.27,441.266c245.938,0 441.25,-195.312 441.25,-441.266c0,-238.717 -195.312,-441.25 -441.25,-441.25Zm0,651.041c-115.75,0 -202.554,-94.046 -202.554,-202.554c0,-115.746 94.046,-202.55 202.554,-202.55c115.73,0 202.534,94.046 202.534,202.55c7.237,108.508 -86.804,202.554 -202.534,202.554Zm-10843.5,4528.33c-245.937,0 -441.25,195.312 -441.25,441.266c0,245.938 195.313,441.25 441.25,441.25c245.954,0 441.267,-195.312 441.267,-441.25c0,-245.954 -195.313,-441.266 -441.267,-441.266Zm0,643.804c-115.729,-0.004 -202.533,-94.029 -202.533,-202.538c0,-115.746 94.029,-202.55 202.533,-202.55c115.746,0 202.554,94.046 202.554,202.55c7.238,108.509 -86.808,202.538 -202.554,202.538Z" style="fill:#fefefe;fill-rule:nonzero;"/></g></svg>