<?xml version="1.0" encoding="UTF-8" standalone="no"?><!DOCTYPE svg PUBLIC "-//W3C//DTD SVG 1.1//EN" "http://www.w3.org/Graphics/SVG/1.1/DTD/svg11.dtd"><svg width="100%" height="100%" viewBox="0 0 1638 975" version="1.1" xmlns="http://www.w3.org/2000/svg" xmlns:xlink="http://www.w3.org/1999/xlink" xml:space="preserve" xmlns:serif="http://www.serif.com/" style="fill-rule:evenodd;clip-rule:evenodd;stroke-linejoin:round;stroke-miterlimit:1.41421;"><g><path d="M426.187,773.133c-8.908,-4.781 -18.233,-8.746 -27.86,-11.84c-11.734,-3.79 -20.752,12.445 -11.847,20.661c5.946,5.485 10.565,11.099 14.885,17.893c6.203,9.759 15.588,15.887 27.318,15.804c5.754,-0.042 11.292,-4.048 12.737,-9.707c3.446,-13.496 -3.022,-26.214 -15.233,-32.811m89.571,70.378c-3.132,-3.356 -7.875,-4.562 -12.267,-3.98c-8.753,1.154 -14.647,9.722 -12.358,18.384c0.855,3.219 1.702,6.442 2.553,9.665c1.778,6.733 8.526,10.959 15.29,10.062c6.279,-0.828 12.85,-6.741 12.169,-13.663l-0.965,-9.873c-0.408,-4.161 -1.554,-7.528 -4.422,-10.595" style="fill:#feb;fill-rule:nonzero;"/><path d="M1189.65,264.582c-33.477,-9.884 -94.178,-5.447 -131.155,13.845c-29.997,15.649 -81.578,51.657 -109.767,121.853c-25.068,62.423 -45.09,139.046 2.459,193.96c18.531,-21.883 34.82,-41.788 35.319,-72.716c29.729,-48.691 71.986,119.024 97.254,98.972c40.559,-11.049 144.856,-14.583 144.856,-14.583c0,0 -3.54,-156.794 42.957,-116.485c4.948,-50.155 -3.877,70.646 26.596,95.96c17.147,-41.405 37.041,-64.911 32.823,-119.999c-2.882,-37.654 -1.581,-64.125 -24.641,-107.895c-24.678,-46.83 -57.879,-75.541 -116.701,-92.912" style="fill:#f3de86;fill-rule:nonzero;"/><path d="M998.435,508.501l0.511,0.011c16.14,0.582 31.188,29.778 47.117,60.69c10.789,20.934 24.217,46.982 32.573,48.782c0.681,0.148 1.464,0.163 2.565,-0.707c0.435,-0.348 0.934,-0.598 1.475,-0.745c36.492,-9.949 121.891,-13.804 141.758,-14.583c-0.246,-22.197 0.447,-109.586 26.313,-121.736c5.383,-2.527 11.235,-1.955 17.465,1.695c0.098,-0.87 0.189,-1.6 0.268,-2.224c0.337,-2.603 0.863,-6.507 4.778,-6.435c3.934,0.099 4.225,4.105 4.38,6.257c0.118,1.596 0.227,3.915 0.371,6.797c0.893,18.366 3.473,71.456 18.827,91.705c3.075,-7.07 6.185,-13.618 9.218,-20.003c12.892,-27.16 24.024,-50.613 20.832,-92.306c-0.378,-4.895 -0.681,-9.608 -0.976,-14.193c-1.979,-30.602 -3.541,-54.774 -23.203,-92.094c-25.326,-48.071 -58.421,-74.403 -114.228,-90.884c-30.844,-9.109 -91.027,-5.788 -128.083,13.542c-28.238,14.734 -79.793,49.879 -107.849,119.742c-44.084,109.764 -23.226,158.845 -1.347,186.035c16.194,-19.224 30.735,-38.077 31.189,-66.387c0.011,-0.734 0.223,-1.452 0.605,-2.08c4.407,-7.222 9.6,-10.879 15.441,-10.879m80.848,117.782c-0.798,0 -1.596,-0.087 -2.379,-0.257c-12.162,-2.617 -24.21,-25.987 -38.157,-53.056c-12.819,-24.876 -28.771,-55.826 -40.096,-56.238c-2.656,-0.095 -5.372,1.929 -8.058,6.026c-0.934,32.421 -18.894,53.624 -36.269,74.141c-0.779,0.916 -1.917,1.449 -3.12,1.453c-1.207,0.03 -2.361,-0.496 -3.132,-1.423c-50.674,-58.518 -26.075,-141.133 -3.167,-198.181c29.044,-72.318 82.438,-108.712 111.682,-123.967c39.378,-20.544 101.196,-23.896 134.226,-14.144c57.407,16.958 93.048,45.351 119.179,94.943c20.476,38.867 22.171,65.063 24.134,95.4c0.291,4.547 0.598,9.23 0.968,14.095c3.359,43.872 -8.208,68.24 -21.607,96.459c-3.798,8.001 -7.724,16.278 -11.518,25.428c-0.863,2.099 -3.265,3.098 -5.364,2.232c-0.386,-0.159 -0.745,-0.378 -1.067,-0.643c-18.142,-15.071 -23.294,-57.695 -25.405,-95.268c-0.461,-0.174 -0.888,-0.428 -1.259,-0.749c-8.787,-7.619 -13.183,-5.553 -14.624,-4.876c-5.357,2.515 -15.01,13.958 -19.481,62.29c-2.622,28.382 -2.043,55.599 -2.039,55.871c0.049,2.251 -1.721,4.123 -3.972,4.203c-1.037,0.037 -103.027,3.601 -143.184,14.245c-1.842,1.302 -4.036,2.005 -6.291,2.016" style="fill:#3b4249;fill-rule:nonzero;"/><path d="M1306.2,828.796l0,143.127l-292.231,0l-19.784,-143.127c0,-59.741 10.066,-108.64 69.859,-108.64l15.51,0c8.431,0.004 15.27,-6.828 15.274,-15.26c0,-0.004 0,-0.004 0,-0.007l0,-54.6l69.905,0l0,54.6c0.004,8.435 6.839,15.271 15.275,15.267l17.491,0c59.79,0 108.701,48.899 108.701,108.64" style="fill:#fceab4;fill-rule:nonzero;"/><path d="M1129.79,679.624c-26.052,0 -34.953,-14.174 -34.953,-14.174l0,-11.537l69.901,0l0,11.537c0,0 -8.897,14.174 -34.948,14.174m67.714,44.485l-0.703,0c0.041,1.002 0.037,2.005 0.075,3.018c0.946,24.429 -39.37,56.93 -64.866,64.761c-24.959,-11.216 -69.72,-37.684 -67.314,-64.761c0.087,-1.006 0.03,-2.016 0.076,-3.018l-0.723,0c-59.793,0 -30.942,108.08 -30.942,167.817l0,79.997l273.098,3.953l0,-143.127c0,-59.737 -48.911,-108.64 -108.701,-108.64" style="fill:#d2c08c;fill-rule:nonzero;"/><path d="M961.039,966.979l340.219,0l0,-138.183c0,-57.18 -46.547,-103.696 -103.761,-103.696l-17.468,0c-11.163,-0.008 -20.215,-9.048 -20.238,-20.211l0,-49.656l-60.013,0l0,49.656c-0.015,11.159 -9.063,20.203 -20.222,20.211l-15.51,0c-56.797,0 -103.007,46.516 -103.007,103.696l0,138.183Zm345.167,9.888l-350.115,0c-2.731,0 -4.944,-2.213 -4.944,-4.944l0,-143.127c0,-62.631 50.647,-113.584 112.899,-113.584l15.51,0c5.7,-0.008 10.319,-4.627 10.326,-10.327l0,-54.596c0,-2.731 2.217,-4.944 4.952,-4.944l69.905,0c2.727,0 4.94,2.213 4.94,4.944l0,54.6c0.015,5.704 4.645,10.323 10.35,10.323l17.472,0c62.665,0 113.649,50.953 113.649,113.584l0,143.127c0,2.731 -2.213,4.944 -4.944,4.944Z" style="fill:#3b4249;fill-rule:nonzero;"/><path d="M1272.41,445.405l0,84.873c0,70.359 -57.596,127.92 -127.993,127.92l-29.914,0c-70.396,0 -127.996,-57.561 -127.996,-127.92l0,-87.623c0,-11.98 6.053,-33.459 15.097,-51.968c9.041,-18.505 21.093,-34.01 33.061,-34.01c0,0 49.614,-7.479 100.897,-7.479c47.98,0 97.874,7.479 97.874,7.479c23.96,0 38.978,64.783 38.974,88.728" style="fill:#fceab4;fill-rule:nonzero;"/><path d="M985.664,449.622l32.774,-42.589c6.431,-8.36 -43.195,56.703 -32.774,58.356c0,0 42.934,-22.526 70.291,-31.2c41.947,-13.297 84.355,-30.765 107.241,-57.309c24.848,3.957 42.707,14.507 64.987,26.343c8.81,4.683 43.388,43.653 43.388,43.653c0,-11.987 -10.058,-25.31 -19.099,-43.819c-9.041,-18.509 -17.091,-26.4 -29.059,-26.4c0,0 -44.232,-22.015 -95.518,-22.015c-47.98,0 -107.112,20.495 -107.112,20.495c-23.96,0 -35.119,50.537 -35.119,74.482m144.119,182.38c121.357,0 142.624,-101.721 142.624,-101.721c0,70.359 -57.596,127.924 -127.993,127.924l-29.914,0c-70.396,0 -127.996,-57.565 -127.996,-127.924c0,0 21.547,101.717 143.279,101.717" style="fill:#d2c08c;fill-rule:nonzero;"/><path d="M1135.56,354.142c-50.329,0 -99.667,7.35 -100.159,7.422c-0.246,0.038 -0.492,0.057 -0.738,0.057c-8.36,0 -19.061,11.677 -28.616,31.238c-8.458,17.309 -14.594,38.254 -14.594,49.796l0,87.623c0,67.809 55.198,122.976 123.048,122.976l29.914,0c67.851,0 123.049,-55.167 123.049,-122.976l0,-84.873c0,-26.877 -16.103,-83.788 -34.03,-83.788c-0.246,0 -0.491,-0.015 -0.737,-0.053c-0.492,-0.076 -50.095,-7.422 -97.137,-7.422m8.855,309l-29.914,0c-73.305,0 -132.944,-59.6 -132.944,-132.864l0,-87.623c0,-13.074 6.416,-35.335 15.6,-54.135c15.358,-31.442 29.695,-36.609 37.113,-36.783c4.524,-0.659 52.451,-7.483 101.29,-7.483c45.722,0 93.736,6.824 98.264,7.483c28.567,0.624 43.532,69.704 43.532,93.668l0,84.873c0,73.264 -59.639,132.864 -132.941,132.864" style="fill:#3b4249;fill-rule:nonzero;"/><path d="M1050.66,723.174c-7.528,1.241 -14.897,3.314 -21.967,6.181c0,53.7 45.707,97.236 102.085,97.236c56.378,0 102.081,-43.536 102.081,-97.239c0,-0.246 -0.019,-0.488 -0.019,-0.73c-6.484,-2.486 -13.198,-4.313 -20.049,-5.448c-0.435,44.372 -36.564,80.217 -81.052,80.217c-44.512,0 -80.622,-35.845 -81.079,-80.217" style="fill:#b5def2;fill-rule:nonzero;"/><path d="M961.372,534.356c1.535,-62.189 35.266,-102.705 120.347,-130.391c85.078,-27.682 86.065,-78.11 86.065,-78.11l-97.47,-18.426l-70.548,49.588l-38.47,49.989l-19.167,92.284l19.243,35.066Z" style="fill:#f2de8b;fill-rule:nonzero;"/><path d="M1049.94,472.409c3.82,-7.308 11.249,-12.025 19.488,-12.369c8.239,-0.352 16.043,3.722 20.465,10.682" style="fill:#fcebb6;fill-rule:nonzero;"/><path d="M1049.94,476.366c-2.183,0 -3.953,-1.77 -3.953,-3.953c0,-0.639 0.155,-1.271 0.45,-1.834c4.49,-8.546 13.183,-14.061 22.825,-14.488c9.646,-0.39 18.774,4.373 23.971,12.509c1.173,1.842 0.628,4.286 -1.214,5.459c-1.842,1.172 -4.286,0.628 -5.459,-1.214c-3.676,-5.758 -10.134,-9.128 -16.961,-8.852c-6.824,0.303 -12.975,4.206 -16.153,10.251c-0.703,1.347 -2.08,2.118 -3.506,2.122" style="fill:#3b4249;fill-rule:nonzero;"/><path d="M1169.82,467.136c5.492,-6.15 13.852,-8.904 21.925,-7.221c8.072,1.672 14.639,7.528 17.226,15.358" style="fill:#fcebb6;fill-rule:nonzero;"/><path d="M1208.97,479.23c-1.656,0 -3.204,-1.052 -3.752,-2.712c-2.156,-6.48 -7.592,-11.33 -14.276,-12.733c-6.692,-1.377 -13.61,0.904 -18.169,5.992c-1.456,1.63 -3.956,1.77 -5.587,0.314c-1.63,-1.457 -1.77,-3.957 -0.314,-5.587c6.446,-7.188 16.225,-10.411 25.681,-8.462c9.446,1.982 17.132,8.832 20.177,17.99c0.689,2.073 -0.435,4.309 -2.507,4.997c-0.401,0.133 -0.825,0.201 -1.249,0.201m-89.2,78.828c-2.183,0.095 -4.029,-1.596 -4.127,-3.779c-0.095,-2.182 1.596,-4.028 3.779,-4.127c0.117,-0.004 0.23,-0.004 0.348,0c4.539,0 10.039,-3.011 13.621,-5.439c-4.838,-7.744 -7.573,-19.228 -7.913,-20.707c-0.488,-2.13 0.843,-4.256 2.973,-4.744c2.13,-0.488 4.256,0.844 4.744,2.977c0.945,4.124 4.35,15.88 8.647,20.654c1.46,1.627 1.324,4.127 -0.303,5.587c-0.03,0.027 -0.057,0.049 -0.087,0.076c-0.457,0.386 -11.367,9.502 -21.679,9.502m25.424,38.758c-2.183,0.049 -3.991,-1.68 -4.044,-3.862c-0.049,-2.13 1.6,-3.915 3.726,-4.036c25.239,-2.051 30.073,-20.23 30.119,-20.416c0.529,-2.122 2.678,-3.412 4.796,-2.878c2.122,0.529 3.412,2.678 2.882,4.8c-0.245,0.976 -6.32,23.876 -37.154,26.381c-0.109,0.007 -0.215,0.011 -0.325,0.011m-91.149,200.016c-0.817,0 -1.6,-0.337 -2.16,-0.931c-3.839,-4.074 -7.357,-8.435 -10.527,-13.046c-0.927,-1.351 -0.586,-3.197 0.764,-4.124c1.351,-0.926 3.197,-0.586 4.123,0.765c2.996,4.361 6.325,8.484 9.957,12.335c1.123,1.192 1.07,3.068 -0.121,4.191c-0.549,0.519 -1.275,0.81 -2.036,0.81m64.367,32.395c-0.117,0 -0.23,-0.007 -0.348,-0.023c-17.695,-2.084 -34.608,-8.499 -49.232,-18.683c-1.343,-0.938 -1.672,-2.787 -0.734,-4.13c0.938,-1.343 2.788,-1.672 4.131,-0.734c13.822,9.623 29.8,15.687 46.528,17.658c1.626,0.185 2.795,1.653 2.613,3.279c-0.17,1.506 -1.445,2.637 -2.958,2.633m21.426,0.333c-1.642,-0.027 -2.947,-1.377 -2.924,-3.015c0.022,-1.509 1.172,-2.757 2.674,-2.909c28.87,-2.459 55.481,-17.189 73.007,-40.399c0.987,-1.309 2.844,-1.57 4.153,-0.583c1.309,0.987 1.57,2.845 0.583,4.154c-18.536,24.557 -46.69,40.134 -77.236,42.741c-0.087,0.007 -0.17,0.007 -0.257,0.007m80.285,-49.058c-1.638,0 -2.966,-1.328 -2.966,-2.966c0,-0.56 0.159,-1.104 0.454,-1.577c1.66,-2.64 3.196,-5.353 4.603,-8.133c0.795,-1.434 2.603,-1.952 4.037,-1.154c1.358,0.753 1.902,2.425 1.259,3.832c-1.483,2.928 -3.121,5.826 -4.872,8.61c-0.545,0.866 -1.494,1.388 -2.515,1.388m-181.761,-18.112c-1.229,0 -2.326,-0.756 -2.769,-1.903c-1.513,-3.941 -2.814,-8.019 -3.851,-12.104c-0.404,-1.589 0.556,-3.204 2.141,-3.609c1.589,-0.405 3.204,0.556 3.609,2.145c0.984,3.866 2.209,7.717 3.643,11.443c0.586,1.528 -0.178,3.245 -1.706,3.832c-0.341,0.128 -0.704,0.196 -1.067,0.196" style="fill:#3b4249;fill-rule:nonzero;"/><path d="M1035.77,770.273c-1.139,0 -2.179,-0.654 -2.675,-1.679c-2.182,-4.532 -4.047,-9.211 -5.579,-14.004c-0.5,-1.562 0.363,-3.23 1.925,-3.73c1.562,-0.499 3.231,0.363 3.73,1.926c1.437,4.512 3.215,8.965 5.273,13.232c0.711,1.475 0.095,3.249 -1.381,3.96c-0.404,0.193 -0.847,0.295 -1.293,0.295" style="fill:#3b4249;fill-rule:nonzero;"/><path d="M1132.23,523.469c0,0 7.657,9.782 13.032,18.637c3.272,5.383 0.825,12.476 -5.012,14.647c-6.204,2.308 -14.435,3.783 -21.864,0.004l19.121,-11.466l-5.277,-21.822Z" style="fill:#010202;fill-opacity:0.1;fill-rule:nonzero;"/><path d="M1232.94,523.734c-0.003,13.179 -10.69,23.857 -23.869,23.854c-13.179,0.003 -23.865,-10.675 -23.869,-23.854c0.004,-13.179 10.687,-23.862 23.866,-23.858l0.003,0c13.179,-0.004 23.866,10.675 23.869,23.858c0,-0.004 0,0 0,0m-155.024,0c-0.003,13.179 -10.69,23.857 -23.869,23.854c-13.179,0.003 -23.861,-10.675 -23.869,-23.854c0.004,-13.179 10.69,-23.862 23.869,-23.858c13.179,-0.004 23.866,10.675 23.869,23.858c0,-0.004 0,0 0,0" style="fill:#f6d4a4;fill-rule:nonzero;"/><path d="M1306.21,828.792l0,143.131l-273.105,0l0,-79.997l-77.607,-0.984l0,-73.763c0,0 8.761,-40.702 32.373,-65.521c21.75,-22.87 58.511,-30.023 58.511,-30.023c0.477,46.195 66.028,84.169 84.408,83.507c17.892,0 83.931,-37.312 84.385,-83.507c51.464,8.484 91.035,53.431 91.035,107.157" style="fill:#c0dfb0;fill-rule:nonzero;"/><path d="M1131.08,968.14l0.189,0l0.197,-0.003l92.783,-1.097l0,-75.114c0,-2.705 2.175,-4.906 4.879,-4.944l72.133,-0.923l0,-57.267c0,-24.622 -8.889,-48.532 -25.026,-67.325c-14.768,-17.196 -34.669,-29.108 -56.503,-33.924c-5.625,46.369 -70.779,81.965 -88.433,82.517l-0.306,0c-17.65,-0.552 -82.804,-36.148 -88.433,-82.517c-21.83,4.816 -41.735,16.728 -56.499,33.924c-16.114,18.732 -24.992,42.616 -25.026,67.325l0,57.267l72.129,0.923c2.708,0.038 4.88,2.239 4.88,4.944l0,75.11l92.783,1.101l0.177,0.003l0.076,0Zm-0.31,9.892c-0.121,0 -0.239,-0.004 -0.36,-0.011l-97.367,-1.158c-2.709,-0.03 -4.887,-2.231 -4.891,-4.94l0,-75.114l-72.126,-0.926c-2.708,-0.034 -4.883,-2.236 -4.883,-4.944l0,-62.147c0.034,-27.073 9.756,-53.238 27.41,-73.763c17.48,-20.363 41.545,-33.95 67.764,-38.274c2.7,-0.439 5.246,1.396 5.685,4.097c0.038,0.242 0.06,0.488 0.064,0.734c0.416,41.799 63.437,77.871 79.082,78.586c15.645,-0.715 78.666,-36.791 79.074,-78.586c0.027,-2.731 2.266,-4.925 4.997,-4.895c0.254,0.004 0.507,0.026 0.757,0.064c26.214,4.324 50.284,17.911 67.764,38.27c17.654,20.525 27.379,46.694 27.413,73.767l0,62.15c0,2.701 -2.179,4.907 -4.883,4.941l-72.129,0.926l0,75.114c0,2.709 -2.179,4.91 -4.888,4.94l-97.367,1.158c-0.14,0.007 -0.284,0.011 -0.424,0.011l-0.378,-0.004l-0.25,0.004l-0.064,0Z" style="fill:#3b4249;fill-rule:nonzero;"/><path d="M1229.2,976.867c-2.731,0 -4.944,-2.213 -4.944,-4.944l0,-122.602c0,-2.731 2.213,-4.944 4.944,-4.944c2.731,0 4.944,2.213 4.944,4.944l0,122.598c0.004,2.735 -2.209,4.948 -4.944,4.948m-194.573,0c-2.731,0.004 -4.944,-2.209 -4.948,-4.94l0,-0.004l0,-122.602c0,-2.731 2.213,-4.948 4.948,-4.948c2.731,0 4.944,2.213 4.944,4.948l0,122.598c0,2.735 -2.213,4.948 -4.944,4.948" style="fill:#3b4249;fill-rule:nonzero;"/><rect x="1229.19" y="891.93" width="77.005" height="81.155" style="fill:#fceab4;fill-rule:nonzero;"/><rect x="1229.19" y="887.973" width="77.005" height="18.694" style="fill:#d2c08c;fill-rule:nonzero;"/><path d="M1234,966.298l67.393,0l0,-69.564l-67.393,0l0,69.564Zm72.201,9.608l-77.005,0c-2.652,0.004 -4.804,-2.148 -4.808,-4.8l0,-0.004l0,-79.172c-0.004,-2.652 2.149,-4.804 4.8,-4.808l77.013,0c2.655,0 4.804,2.152 4.804,4.804l0,79.18c0,2.652 -2.152,4.804 -4.804,4.8Z" style="fill:#3b4249;fill-rule:nonzero;"/><rect x="956.42" y="891.93" width="77.005" height="81.155" style="fill:#fbe3d5;fill-rule:nonzero;"/><rect x="956.42" y="887.973" width="77.005" height="18.694" style="fill:#d5b6a5;fill-rule:nonzero;"/><path d="M961.228,966.298l67.389,0l0,-69.564l-67.389,0l0,69.564Zm72.197,9.608l-77.005,0c-2.652,0.004 -4.804,-2.148 -4.808,-4.8l0,-0.004l0,-79.172c-0.004,-2.652 2.149,-4.804 4.801,-4.808l77.012,0c2.656,0 4.804,2.152 4.804,4.804l0,79.18c0,2.652 -2.152,4.804 -4.804,4.8c0,0.004 0,0.004 0,0Z" style="fill:#3b4249;fill-rule:nonzero;"/><path d="M1156.09,357.259c0,0 51.483,15.858 81.291,39.87c21.819,17.571 43.683,45.529 43.683,45.529l10.614,0l1.982,-90.407l-69.345,-36.254l-58.504,-28.344l-37.914,50.757l28.189,18.849l0.004,0Z" style="fill:#f2de8b;fill-rule:nonzero;"/><path d="M961.368,538.471c-2.217,0 -4.036,-1.755 -4.112,-3.972c-2.799,-82.993 70.287,-116.478 125.507,-134.446c80.887,-26.32 83.213,-73.82 83.228,-74.3c0.053,-2.262 1.929,-4.051 4.191,-3.998c0.008,0 0.015,0 0.023,0c2.262,0.049 4.055,1.917 4.013,4.18c-0.041,2.178 -2.042,53.676 -88.909,81.941c-83.738,27.251 -121.815,67.397 -119.825,126.343c0.075,2.27 -1.703,4.173 -3.976,4.252l-0.14,0" style="fill:#3b4249;fill-rule:nonzero;"/><path d="M1288.41,464.137c-1.354,0 -2.682,-0.666 -3.465,-1.892c-0.291,-0.442 -29.097,-44.965 -50.144,-61.912c-28.84,-23.233 -79.419,-38.988 -79.929,-39.143c-2.171,-0.67 -3.386,-2.974 -2.716,-5.145c0.669,-2.171 2.973,-3.385 5.144,-2.716c2.134,0.654 52.58,16.364 82.668,40.6c22.08,17.779 50.689,61.992 51.899,63.864c1.233,1.907 0.685,4.452 -1.222,5.685c-0.665,0.432 -1.445,0.659 -2.239,0.659" style="fill:#3b4249;fill-rule:nonzero;"/><path d="M1295.28,417.957c-0.711,0 -1.426,-0.163 -2.092,-0.499c-1.675,-0.821 -2.678,-2.588 -2.519,-4.449c0.106,-1.188 0.707,-2.213 1.581,-2.886c-0.162,-2.769 -1.343,-9.888 -7.399,-26.453c-0.779,-2.137 0.322,-4.501 2.459,-5.28c2.137,-0.78 4.502,0.321 5.281,2.458c11.333,31.019 7.769,34.189 5.852,35.895c-0.87,0.779 -1.998,1.21 -3.163,1.214Zm-252.709,-58.772c-2.273,-0.004 -4.112,-1.846 -4.112,-4.12c0,-1.728 1.082,-3.268 2.705,-3.862c0.367,-0.132 37.146,-13.898 67.257,-56.453c1.369,-1.816 3.953,-2.175 5.769,-0.806c1.732,1.309 2.152,3.741 0.957,5.557c-31.692,44.784 -69.58,58.859 -71.18,59.438c-0.45,0.163 -0.923,0.246 -1.396,0.246m36.541,0c-2.269,0 -4.112,-1.839 -4.115,-4.108c0,-1.237 0.556,-2.41 1.516,-3.193c0.205,-0.17 20.719,-16.897 30.232,-27.031c1.634,-1.582 4.241,-1.544 5.826,0.09c1.475,1.525 1.554,3.919 0.177,5.538c-9.892,10.535 -30.175,27.081 -31.037,27.777c-0.734,0.598 -1.649,0.927 -2.595,0.927m41.856,-33.591c-2.27,0.008 -4.116,-1.823 -4.123,-4.093c-0.004,-1.214 0.526,-2.368 1.452,-3.151c0.159,-0.14 8.583,-7.554 13.342,-22.473c0.734,-2.152 3.075,-3.299 5.224,-2.565c2.088,0.711 3.242,2.947 2.618,5.062c-5.542,17.381 -15.441,25.896 -15.858,26.252c-0.741,0.628 -1.683,0.968 -2.655,0.968m-10.894,33.591c-2.274,-0.004 -4.112,-1.85 -4.108,-4.123c0.003,-1.555 0.877,-2.974 2.265,-3.67c0.258,-0.132 26.056,-13.292 33.758,-36.609c0.749,-2.145 3.098,-3.276 5.242,-2.527c2.092,0.73 3.231,2.989 2.573,5.107c-8.791,26.615 -36.712,40.797 -37.896,41.387c-0.567,0.283 -1.199,0.435 -1.834,0.435m-117.863,52.36c-2.269,0.004 -4.115,-1.834 -4.119,-4.104c0,-1.101 0.439,-2.156 1.222,-2.932c4.248,-4.24 9.022,-7.917 14.208,-10.939c2.023,-1.044 4.505,-0.25 5.549,1.774c0.972,1.884 0.356,4.195 -1.422,5.345c-4.574,2.67 -8.788,5.92 -12.536,9.661c-0.802,0.798 -1.854,1.195 -2.902,1.195m-22.492,37.71c-2.273,0.004 -4.119,-1.838 -4.119,-4.111c0,-0.261 0.022,-0.522 0.072,-0.776c0.098,-0.507 2.527,-12.619 15.115,-29.883c1.427,-1.775 4.021,-2.055 5.792,-0.628c1.653,1.327 2.024,3.695 0.862,5.469c-11.518,15.797 -13.663,26.483 -13.682,26.593c-0.378,1.967 -2.103,3.336 -4.04,3.336m271.407,-121.694c-1.021,0 -2.042,-0.378 -2.837,-1.135c-0.09,-0.087 -8.235,-7.652 -26.551,-13.829c-2.152,-0.727 -3.306,-3.061 -2.579,-5.213c0.726,-2.152 3.06,-3.306 5.212,-2.58c20.261,6.832 29.241,15.32 29.611,15.68c1.638,1.569 1.695,4.168 0.125,5.806c-0.779,0.813 -1.857,1.271 -2.981,1.271m-291.346,174.963l-0.064,0c-2.27,-0.038 -4.085,-1.907 -4.051,-4.176c0.094,-6.143 0.938,-12.116 2.508,-17.753c0.707,-2.163 3.033,-3.34 5.197,-2.632c2.028,0.662 3.212,2.765 2.731,4.841c-1.403,5.107 -2.144,10.373 -2.205,15.669c-0.038,2.246 -1.869,4.047 -4.116,4.051m10.282,42.68c-1.335,0 -2.637,-0.643 -3.427,-1.838c-0.284,-0.427 -7.021,-10.788 -10.096,-31.934c-0.326,-2.251 1.233,-4.339 3.483,-4.668c2.251,-0.329 4.339,1.233 4.668,3.484c2.781,19.133 8.761,28.499 8.822,28.594c1.237,1.91 0.688,4.463 -1.222,5.7c-0.666,0.432 -1.438,0.659 -2.228,0.662m342.038,-52.076c-2.269,0.003 -4.115,-1.835 -4.119,-4.105c0,-0.503 0.091,-1.002 0.272,-1.475c2.122,-5.614 4.959,-10.932 8.436,-15.827c1.377,-1.808 3.96,-2.16 5.768,-0.783c1.733,1.316 2.138,3.756 0.927,5.564c-3.068,4.32 -5.564,9.018 -7.433,13.978c-0.609,1.592 -2.141,2.648 -3.847,2.648m-4.929,43.63c-1.857,0 -3.544,-1.268 -3.998,-3.151c-0.121,-0.5 -2.913,-12.533 1.426,-33.463c0.461,-2.224 2.64,-3.654 4.865,-3.192c2.224,0.461 3.654,2.64 3.192,4.864c-3.968,19.141 -1.505,29.759 -1.483,29.865c0.534,2.209 -0.824,4.43 -3.033,4.963c-0.314,0.076 -0.643,0.114 -0.969,0.114m-15.6,-163.694c-1.445,0 -2.844,-0.757 -3.597,-2.107c-2.569,-4.63 -5.716,-8.909 -9.374,-12.737c-1.573,-1.638 -1.52,-4.24 0.114,-5.814c1.634,-1.574 4.24,-1.521 5.818,0.114c4.145,4.335 7.716,9.184 10.629,14.427c1.108,1.982 0.397,4.486 -1.585,5.595c-0.613,0.344 -1.305,0.522 -2.009,0.522" style="fill:#d3bc74;fill-rule:nonzero;"/><path d="M1076.59,900.342c-5.035,-0.003 -10.013,-1.055 -14.62,-3.086c-2.001,-0.878 -2.909,-3.212 -2.032,-5.209c0.878,-2.001 3.212,-2.909 5.209,-2.035c6.972,3.056 14.715,3.215 21.808,0.454c7.051,-2.728 12.717,-8.163 15.736,-15.093c0.877,-2.001 3.211,-2.913 5.212,-2.035c2.001,0.877 2.913,3.211 2.036,5.212c-3.859,8.856 -11.099,15.801 -20.11,19.285c-4.217,1.653 -8.707,2.504 -13.239,2.507m105.455,0c-5.035,-0.003 -10.013,-1.055 -14.62,-3.086c-2.001,-0.878 -2.909,-3.212 -2.035,-5.209c0.877,-2.001 3.211,-2.909 5.212,-2.035c6.976,3.056 14.715,3.215 21.808,0.454c7.051,-2.728 12.717,-8.163 15.736,-15.093c0.877,-2.001 3.211,-2.913 5.212,-2.035c2.001,0.877 2.913,3.211 2.036,5.212c-3.859,8.856 -11.099,15.801 -20.109,19.285c-4.218,1.653 -8.708,2.504 -13.24,2.507" style="fill:#010202;fill-opacity:0.1;fill-rule:nonzero;"/><path d="M724.327,801.606l0,172.258l-369.342,0l0,-172.258c0,-62.885 51.482,-114.364 114.427,-114.364l16.326,0c8.875,0.004 16.073,-7.187 16.077,-16.061c0,-0.004 0,-0.004 0,-0.008l0,-57.475l73.586,0l0,57.475c0.003,8.878 7.206,16.073 16.084,16.069l18.407,0c62.944,0 114.427,51.479 114.427,114.364" style="fill:#c3b3a5;fill-rule:nonzero;"/><path d="M674.83,285.134c-11.976,-15.415 -60.551,-52.686 -130.656,-54.169c-62.139,-1.316 -116.326,39.602 -130.591,54.169c-43.112,44.031 -27.035,154.146 -27.035,154.146l50.249,-55.542l223.776,11.462l25.525,44.08c3.802,0.859 25.076,-107.376 -11.268,-154.146" style="fill:#68574b;fill-rule:nonzero;"/><path d="M541.235,235.262c-59.298,0 -110.944,39 -124.554,52.898c-33.931,34.65 -29.566,113.879 -26.918,141.111l43.823,-48.438c0.87,-0.964 2.13,-1.486 3.435,-1.422l223.779,11.465c1.463,0.076 2.791,0.886 3.525,2.157l20.866,36.03c5.609,-24.996 15.342,-103.798 -13.781,-141.277c-12.835,-16.516 -60.849,-51.082 -127.327,-52.493c-0.945,-0.019 -1.899,-0.031 -2.844,-0.031m144.909,208.35c-1.563,0.018 -3.015,-0.806 -3.798,-2.16l-24.346,-42.049l-219.372,-11.235l-48.865,54.017c-1.604,1.775 -4.343,1.915 -6.117,0.314c-0.749,-0.677 -1.241,-1.592 -1.384,-2.595c-0.67,-4.58 -15.884,-112.751 28.226,-157.8c14.511,-14.817 70.257,-56.802 133.777,-55.47c30.969,0.681 61.386,8.314 89.007,22.337c23.166,11.817 38.709,25.435 44.977,33.504c36.155,46.531 18.089,149.21 12.075,158.663c-1.317,2.069 -3.038,2.474 -4.18,2.474" style="fill:#3b4249;fill-rule:nonzero;"/><path d="M538.617,640.416c-27.425,0 -36.794,-14.919 -36.794,-14.919l0,-12.143l73.581,0l0,12.143c0,0 -9.362,14.919 -36.787,14.919m71.282,48.907l-0.745,0c0.049,1.059 0.083,2.114 0.083,3.177c0,38.403 -31.147,69.534 -69.572,69.534c-38.421,0 -69.568,-31.131 -69.568,-69.534c0,-1.063 0.03,-2.118 0.075,-3.177l-0.756,0c-62.945,0 -114.428,51.483 -114.428,114.363l0,172.258l369.335,0l0,-172.258c0,-62.884 -51.483,-114.363 -114.424,-114.363" style="fill:#9a8a7d;fill-rule:nonzero;"/><path d="M360.193,968.659l358.925,0l0,-167.053c0,-60.191 -48.998,-109.159 -109.223,-109.159l-18.388,0c-11.749,0 -21.308,-9.544 -21.308,-21.274l0,-52.273l-63.171,0l0,52.269c-0.015,11.746 -9.54,21.263 -21.286,21.274l-16.33,0c-60.221,0 -109.219,48.968 -109.219,109.159l0,167.057Zm364.13,10.41l-369.335,0c-2.875,0 -5.209,-2.334 -5.209,-5.205l0,-172.258c0,-65.933 53.67,-119.569 119.633,-119.569l16.33,0c6,-0.007 10.86,-4.864 10.872,-10.864l0,-57.475c0,-2.875 2.334,-5.201 5.209,-5.201l73.581,0c2.875,0 5.209,2.33 5.209,5.201l0,57.475c0.015,6.003 4.891,10.864 10.894,10.864l18.388,0c65.971,0 119.637,53.639 119.637,119.569l0,172.258c0,2.875 -2.334,5.205 -5.209,5.205Z" style="fill:#3b4249;fill-rule:nonzero;"/><path d="M724.327,801.606l0,172.258l-369.342,0l0,-172.258c0,-56.56 41.651,-103.874 95.824,-112.802c0.503,48.628 40.074,87.907 88.852,87.907c48.76,0 88.354,-39.279 88.83,-87.91c54.173,8.931 95.828,56.249 95.828,112.805" style="fill:#e08484;fill-rule:nonzero;"/><path d="M688.75,398.026l0,89.34c0,74.066 -60.63,134.658 -134.733,134.658l-31.495,0c-74.104,0 -134.73,-60.592 -134.73,-134.658l0,-92.234c0,-12.615 6.37,-35.217 15.888,-54.706c9.521,-19.481 18.777,-23.612 31.377,-23.612c0,0 55.141,8.001 109.128,8.001c50.507,0 100.107,-8.001 100.107,-8.001c25.223,0 44.458,56.004 44.458,81.212" style="fill:#c3b3a5;fill-rule:nonzero;"/><path d="M688.75,378.734l-29.887,-39.386c-6.775,-8.802 -22.432,-9.937 -33.402,-8.193c0,0 -53.098,8.371 -87.192,9.343c-35.187,1.006 -84.801,-9.43 -84.801,-9.43c-10.369,-1.703 -31.934,0.877 -38.834,8.795l-26.842,35.973c0,-12.615 11.553,-26.195 20.102,-46.123c5.534,-12.899 13.417,-15.535 26.017,-15.535c0,0 56.287,7.94 110.274,7.94c50.507,0 103.023,-9.544 103.023,-9.544c25.22,0 41.542,40.948 41.542,66.16m-150.137,215.71c127.747,0 150.137,-107.078 150.137,-107.078c0,74.066 -60.63,134.658 -134.733,134.658l-31.491,0c-74.104,0 -134.738,-60.592 -134.738,-134.658c0,0 22.685,107.078 150.825,107.078" style="fill:#9a8a7d;fill-rule:nonzero;"/><path d="M439.097,320.48c-13.269,0.166 -23.611,7.645 -30.738,22.231c-8.901,18.221 -15.358,40.271 -15.358,52.421l0,92.234c0,71.381 58.103,129.457 129.521,129.457l31.495,0c71.418,0 129.528,-58.073 129.528,-129.457l0,-89.34c0,-25.685 -14.821,-76.846 -34.355,-77.546c-5.621,0.964 -57.206,9.54 -105.008,9.54c-50.976,0 -99.615,-8.549 -105.085,-9.54m114.92,306.749l-31.491,0c-77.168,0 -139.943,-62.74 -139.943,-139.863l0,-92.234c0,-13.765 6.753,-37.199 16.417,-56.987c11.341,-23.207 28.31,-28.079 40.551,-28.079c0.326,0 0.647,0.03 0.969,0.091c0.499,0.094 50.821,9.457 103.665,9.457c49.448,0 103.163,-9.374 103.696,-9.469c0.303,-0.053 0.606,-0.075 0.908,-0.075c29.801,0 45.166,61.651 45.166,87.956l0,89.34c0,77.123 -62.774,139.863 -139.938,139.863m-193.824,341.43l358.925,0l0,-167.053c-0.034,-26.014 -9.377,-51.154 -26.343,-70.874c-15.517,-18.066 -36.409,-30.587 -59.34,-35.675c-3.677,48.434 -44.507,86.856 -93.77,86.856c-49.251,0 -90.089,-38.425 -93.789,-86.856c-22.927,5.088 -43.827,17.609 -59.34,35.675c-16.965,19.72 -26.309,44.86 -26.343,70.874l0,167.053Zm364.13,10.41l-369.335,0c-2.875,0 -5.209,-2.334 -5.209,-5.205l0,-172.258c0,-28.401 10.252,-55.981 28.855,-77.652c18.403,-21.43 43.732,-35.736 71.335,-40.286c2.841,-0.466 5.519,1.463 5.984,4.304c0.042,0.258 0.065,0.515 0.068,0.776c0.469,45.635 37.994,82.758 83.644,82.758c45.661,0 83.175,-37.123 83.625,-82.754c0.034,-2.879 2.398,-5.183 5.277,-5.149c0.261,0.004 0.518,0.027 0.775,0.068c27.599,4.547 52.932,18.853 71.335,40.286c18.585,21.607 28.821,49.149 28.855,77.649l0,172.258c0,2.875 -2.334,5.205 -5.209,5.205Z" style="fill:#3b4249;fill-rule:nonzero;"/><path d="M460.988,414.904c4.343,-7.516 12.366,-12.146 21.047,-12.142c8.682,-0.004 16.708,4.626 21.051,12.142" style="fill:#c3b3a5;fill-rule:nonzero;"/><path d="M503.086,419.069c-1.487,0 -2.863,-0.79 -3.609,-2.08c-3.612,-6.215 -10.251,-10.047 -17.438,-10.062c-7.191,0.015 -13.83,3.843 -17.442,10.062c-1.15,1.993 -3.7,2.674 -5.689,1.52c-1.994,-1.15 -2.675,-3.699 -1.525,-5.689c5.103,-8.787 14.492,-14.2 24.652,-14.219c10.164,0.019 19.553,5.436 24.656,14.223c1.15,1.99 0.473,4.535 -1.517,5.685c-0.635,0.367 -1.354,0.56 -2.088,0.56" style="fill:#3b4249;fill-rule:nonzero;"/><path d="M567.43,414.904c4.343,-7.516 12.362,-12.146 21.044,-12.142c8.681,-0.004 16.708,4.626 21.051,12.142" style="fill:#c3b3a5;fill-rule:nonzero;"/><path d="M609.528,419.069c-1.486,0 -2.863,-0.79 -3.608,-2.08c-3.613,-6.219 -10.255,-10.051 -17.446,-10.062c-7.188,0.015 -13.83,3.847 -17.439,10.062c-1.15,1.989 -3.699,2.67 -5.689,1.52c-1.99,-1.15 -2.671,-3.699 -1.521,-5.689c5.103,-8.787 14.488,-14.2 24.649,-14.219c10.164,0.019 19.553,5.436 24.656,14.223c1.149,1.99 0.472,4.535 -1.517,5.685c-0.632,0.367 -1.355,0.56 -2.085,0.56m-75.424,76.759c-2.299,0 -4.164,-1.864 -4.164,-4.164c0,-2.3 1.865,-4.165 4.164,-4.165c4.805,0 10.581,-3.159 14.337,-5.716c-5.092,-8.152 -7.974,-20.245 -8.33,-21.8c-0.514,-2.243 0.889,-4.479 3.133,-4.989c2.243,-0.515 4.478,0.889 4.989,3.128c0.999,4.343 4.581,16.72 9.101,21.736c1.54,1.702 1.407,4.327 -0.291,5.867c-0.038,0.034 -0.076,0.068 -0.114,0.098c-0.488,0.409 -11.972,10.005 -22.825,10.005m-7.285,55.338c-0.114,0 -0.227,-0.008 -0.341,-0.015c-32.459,-2.64 -38.856,-26.744 -39.113,-27.773c-0.564,-2.232 0.791,-4.498 3.022,-5.061c2.232,-0.564 4.498,0.79 5.062,3.022c0.219,0.832 5.428,19.375 31.707,21.513c2.296,0.124 4.051,2.088 3.926,4.384c-0.125,2.247 -2.012,3.987 -4.263,3.93" style="fill:#3b4249;fill-rule:nonzero;"/><path d="M540.531,729.575c-1.029,0 -2.02,-0.378 -2.784,-1.067l-13.882,-12.491c-1.71,-1.539 -1.846,-4.172 -0.311,-5.882c1.54,-1.709 4.173,-1.846 5.883,-0.306l10.905,9.809l9.355,-9.616c1.604,-1.649 4.237,-1.687 5.89,-0.087c1.649,1.604 1.687,4.236 0.083,5.89l-12.15,12.49c-0.783,0.81 -1.861,1.264 -2.989,1.26" style="fill:#010202;fill-opacity:0.1;fill-rule:nonzero;"/><path d="M458.896,767.958c-0.862,0 -1.683,-0.355 -2.273,-0.983c-4.04,-4.286 -7.747,-8.878 -11.084,-13.732c-0.976,-1.422 -0.612,-3.366 0.81,-4.342c1.422,-0.976 3.366,-0.613 4.342,0.809c3.155,4.593 6.658,8.931 10.479,12.986c1.184,1.252 1.123,3.231 -0.129,4.411c-0.579,0.549 -1.347,0.851 -2.145,0.851m67.756,34.102c-0.121,0 -0.245,-0.008 -0.366,-0.023c-18.63,-2.194 -36.428,-8.95 -51.824,-19.67c-1.415,-0.988 -1.759,-2.932 -0.772,-4.347c0.988,-1.414 2.932,-1.759 4.347,-0.771c14.548,10.13 31.37,16.511 48.975,18.584c1.713,0.208 2.935,1.763 2.727,3.476c-0.189,1.563 -1.513,2.743 -3.087,2.751m22.553,0.348c-1.725,-0.023 -3.105,-1.438 -3.083,-3.163c0.019,-1.592 1.233,-2.913 2.818,-3.071c30.391,-2.592 58.406,-18.093 76.854,-42.53c1.067,-1.354 3.034,-1.588 4.388,-0.518c1.313,1.037 1.577,2.92 0.602,4.278c-19.519,25.852 -49.153,42.253 -81.307,44.992c-0.09,0.008 -0.181,0.012 -0.272,0.012m84.514,-51.642c-1.721,0.007 -3.121,-1.385 -3.128,-3.106c-0.004,-0.594 0.166,-1.176 0.484,-1.68c1.74,-2.768 3.366,-5.651 4.842,-8.564c0.779,-1.539 2.659,-2.16 4.202,-1.38c1.544,0.779 2.16,2.659 1.381,4.202c-1.562,3.083 -3.291,6.136 -5.129,9.064c-0.575,0.911 -1.578,1.464 -2.652,1.464m9.544,-19.065c-1.725,0 -3.121,-1.396 -3.121,-3.121c0,-0.386 0.072,-0.764 0.208,-1.124c1.509,-3.937 2.788,-7.958 3.828,-12.044c0.424,-1.672 2.126,-2.682 3.798,-2.258c1.672,0.424 2.682,2.126 2.258,3.798c-1.097,4.312 -2.458,8.598 -4.055,12.744c-0.465,1.207 -1.623,2.005 -2.916,2.005m-203.613,8.299c-1.199,0 -2.296,-0.685 -2.819,-1.767c-2.299,-4.77 -4.263,-9.695 -5.874,-14.741c-0.526,-1.645 0.382,-3.401 2.027,-3.926c1.646,-0.526 3.401,0.382 3.927,2.027c1.513,4.748 3.382,9.434 5.549,13.928c0.749,1.551 0.099,3.42 -1.452,4.169c-0.424,0.204 -0.889,0.31 -1.358,0.31" style="fill:#3b4249;fill-rule:nonzero;"/><path d="M548.683,460.078c0,0 8.057,10.119 13.72,19.273c3.442,5.564 0.866,12.899 -5.281,15.142c-6.532,2.383 -15.191,3.915 -23.018,0.008l20.132,-11.859l-5.553,-22.564Z" style="fill:#010202;fill-opacity:0.1;fill-rule:nonzero;"/><path d="M647.208,486.723c-0.004,13.872 -11.253,25.114 -25.125,25.11c-13.871,0.004 -25.121,-11.238 -25.125,-25.11c0.004,-13.871 11.254,-25.113 25.125,-25.109c13.872,-0.004 25.121,11.238 25.125,25.109m-163.187,0c-0.004,13.872 -11.254,25.114 -25.125,25.11c-13.871,0.004 -25.121,-11.238 -25.125,-25.11c0.004,-13.871 11.254,-25.113 25.125,-25.109c13.871,-0.004 25.121,11.238 25.125,25.109" style="fill:#d1c0b4;fill-rule:nonzero;"/><path d="M640.899,408.046c-1.018,-1.467 -1.903,-3.026 -2.641,-4.652c-0.242,-0.462 -0.469,-0.927 -0.684,-1.4c-1.506,0.321 -3.08,0.11 -4.445,-0.602c2.478,2.913 5.341,5.572 8.507,7.555c-0.265,-0.284 -0.51,-0.587 -0.737,-0.901" style="fill:#feb;fill-rule:nonzero;"/><path d="M436.404,978.093c-2.875,0 -5.205,-2.33 -5.205,-5.205l0,-129.06c0,-2.874 2.33,-5.205 5.205,-5.205c2.875,0 5.209,2.331 5.209,5.205l0,129.06c0,2.875 -2.334,5.205 -5.209,5.205" style="fill:#3b4249;fill-rule:nonzero;"/><path d="M355.344,974.11l81.06,0l0,-85.426l-81.064,0l0.004,85.426Z" style="fill:#c3b3a5;fill-rule:nonzero;"/><path d="M355.344,908.358l81.06,0l0,-19.678l-81.064,0l0.004,19.678Z" style="fill:#010202;fill-opacity:0.1;fill-rule:nonzero;"/><path d="M360.405,969.052l70.938,0l0,-75.314l-70.938,0l0,75.314Zm75.999,10.115l-81.06,0c-2.792,0.004 -5.058,-2.262 -5.061,-5.054l0,-0.003l0,-85.426c0,-2.795 2.265,-5.057 5.061,-5.057l81.06,0c2.795,0 5.061,2.262 5.061,5.057l0,85.429c0,2.796 -2.266,5.058 -5.061,5.058l0,-0.004Zm205.569,-1.074c-2.875,0 -5.209,-2.33 -5.209,-5.205l0,-129.06c0,-2.874 2.33,-5.205 5.209,-5.205c2.875,0 5.205,2.331 5.205,5.205l0,129.06c0,2.875 -2.33,5.205 -5.205,5.205" style="fill:#3b4249;fill-rule:nonzero;"/><rect x="641.969" y="888.684" width="81.064" height="85.425" style="fill:#c3b3a5;fill-rule:nonzero;"/><rect x="641.969" y="888.68" width="81.064" height="19.678" style="fill:#010202;fill-rule:nonzero;"/><path d="M647.03,969.052l70.942,0l0,-75.314l-70.942,0l0,75.314Zm76.003,10.115l-81.064,0c-2.792,0 -5.057,-2.266 -5.057,-5.057l0,-85.426c0,-2.795 2.262,-5.057 5.057,-5.057l81.064,0c2.795,0 5.061,2.262 5.061,5.057l0,85.429c0,2.796 -2.269,5.058 -5.061,5.058l0,-0.004Z" style="fill:#3b4249;fill-rule:nonzero;"/><path d="M570.907,296.24c-1.279,-0.015 -2.304,-1.063 -2.289,-2.341c0.015,-1.124 0.832,-2.077 1.944,-2.259c12.786,-1.929 21.07,-7.781 21.153,-7.838c1.037,-0.745 2.482,-0.51 3.231,0.526c0.745,1.037 0.511,2.482 -0.526,3.227c-0.371,0.265 -9.215,6.552 -23.165,8.662c-0.118,0.016 -0.231,0.023 -0.348,0.023m-84.62,0.586c-1.275,0.012 -2.319,-1.01 -2.33,-2.284c-0.008,-0.836 0.435,-1.608 1.157,-2.024c5.152,-3.019 30.459,-12.37 60.112,-2.943c1.218,0.386 1.891,1.687 1.501,2.905c-0.389,1.218 -1.687,1.891 -2.905,1.502c-27.742,-8.822 -51.884,-0.102 -56.37,2.527c-0.352,0.208 -0.757,0.317 -1.165,0.317m19.36,-25.499c-1.279,0 -2.315,-1.036 -2.315,-2.315c0,-0.794 0.408,-1.536 1.082,-1.959c3.306,-2.066 19.613,-8.64 39.03,-3.076c16.531,4.744 28.737,-4.308 28.858,-4.399c1.018,-0.768 2.463,-0.571 3.239,0.439c0.775,1.01 0.586,2.458 -0.424,3.234c0,0 -0.004,0 -0.004,0.004c-0.567,0.435 -14.11,10.569 -32.948,5.171c-17.589,-5.05 -32.539,0.824 -35.292,2.545c-0.367,0.231 -0.791,0.356 -1.226,0.356" style="fill:#75645a;fill-rule:nonzero;"/><path d="M1311.24,824.272c-0.064,-1.256 -0.151,-2.508 -0.261,-3.76c-0.022,-0.25 -0.06,-0.5 -0.087,-0.749c-0.045,-0.466 -0.109,-0.923 -0.162,-1.385c-0.14,-1.286 -0.303,-2.564 -0.492,-3.835c-0.076,-0.534 -0.17,-1.063 -0.257,-1.593c-0.121,-0.726 -0.223,-1.456 -0.356,-2.179c-0.087,-0.465 -0.2,-0.923 -0.291,-1.384c-0.689,-3.42 -1.543,-6.809 -2.553,-10.149c-0.159,-0.522 -0.314,-1.041 -0.477,-1.559c-0.378,-1.173 -0.779,-2.334 -1.195,-3.491c-0.163,-0.454 -0.314,-0.908 -0.485,-1.355c-0.491,-1.305 -1.006,-2.598 -1.547,-3.881l-0.344,-0.851c-1.347,-3.136 -2.841,-6.211 -4.479,-9.207c-0.215,-0.397 -0.45,-0.779 -0.669,-1.173c-0.594,-1.063 -1.203,-2.118 -1.835,-3.162c-0.321,-0.53 -0.662,-1.052 -0.991,-1.577c-0.552,-0.886 -1.12,-1.763 -1.702,-2.633c-0.39,-0.579 -0.791,-1.146 -1.188,-1.717c-1.948,-2.788 -4.025,-5.485 -6.223,-8.08c-0.559,-0.662 -1.134,-1.313 -1.709,-1.964c-0.541,-0.612 -1.086,-1.218 -1.638,-1.815l-0.08,-0.087c-0.151,-0.163 -0.295,-0.329 -0.45,-0.492c-0.378,-0.405 -0.783,-0.794 -1.173,-1.195c-0.601,-0.617 -1.191,-1.237 -1.804,-1.839c-0.529,-0.514 -1.07,-1.014 -1.608,-1.521c-0.68,-0.643 -1.358,-1.293 -2.054,-1.921c-0.253,-0.227 -0.518,-0.443 -0.771,-0.666c-1.998,-1.759 -4.055,-3.446 -6.174,-5.057c-0.143,-0.114 -0.28,-0.227 -0.423,-0.333c-0.969,-0.723 -1.952,-1.43 -2.943,-2.119c-0.356,-0.246 -0.704,-0.507 -1.063,-0.752c-0.972,-0.659 -1.956,-1.302 -2.947,-1.93c-0.39,-0.253 -0.775,-0.506 -1.173,-0.752c-1.002,-0.621 -2.02,-1.226 -3.041,-1.816l-1.165,-0.666c-2.516,-1.411 -5.088,-2.723 -7.705,-3.934c-0.28,-0.132 -0.568,-0.257 -0.848,-0.386c-1.248,-0.56 -2.5,-1.108 -3.771,-1.626l-0.371,-0.144c-12.99,-5.247 -26.869,-7.944 -40.876,-7.94l-17.612,0c-8.515,0 -15.419,-6.835 -15.419,-15.301l0,-48.449c61.318,-9.828 108.542,-62.983 108.542,-126.586l0,-48.937c3.102,-26.093 -2.648,80.55 25.964,104.184c17.288,-41.508 37.336,-65.074 33.088,-120.291c-2.909,-37.748 -1.596,-64.284 -24.841,-108.156c-24.875,-46.951 -58.345,-75.722 -117.639,-93.138c-33.742,-9.911 -94.932,-5.466 -132.207,13.875c-30.239,15.691 -82.233,51.785 -110.645,122.148c-25.276,62.578 -45.457,139.386 2.47,194.436c18.683,-21.936 35.104,-41.89 35.607,-72.893l0,8.776c0,63.834 47.557,117.151 109.196,126.706l0,48.329c0,8.465 -6.903,15.301 -15.395,15.301l-15.642,0c-22.613,-0.027 -44.67,7.036 -63.058,20.2c-4.884,3.272 -9.578,7.043 -13.728,11.382c-1.059,1.108 -2.076,2.254 -3.075,3.419c-13.414,14.488 -22.632,32.354 -26.668,51.684c-1.097,3.484 -2.062,7.013 -2.887,10.573l0,73.941l0.598,0.007l0,81.178l0.329,0l0,1.161l77.622,0l0,-1.161l274.971,3.96l0,-3.964l0.007,0l0,-143.479c0,-1.831 -0.057,-3.647 -0.147,-5.459l-0.05,-0.771" style="fill:#010202;fill-opacity:0.1;fill-rule:nonzero;"/><path d="M737.876,804.397l0,-2.065c0,-1.869 -0.052,-3.726 -0.143,-5.572c-0.031,-0.617 -0.087,-1.222 -0.125,-1.831c-0.076,-1.229 -0.17,-2.455 -0.284,-3.681c-0.072,-0.718 -0.166,-1.437 -0.249,-2.156c-0.129,-1.097 -0.258,-2.194 -0.42,-3.276c-0.114,-0.764 -0.242,-1.513 -0.367,-2.269c-0.761,-4.589 -1.812,-9.124 -3.151,-13.58c-0.227,-0.749 -0.447,-1.502 -0.685,-2.247c-0.314,-0.965 -0.643,-1.926 -0.983,-2.879c-0.254,-0.726 -0.5,-1.456 -0.768,-2.171c-0.367,-0.984 -0.764,-1.952 -1.158,-2.92c-0.272,-0.674 -0.529,-1.351 -0.817,-2.02c-0.511,-1.177 -1.04,-2.346 -1.592,-3.503c-0.458,-0.976 -0.935,-1.948 -1.423,-2.909c-0.492,-0.972 -0.98,-1.952 -1.498,-2.909c-0.416,-0.764 -0.855,-1.513 -1.29,-2.27c-0.431,-0.756 -0.855,-1.513 -1.301,-2.254c-0.477,-0.795 -0.976,-1.574 -1.475,-2.353c-0.431,-0.681 -0.859,-1.362 -1.305,-2.035c-0.53,-0.794 -1.078,-1.581 -1.627,-2.364c-2.012,-2.871 -4.153,-5.648 -6.419,-8.322c-0.428,-0.503 -0.866,-0.999 -1.301,-1.498c-0.719,-0.814 -1.434,-1.627 -2.172,-2.421c-0.385,-0.413 -0.779,-0.817 -1.172,-1.222c-0.814,-0.855 -1.627,-1.706 -2.47,-2.534c-0.243,-0.239 -0.492,-0.466 -0.738,-0.7c-4.486,-4.339 -9.313,-8.307 -14.439,-11.867l-0.196,-0.14c-1.218,-0.836 -2.452,-1.649 -3.696,-2.44l-0.571,-0.363c-1.218,-0.764 -2.452,-1.501 -3.7,-2.216l-0.658,-0.379c-1.26,-0.715 -2.535,-1.403 -3.821,-2.073l-0.586,-0.298c-1.339,-0.685 -2.693,-1.343 -4.059,-1.975l-0.329,-0.151c-14.836,-6.809 -30.969,-10.331 -47.292,-10.327l-18.369,0c-8.863,0.015 -16.061,-7.153 -16.076,-16.016c0,-0.008 0,-0.015 0,-0.023l0,-50.768c63.947,-10.3 113.198,-66.005 113.198,-132.657l0,-54.445c6.242,-23.857 16.924,-107.728 -13.905,-147.367c-11.961,-15.385 -60.471,-52.576 -130.486,-54.055c-62.059,-1.317 -116.175,39.518 -130.421,54.055c-43.059,43.944 -27.001,153.825 -27.001,153.825l1.241,-1.37l0,49.357c0,66.894 49.599,122.773 113.883,132.778l0,50.647c-0.004,8.859 -7.187,16.043 -16.046,16.039c-0.004,0 -0.008,0 -0.012,0l-16.303,0c-16.852,0 -32.865,3.718 -47.296,10.327l-0.329,0.151c-1.369,0.632 -2.724,1.29 -4.059,1.975c-0.197,0.102 -0.39,0.196 -0.582,0.302c-1.29,0.666 -2.569,1.354 -3.829,2.069l-0.65,0.379c-1.248,0.715 -2.485,1.452 -3.707,2.216l-0.56,0.363c-1.248,0.795 -2.489,1.601 -3.707,2.44l-0.186,0.136c-5.129,3.56 -9.959,7.532 -14.446,11.871l-0.737,0.7c-0.84,0.832 -1.661,1.683 -2.474,2.534c-0.39,0.408 -0.783,0.809 -1.165,1.222c-0.742,0.794 -1.461,1.607 -2.175,2.421c-1.593,1.808 -3.125,3.669 -4.597,5.575c-1.664,2.145 -3.249,4.351 -4.751,6.609c-0.446,0.673 -0.873,1.354 -1.308,2.035c-0.496,0.779 -0.995,1.558 -1.476,2.353c-0.442,0.741 -0.87,1.498 -1.297,2.251c-0.431,0.756 -0.874,1.509 -1.29,2.273c-0.518,0.957 -1.006,1.937 -1.498,2.913c-1.071,2.107 -2.077,4.244 -3.015,6.411c-0.284,0.666 -0.545,1.343 -0.817,2.017c-0.393,0.968 -0.791,1.936 -1.157,2.92c-0.273,0.719 -0.515,1.449 -0.772,2.175c-0.337,0.953 -0.67,1.906 -0.98,2.875c-0.238,0.749 -0.465,1.498 -0.681,2.251c-1.044,3.446 -1.91,6.945 -2.599,10.478c-0.2,1.029 -0.382,2.061 -0.556,3.094c-0.124,0.757 -0.253,1.513 -0.367,2.27c-0.155,1.089 -0.295,2.182 -0.419,3.279c-0.084,0.719 -0.178,1.438 -0.25,2.156c-0.114,1.226 -0.208,2.452 -0.28,3.681c-0.042,0.605 -0.098,1.214 -0.129,1.831c-0.09,1.846 -0.143,3.703 -0.143,5.572l0,173.979l368.861,0l0,-171.914Z" style="fill:#010202;fill-opacity:0.1;fill-rule:nonzero;"/><path d="M1040.96,783.657l0,189.461l-405.721,0l0,-189.461c0,-69.164 56.56,-125.784 125.701,-125.784l17.937,0c9.756,-0.004 17.666,-7.913 17.662,-17.669c0,-0.004 0,-0.004 0,-0.008l0,-63.209l80.829,0l0,63.209c-0.003,9.76 7.902,17.673 17.662,17.677l20.226,0c69.141,0 125.7,56.62 125.7,125.784l0.004,0Z" style="fill:#fbe3d5;fill-rule:nonzero;"/><path d="M993.657,192.525c-13.171,-16.928 -25.291,-21.387 -37.645,-28.181c-34.457,-18.956 -52.762,-57.755 -88.323,-61.56c-53.711,-5.746 -64.874,34.369 -136.497,67.461c-44.719,20.661 -47.117,23.513 -62.804,39.51c-47.421,48.355 0.177,176.718 0.177,176.718l55.266,-60.992l246.131,12.589l28.072,48.403c4.18,0.946 35.595,-142.586 -4.373,-193.948" style="fill:#c3996b;fill-rule:nonzero;"/><path d="M859.181,105.666c-24.115,0 -38.667,11.076 -59.51,26.941c-15.785,12.014 -35.425,26.971 -64.798,40.539c-43.153,19.935 -45.816,22.651 -60.577,37.706l-0.741,0.757c-38.334,39.083 -10.399,136.201 -1.328,163.978l49.77,-54.922c0.957,-1.059 2.36,-1.653 3.771,-1.558l245.794,12.57c1.608,0.083 3.068,0.972 3.878,2.364l23.048,39.738c3.435,-13.142 8.727,-40.468 10.864,-71.88c2.413,-35.505 1.225,-83.042 -18.119,-107.902c-10.467,-13.44 -20.087,-18.46 -30.27,-23.779c-1.952,-1.021 -3.907,-2.042 -5.871,-3.12c-14.563,-8.012 -26.108,-19.198 -37.267,-30.02c-15.282,-14.813 -29.717,-28.806 -49.145,-30.886c-3.155,-0.344 -6.321,-0.522 -9.499,-0.526m-188.849,283.837c-1.986,-0.007 -3.764,-1.24 -4.464,-3.102c-1.982,-5.348 -48.018,-131.571 0.886,-181.434l0.737,-0.753c15.434,-15.74 18.645,-19.016 63.384,-39.685c28.427,-13.134 46.807,-27.126 63.024,-39.473c23.434,-17.835 41.95,-31.922 75.794,-28.302c22.689,2.425 38.27,17.525 54.763,33.515c10.713,10.38 21.789,21.119 35.232,28.514c1.899,1.048 3.794,2.035 5.69,3.023c10.637,5.553 21.637,11.295 33.367,26.365c21.267,27.323 22.647,77.565 20.064,114.904c-2.675,38.675 -10.857,77.459 -14.859,83.739c-1.99,3.117 -4.819,2.757 -5.644,2.572c-1.29,-0.291 -2.402,-1.108 -3.068,-2.251l-26.743,-46.107l-240.957,-12.321l-53.677,59.23c-0.908,1.006 -2.194,1.566 -3.529,1.566" style="fill:#3b4249;fill-rule:nonzero;"/><path d="M764.053,205.042c-2.603,-0.038 -4.675,-2.179 -4.638,-4.781c0.031,-1.933 1.237,-3.654 3.049,-4.335c0.492,-0.186 42.14,-15.926 76.249,-64.496c1.467,-2.103 4.365,-2.617 6.468,-1.15c0.012,0.008 0.027,0.019 0.038,0.027c2.103,1.501 2.603,4.433 1.112,6.551c-35.928,51.158 -78.881,67.246 -80.693,67.904c-0.522,0.189 -1.059,0.28 -1.585,0.28m42.533,0c-1.43,0.012 -2.792,-0.598 -3.734,-1.672c-1.584,-1.816 -1.399,-4.573 0.417,-6.158c0.09,-0.08 0.181,-0.151 0.276,-0.223c0.242,-0.189 24.209,-18.645 35.33,-29.823c1.865,-1.827 4.823,-1.918 6.794,-0.205c1.941,1.714 2.035,4.585 0.22,6.416c-11.56,11.62 -35.263,29.876 -36.269,30.648c-0.893,0.681 -1.967,1.021 -3.034,1.021m48.548,-39.314c-1.4,0 -2.784,-0.552 -3.757,-1.623c-1.638,-1.774 -1.524,-4.535 0.246,-6.173c0.102,-0.095 0.208,-0.186 0.322,-0.269c0.166,-0.136 10.24,-8.394 15.925,-25.03c0.825,-2.41 3.59,-3.745 6.174,-2.973c2.587,0.768 4.013,3.344 3.188,5.753c-6.616,19.356 -18.429,28.836 -18.928,29.233c-0.905,0.708 -2.02,1.09 -3.17,1.082m-12.219,39.31c-1.815,0.008 -3.476,-1.01 -4.301,-2.625c-1.168,-2.326 -0.23,-5.16 2.096,-6.329c0.019,-0.007 0.038,-0.018 0.053,-0.026c0.303,-0.151 30.44,-15.32 39.439,-42.193c0.855,-2.5 3.567,-3.847 6.075,-3.014c2.489,0.79 3.862,3.449 3.071,5.938c-0.003,0.016 -0.011,0.034 -0.015,0.05c-10.274,30.678 -42.888,47.019 -44.269,47.7c-0.666,0.329 -1.4,0.499 -2.149,0.499m-154.467,21.172c-1.128,0 -2.259,-0.378 -3.167,-1.146c-1.853,-1.521 -2.122,-4.259 -0.601,-6.113c0.068,-0.083 0.144,-0.166 0.219,-0.246c4.638,-4.948 9.888,-9.29 15.623,-12.914c2.19,-1.377 5.145,-0.81 6.597,1.263c1.453,2.073 0.855,4.869 -1.331,6.242c-5.062,3.2 -9.696,7.032 -13.788,11.405c-0.927,0.968 -2.213,1.513 -3.552,1.505m-24.452,54.43c-0.223,0 -0.446,-0.015 -0.666,-0.053c-2.466,-0.386 -4.172,-2.837 -3.813,-5.47c0.129,-0.908 3.216,-22.567 15.846,-43.652c1.343,-2.251 4.142,-2.906 6.242,-1.472c2.103,1.438 2.719,4.422 1.376,6.665c-11.544,19.277 -14.487,39.662 -14.518,39.863c-0.333,2.398 -2.262,4.123 -4.463,4.123m296.657,-81.65c-1.173,0 -2.353,-0.454 -3.253,-1.362c-4.192,-4.267 -8.913,-7.978 -14.053,-11.038c-2.213,-1.328 -2.958,-4.18 -1.68,-6.423c1.23,-2.202 4.01,-2.989 6.211,-1.759c0.031,0.019 0.061,0.034 0.095,0.053c5.825,3.465 11.178,7.664 15.929,12.498c1.808,1.827 1.82,4.804 0.027,6.642c-0.859,0.889 -2.043,1.389 -3.276,1.389m29.929,42.336c-2.323,0 -4.396,-1.581 -4.857,-3.858c-0.038,-0.182 -2.8,-12.794 -16.482,-30.89c-1.554,-2.054 -1.153,-4.978 0.901,-6.533c0.06,-0.045 0.124,-0.091 0.185,-0.136c2.217,-1.555 5.266,-1.093 6.926,1.048c15.161,20.048 18.082,34.108 18.199,34.699c0.514,2.587 -1.248,5.087 -3.934,5.583c-0.31,0.057 -0.624,0.087 -0.938,0.087" style="fill:#e4c09d;fill-rule:nonzero;"/><path d="M836.598,607.226c-30.466,0 -40.88,-16.67 -40.88,-16.67l0,-13.569l81.745,0l0,13.569c0,0 -10.402,16.67 -40.865,16.67" style="fill:#d5b6a5;fill-rule:nonzero;"/><path d="M915.264,658.63l-0.813,0c0.053,1.157 0.09,2.318 0.09,3.491c0,42.132 -34.214,76.29 -76.422,76.29c-42.208,0 -76.426,-34.158 -76.426,-76.29c0,-1.173 0.037,-2.334 0.09,-3.491l-0.836,0c-69.14,0 -125.7,56.483 -125.7,125.484l0,189.001l405.717,0l0,-189.005c0,-68.997 -56.559,-125.484 -125.7,-125.484" style="fill:#edd3c5;fill-rule:nonzero;"/><path d="M640.653,967.702l394.909,0l0,-184.03c0,-66.308 -53.911,-120.253 -120.173,-120.253l-20.238,0c-12.937,-0.016 -23.423,-10.498 -23.438,-23.434l0,-57.581l-69.507,0l0,57.581c-0.012,12.933 -10.486,23.415 -23.419,23.434l-17.968,0c-66.259,0 -120.17,53.945 -120.17,120.253l0.004,184.03Zm400.633,11.465l-406.364,0c-3.166,0 -5.731,-2.565 -5.731,-5.731l0,-0.004l0,-189.757c0,-72.628 59.048,-131.714 131.628,-131.714l17.968,0c6.604,-0.012 11.957,-5.368 11.961,-11.973l0,-63.315c0,-3.166 2.568,-5.731 5.731,-5.731l80.961,0c3.163,0 5.731,2.565 5.731,5.731l0,63.315c0.012,6.613 5.372,11.965 11.984,11.969l20.238,0c72.575,0 131.627,59.086 131.627,131.718l0,189.761c0,3.166 -2.568,5.735 -5.731,5.735l-0.003,-0.004Z" style="fill:#3b4249;fill-rule:nonzero;"/><path d="M1040.96,783.078l0,190.044l-405.721,0l0,-190.044c0,-62.396 45.76,-114.594 105.27,-124.448c0.549,53.646 44.016,96.981 97.602,96.981c53.56,0 97.05,-43.335 97.579,-96.981c59.507,9.854 105.266,62.052 105.27,124.448" style="fill:#84bde1;fill-rule:nonzero;"/><path d="M998.575,340.638l0,97.886c0,81.143 -66.482,147.534 -147.746,147.534l-34.533,0c-81.26,0 -147.742,-66.387 -147.742,-147.534l0,-101.06c0,-13.818 6.987,-38.587 17.427,-59.933c10.437,-21.346 24.346,-39.227 38.164,-39.227c0,0 56.703,22.121 115.903,22.121c55.387,0 113.535,-22.121 113.535,-22.121c27.656,0 44.992,74.712 44.992,102.334" style="fill:#fbe3d5;fill-rule:nonzero;"/><path d="M998.575,319.95l-37.827,-48.411c-7.43,-9.502 -19.542,-14.246 -31.571,-12.37l-50.942,13.977c-4.131,1.162 -8.337,2.036 -12.589,2.614c-20.404,2.641 -41.058,2.697 -61.477,0.174c-5.315,-0.658 -10.573,-1.725 -15.725,-3.196l-47.87,-13.659c-11.371,-1.839 -22.897,2.246 -30.463,10.795l-41.557,46.955c0,-13.621 11.606,-28.767 22.046,-49.807c10.436,-21.043 19.727,-30.008 33.545,-30.008c0,0 56.703,21.803 115.903,21.803c55.387,0 117.987,-23.536 117.987,-23.536c27.66,0 40.54,57.449 40.54,84.673m-164.632,235.755c140.082,0 164.632,-117.825 164.632,-117.825c0,81.496 -66.482,148.17 -147.746,148.17l-34.533,0c-81.257,0 -147.742,-66.674 -147.742,-148.17c0,0 24.872,117.825 165.389,117.825" style="fill:#d5b6a5;fill-rule:nonzero;"/><path d="M726.002,243.728c-9.524,0.836 -21.459,14.178 -32.153,36.05c-9.782,20.006 -16.882,44.208 -16.882,57.546l0,101.253c0,78.359 63.845,142.106 142.325,142.106l34.601,0c78.476,0 142.321,-63.747 142.321,-142.106l0,-98.075c0,-30.599 -18.073,-94.882 -38.443,-96.778c-8.618,3.174 -62.336,22.126 -114.678,22.126c-55.814,0 -108.515,-18.903 -117.091,-22.122m127.895,348.378l-34.605,0c-84.79,0 -153.768,-68.875 -153.768,-153.533l0,-101.249c0,-15.108 7.418,-40.834 18.044,-62.559c18.081,-36.983 34.945,-42.506 43.38,-42.506c0.711,0 1.419,0.132 2.081,0.39c0.56,0.219 56.567,21.773 114.064,21.773c53.753,0 111.152,-21.569 111.723,-21.789c0.651,-0.249 1.343,-0.378 2.039,-0.378c14.779,0 28.03,15.464 38.331,44.712c8.189,23.256 12.471,49.565 12.471,63.535l0,98.071c0,84.658 -68.978,153.533 -153.76,153.533" style="fill:#3b4249;fill-rule:nonzero;"/><path d="M742.404,658.63c-8.711,1.456 -17.234,3.881 -25.408,7.232c0,62.809 52.867,113.728 118.082,113.728c65.214,0 118.081,-50.919 118.081,-113.732c0,-0.287 -0.019,-0.567 -0.022,-0.858c-7.494,-2.905 -15.264,-5.039 -23.188,-6.37c-0.504,51.899 -42.295,93.819 -93.763,93.819c-51.483,0 -93.252,-41.92 -93.782,-93.819" style="fill:#b5def2;fill-rule:nonzero;"/><path d="M640.653,967.77l394.909,0l0,-182.933c0,-28.386 -10.296,-55.947 -28.987,-77.614c-17.067,-19.784 -40.059,-33.496 -65.286,-39.068c-4.047,53.041 -48.971,95.116 -103.174,95.116c-54.188,0 -99.119,-42.079 -103.193,-95.116c-25.227,5.572 -48.218,19.284 -65.29,39.068c-18.686,21.667 -28.983,49.228 -28.983,77.61l0,182.933l0.004,0.004Zm400.633,11.397l-406.364,0c-3.155,0.011 -5.72,-2.538 -5.731,-5.693c0,-0.004 0,-0.004 0,-0.008l0,-188.633c0,-31.102 11.276,-61.303 31.748,-85.032c20.246,-23.468 48.117,-39.132 78.485,-44.118c1.649,-0.272 3.336,0.189 4.618,1.26c1.279,1.07 2.028,2.644 2.043,4.304c0.518,49.97 41.799,90.623 92.034,90.623c50.235,0 91.512,-40.653 92.004,-90.619c0.018,-1.664 0.764,-3.238 2.042,-4.308c1.283,-1.075 2.973,-1.536 4.623,-1.26c30.364,4.986 58.239,20.654 78.48,44.118c20.476,23.729 31.752,53.93 31.752,85.036l0,188.629c-0.007,3.155 -2.568,5.709 -5.723,5.701c-0.004,0 -0.004,0 -0.011,0Z" style="fill:#3b4249;fill-rule:nonzero;"/><path d="M750.303,356.238c4.531,-7.233 13.001,-12.093 22.708,-12.093c9.702,0 18.176,4.864 22.707,12.093" style="fill:#fbe4d6;fill-rule:nonzero;"/><path d="M797.795,362.287c-1.377,0 -2.712,-0.704 -3.45,-1.967c-6.468,-10.948 -20.582,-14.579 -31.529,-8.114c-3.344,1.974 -6.136,4.766 -8.114,8.114c-1.116,1.883 -3.537,2.523 -5.439,1.437c-1.884,-1.067 -2.546,-3.457 -1.48,-5.341c0.008,-0.015 0.019,-0.03 0.027,-0.046c5.504,-9.407 15.736,-15.252 26.714,-15.252c10.973,0 21.209,5.845 26.713,15.256c1.09,1.869 0.458,4.271 -1.411,5.36c-0.015,0.008 -0.026,0.015 -0.041,0.023c-0.606,0.348 -1.29,0.53 -1.99,0.53" style="fill:#3b4249;fill-rule:nonzero;"/><path d="M868.385,356.238c4.531,-7.233 13.005,-12.093 22.707,-12.093c9.703,0 18.176,4.864 22.708,12.093" style="fill:#fbe4d6;fill-rule:nonzero;"/><path d="M912.847,362.287c-1.373,0 -2.712,-0.704 -3.446,-1.967c-6.469,-10.948 -20.582,-14.579 -31.529,-8.114c-3.344,1.974 -6.136,4.766 -8.114,8.114c-1.116,1.887 -3.541,2.526 -5.444,1.437c-1.883,-1.067 -2.542,-3.461 -1.475,-5.341c0.008,-0.015 0.015,-0.03 0.027,-0.046c5.5,-9.407 15.736,-15.252 26.709,-15.252c10.978,0 21.214,5.845 26.714,15.256c1.089,1.869 0.458,4.271 -1.411,5.36c-0.015,0.008 -0.026,0.015 -0.041,0.023c-0.606,0.348 -1.29,0.53 -1.99,0.53m-81.98,84.668c-2.689,0 -4.872,-2.065 -4.872,-4.614c0,-2.542 2.183,-4.612 4.872,-4.612c5.622,0 12.381,-3.502 16.781,-6.332c-5.966,-9.033 -9.332,-22.432 -9.752,-24.156c-0.602,-2.482 1.04,-4.956 3.661,-5.523c2.622,-0.568 5.239,0.98 5.841,3.461c1.169,4.815 5.36,18.524 10.652,24.085c0.881,0.926 1.324,2.156 1.241,3.4c-0.091,1.249 -0.711,2.402 -1.721,3.208c-0.568,0.454 -14,11.083 -26.703,11.083m-6.453,60.479c-0.125,0 -0.25,0 -0.378,-0.015c-35.951,-2.905 -43.033,-29.449 -43.316,-30.576c-0.613,-2.451 0.877,-4.937 3.329,-5.549c0.007,-0.004 0.015,-0.004 0.026,-0.008c2.455,-0.617 4.948,0.862 5.587,3.31c0.246,0.915 6.015,21.335 35.123,23.687c2.534,0.205 4.426,2.421 4.221,4.941c-0.204,2.383 -2.197,4.214 -4.592,4.21" style="fill:#3b4249;fill-rule:nonzero;"/><path d="M835.993,703.988c-1.108,-0.003 -2.168,-0.454 -2.943,-1.24l-14.681,-14.515c-1.808,-1.789 -1.955,-4.845 -0.325,-6.831c1.627,-1.986 4.411,-2.149 6.219,-0.36l11.53,11.398l9.888,-11.174c1.471,-1.744 4.077,-1.968 5.821,-0.496c0.144,0.121 0.284,0.253 0.409,0.397c1.744,1.933 1.781,4.865 0.087,6.843l-12.843,14.514c-0.794,0.92 -1.944,1.453 -3.162,1.464" style="fill:#010202;fill-opacity:0.1;fill-rule:nonzero;"/><path d="M749.996,746.325c-0.919,0 -1.796,-0.386 -2.421,-1.059c-4.316,-4.634 -8.269,-9.59 -11.828,-14.829c-1.044,-1.536 -0.662,-3.627 0.862,-4.69c1.502,-1.041 3.564,-0.67 4.608,0.832c0.007,0.015 0.019,0.026 0.026,0.041c3.363,4.952 7.1,9.639 11.178,14.019c1.26,1.362 1.199,3.48 -0.14,4.767c-0.613,0.59 -1.434,0.919 -2.285,0.919m72.663,36.287c-0.129,0 -0.261,-0.007 -0.39,-0.022c-19.923,-2.357 -38.954,-9.605 -55.398,-21.097c-1.517,-1.059 -1.887,-3.147 -0.832,-4.664c1.059,-1.513 3.14,-1.891 4.653,-0.832c15.539,10.86 33.526,17.707 52.353,19.935c1.842,0.17 3.196,1.801 3.026,3.643c-0.163,1.751 -1.653,3.079 -3.412,3.037m24.936,0c-1.774,0.008 -3.257,-1.342 -3.42,-3.109c-0.155,-1.876 1.241,-3.522 3.117,-3.677c0.004,0 0.008,0 0.015,0c33.424,-2.818 64.239,-19.689 84.533,-46.293c1.154,-1.502 3.298,-1.797 4.815,-0.666c1.513,1.131 1.816,3.261 0.674,4.759c-21.471,28.144 -54.071,45.991 -89.439,48.975c-0.099,0.008 -0.197,0.011 -0.295,0.011m90.763,-57.455c-0.628,0 -1.245,-0.163 -1.786,-0.481c-1.574,-0.919 -2.054,-2.852 -1.063,-4.32c1.873,-2.78 3.632,-5.674 5.22,-8.598c0.844,-1.547 2.868,-2.164 4.528,-1.381c1.657,0.783 2.323,2.667 1.483,4.214c-1.698,3.117 -3.544,6.155 -5.527,9.098c-0.65,0.934 -1.721,1.483 -2.855,1.468m12.46,-18.142c-0.447,0 -0.893,-0.076 -1.332,-0.239c-1.914,-0.7 -2.871,-2.754 -2.133,-4.577c1.793,-4.463 3.314,-9.029 4.55,-13.678c0.507,-1.899 2.527,-3.049 4.513,-2.561c1.986,0.48 3.189,2.409 2.686,4.308c-1.309,4.918 -2.92,9.752 -4.819,14.473c-0.586,1.388 -1.956,2.289 -3.465,2.274m-224.872,6.048c-1.222,-0.004 -2.334,-0.711 -2.852,-1.816c-2.331,-4.913 -4.317,-9.982 -5.947,-15.168c-0.533,-1.68 0.382,-3.477 2.054,-4.033c1.661,-0.529 3.435,0.39 3.964,2.051c0.004,0.011 0.008,0.018 0.008,0.03c1.54,4.898 3.42,9.687 5.621,14.329c0.757,1.596 0.098,3.518 -1.475,4.286c-0.428,0.211 -0.897,0.321 -1.373,0.321" style="fill:#3b4249;fill-rule:nonzero;"/><path d="M848.325,407.645c0,0 8.991,10.804 15.312,20.582c3.84,5.939 0.969,13.777 -5.893,16.171c-7.293,2.546 -16.962,4.18 -25.693,0.004l22.47,-12.661l-6.196,-24.096Z" style="fill:#010202;fill-opacity:0.1;fill-rule:nonzero;"/><path d="M959.216,439.398c0,15.864 -12.881,28.726 -28.764,28.726c-15.888,0 -28.764,-12.862 -28.764,-28.726c0,-15.865 12.876,-28.726 28.764,-28.726c15.887,0 28.764,12.861 28.764,28.726m-181.666,0c0,15.864 -12.877,28.726 -28.764,28.726c-15.888,0 -28.76,-12.862 -28.76,-28.726c0,-15.865 12.876,-28.726 28.76,-28.726c15.887,0 28.764,12.861 28.764,28.726" style="fill:#f5d0c0;fill-rule:nonzero;"/><path d="M946.316,349.111c-1.097,-1.778 -2.042,-3.646 -2.822,-5.587c-0.257,-0.552 -0.503,-1.112 -0.73,-1.679c-1.588,0.355 -3.23,0.17 -4.743,-0.727c2.648,3.499 5.704,6.692 9.082,9.075c-0.283,-0.344 -0.545,-0.707 -0.787,-1.082" style="fill:#feb;fill-rule:nonzero;"/><path d="M723.052,827.971l0,142.125" style="fill:#85bee1;fill-rule:nonzero;"/><path d="M723.052,976.141c-3.344,0 -6.052,-2.572 -6.052,-5.75l0,-142.715c0,-3.177 2.708,-5.75 6.052,-5.75c3.344,0 6.052,2.573 6.052,5.75l0,142.711c0,3.178 -2.708,5.758 -6.052,5.758" style="fill:#3b4249;fill-rule:nonzero;"/><rect x="635.247" y="876.352" width="87.805" height="93.744" style="fill:#fbe3d5;fill-rule:nonzero;"/><rect x="635.247" y="876.352" width="87.805" height="21.168" style="fill:#010202;fill-opacity:0.1;fill-rule:nonzero;"/><path d="M640.286,964.936l77.735,0l0,-83.424l-77.735,0l0,83.424Zm83.277,11.209l-88.827,0c-3.075,-0.019 -5.556,-2.527 -5.545,-5.603l0,-94.632c0,-3.098 2.485,-5.602 5.545,-5.602l88.827,0c3.064,0 5.545,2.504 5.545,5.598l0,94.636c0,3.091 -2.485,5.599 -5.545,5.599l0,0.004Z" style="fill:#3b4249;fill-rule:nonzero;"/><path d="M950.133,827.971l0,142.125" style="fill:#85bee1;fill-rule:nonzero;"/><path d="M950.133,976.141c-3.344,0 -6.056,-2.572 -6.056,-5.75l0,-142.715c0,-3.177 2.712,-5.75 6.052,-5.75c3.348,0 6.057,2.573 6.057,5.75l0,142.711c0,3.178 -2.709,5.758 -6.053,5.758" style="fill:#3b4249;fill-rule:nonzero;"/><rect x="950.133" y="876.352" width="87.801" height="93.744" style="fill:#fbe3d5;fill-rule:nonzero;"/><rect x="950.133" y="876.352" width="87.801" height="21.168" style="fill:#010202;fill-opacity:0.1;fill-rule:nonzero;"/><path d="M955.168,964.936l77.735,0l0,-83.424l-77.735,0l0,83.424Zm83.277,11.209l-88.819,0c-3.064,0 -5.545,-2.512 -5.545,-5.603l0,-94.632c0,-3.098 2.481,-5.602 5.545,-5.602l88.823,0c3.064,0 5.545,2.504 5.545,5.598l0,94.636c0,3.091 -2.481,5.599 -5.545,5.599l-0.004,0.004Zm470.519,-0.004l-67.045,0c-2.383,0 -4.324,-2.028 -4.324,-4.536c0,-2.504 1.937,-4.535 4.324,-4.535l67.045,0c2.391,0 4.323,2.031 4.323,4.539c0.001,2.504 -1.932,4.536 -4.323,4.532m-1320.09,3.026l-67.045,0c-2.387,0 -4.324,-2.031 -4.324,-4.539c0,-2.501 1.937,-4.532 4.324,-4.532l67.045,0c2.387,0 4.324,2.031 4.324,4.536c0,2.504 -1.937,4.535 -4.324,4.535m1229.32,-3.026l-121.664,0c-2.356,0 -4.263,-2.028 -4.263,-4.536c0,-2.504 1.907,-4.535 4.263,-4.535l121.664,0c2.357,0 4.264,2.031 4.264,4.539c0,2.504 -1.907,4.536 -4.264,4.532m-181.639,0l-164.102,0c-2.342,0 -4.237,-2.028 -4.237,-4.536c0,-2.504 1.895,-4.535 4.237,-4.535l164.102,0c2.345,0 4.237,2.031 4.237,4.539c0,2.504 -1.892,4.536 -4.237,4.532m-311.939,0l-67.045,0c-2.387,0 -4.324,-2.028 -4.324,-4.536c0,-2.504 1.937,-4.535 4.324,-4.535l67.045,0c2.387,0 4.324,2.031 4.324,4.539c0,2.504 -1.937,4.536 -4.324,4.532m-96.831,0l-121.664,0c-2.352,0 -4.263,-2.028 -4.263,-4.536c0,-2.504 1.911,-4.535 4.263,-4.535l121.668,0c2.353,0 4.263,2.031 4.263,4.539c0,2.504 -1.91,4.536 -4.263,4.536m-408.754,3.022l-167.057,0c-2.361,0 -4.275,-2.031 -4.275,-4.535c0,-2.505 1.914,-4.54 4.275,-4.54l167.061,0c2.36,0 4.274,2.035 4.274,4.54c0,2.504 -1.914,4.535 -4.278,4.535" style="fill:#3b4249;fill-rule:nonzero;"/></g></svg>