<?xml version="1.0" encoding="UTF-8" standalone="no"?><!DOCTYPE svg PUBLIC "-//W3C//DTD SVG 1.1//EN" "http://www.w3.org/Graphics/SVG/1.1/DTD/svg11.dtd"><svg width="100%" height="100%" viewBox="0 0 2967 2167" version="1.1" xmlns="http://www.w3.org/2000/svg" xmlns:xlink="http://www.w3.org/1999/xlink" xml:space="preserve" xmlns:serif="http://www.serif.com/" style="fill-rule:evenodd;clip-rule:evenodd;stroke-linecap:round;stroke-linejoin:round;"><g id="monthly-checkins-78d34cfb06aaf88539d1df760e91b317c15182fccb7ce852437659d20ea95885"><path id="Shape" d="M2955.83,1199.75c-7.583,-42.208 -25,-82.125 -42.708,-120.833c-13.042,-28.207 -28.945,-55 -47.458,-79.959c-26.927,-37.186 -56.063,-72.723 -87.25,-106.416c-18.917,-20.209 -38.667,-39.584 -57,-60.292c-3.723,-5.556 -7.223,-11.236 -10.5,-17.042c-1.738,-6 -3.267,-12.059 -4.584,-18.166c-3.208,-48.334 2.375,-96.792 5.042,-145.125c4.167,-76.709 -3.417,-153.625 -33.333,-224.75c-18.584,-44.084 -40.042,-76.709 -70.542,-114.25c-24.167,-30 -53.917,-51.917 -85.167,-74.584c-63.125,-45.833 -146.75,-67.708 -223.916,-68.708c-88.375,-1.125 -172.167,26.375 -250.625,64.625c-43.625,21.25 -193.125,-50.583 -223.625,-88.125c-24.167,-29.875 -53.917,-51.792 -85.167,-74.458c-63.125,-45.834 -146.75,-67.709 -223.917,-68.709c-88.375,-1.125 -172.166,26.375 -250.625,64.625c-43.625,21.25 -83.916,48.292 -123.625,76.125c-10.365,-2.558 -20.932,-4.217 -31.583,-4.958c-46.417,-3.625 -90.292,-5.875 -136.792,-2.167c-60.625,4.834 -118.666,21.709 -175.541,43.042c-97.449,36.27 -192.022,79.838 -282.917,130.333c-86.494,49.097 -167.099,107.908 -240.25,175.292c-31.535,28.714 -60.998,59.625 -88.167,92.5c-34.583,42 -71.458,86.917 -94.625,136.708c-34.875,75 -48.041,157.334 -20.125,237.5c18.084,51.917 46.209,97.709 69.709,146.584c2,5.958 3.791,11.916 5.333,18c0.212,11.125 -0.192,22.253 -1.208,33.333c-3.292,20.042 -6.917,40 -9.792,60.125c-3.75,26.458 -8.333,53.542 -8.625,80.417c0.315,25.509 2.88,50.941 7.667,76c12.833,76.875 61.916,155.25 123.041,203.25c40.203,32.319 85.54,57.67 134.125,75c37.875,14.083 79.167,19.291 119.042,22.875c53.333,4.833 106.083,-8.917 159.083,-7.459c2.459,1.417 4.917,2.875 7.334,4.375c15.625,13.75 30.166,28.709 44.833,43.542c27.817,28.26 58.12,53.961 90.542,76.792c33.625,23.708 74.041,40.125 113.708,50.541c41.493,10.681 84.246,15.671 127.083,14.834c58.526,-1.569 116.669,-9.959 173.25,-25c22.375,4.166 45.125,6.875 67.459,8.916c53.333,4.834 106.083,-8.916 159.083,-7.458c2.458,1.417 4.917,2.875 7.333,4.375c15.625,13.75 30.167,28.708 44.834,43.542c27.816,28.26 58.119,53.961 90.541,76.791c33.625,23.709 74.042,40.125 113.709,50.542c41.493,10.681 84.245,15.671 127.083,14.833c78.25,-1.416 158.333,-17.75 232.625,-42.416c78.635,-25.525 153.88,-60.503 224.083,-104.167c69.125,-43.875 128.542,-99.292 191.667,-150.875c13.287,-9.709 27.206,-18.52 41.667,-26.375c10.181,-3.124 20.531,-5.669 31,-7.625c35.291,-3.708 70.583,-6.542 105.833,-11.875c41.782,-6.6 81.968,-20.928 118.5,-42.25c33.124,-18.965 62.52,-43.8 86.75,-73.292c31.668,-38.877 56.699,-82.717 74.083,-129.75c28.209,-72.958 27.25,-152.375 13.625,-228.333Z" style="fill:#2c9cf2;fill-rule:nonzero;"/><path id="Oval" d="M1992.7,572.337c5.225,-15.105 21.729,-23.126 36.834,-17.902c15.104,5.225 23.126,21.73 17.901,36.834c-5.224,15.105 -21.729,23.126 -36.833,17.901c-15.105,-5.224 -23.126,-21.729 -17.902,-36.833Z" style="fill:none;stroke:#fff;stroke-width:21.08px;"/><path id="Oval1" serif:id="Oval" d="M2018.58,1347.92c5.225,-15.104 21.729,-23.126 36.834,-17.901c15.104,5.224 23.126,21.729 17.901,36.833c-5.224,15.105 -21.729,23.126 -36.833,17.902c-15.105,-5.225 -23.126,-21.729 -17.902,-36.834Z" style="fill:none;stroke:#fff;stroke-width:21.08px;"/><path id="Oval2" serif:id="Oval" d="M755.985,1152.69c5.224,-15.104 21.729,-23.125 36.833,-17.901c15.105,5.225 23.126,21.729 17.902,36.834c-5.225,15.104 -21.73,23.125 -36.834,17.901c-15.105,-5.225 -23.126,-21.729 -17.901,-36.834Z" style="fill:none;stroke:#fff;stroke-width:21.08px;"/><path id="Oval3" serif:id="Oval" d="M1231.13,254.266c5.225,-15.104 21.729,-23.125 36.834,-17.901c15.104,5.225 23.126,21.729 17.901,36.834c-5.224,15.104 -21.729,23.126 -36.834,17.901c-15.104,-5.224 -23.125,-21.729 -17.901,-36.834Z" style="fill:none;stroke:#fff;stroke-width:21.08px;"/><path id="Oval4" serif:id="Oval" d="M347.196,645.215c5.225,-15.105 21.729,-23.126 36.834,-17.902c15.104,5.225 23.126,21.729 17.901,36.834c-5.224,15.104 -21.729,23.126 -36.833,17.901c-15.105,-5.224 -23.126,-21.729 -17.902,-36.833Z" style="fill:none;stroke:#fff;stroke-width:21.08px;"/><path id="Oval5" serif:id="Oval" d="M2264.99,323.733c5.225,-15.104 21.729,-23.126 36.834,-17.901c15.105,5.224 23.126,21.729 17.901,36.833c-5.224,15.105 -21.729,23.126 -36.833,17.902c-15.105,-5.225 -23.126,-21.729 -17.902,-36.834Z" style="fill:none;stroke:#fff;stroke-width:21.08px;"/><path id="Shape1" serif:id="Shape" d="M1641.88,214.875l-6.583,82.667m1173.25,859l-6.584,82.666m-1948.21,-777.708l58.5,58.792m-490.5,814.458l-47.792,67.792m-72.5,-495.834l50.5,65.834m1836.58,111.125l79.416,23.75" style="fill:none;stroke:#fff;stroke-width:20.08px;"/><path id="Rectangle-path" d="M2644.96,595.167c0,-71.404 -57.971,-129.375 -129.375,-129.375l-1391.33,0c-71.404,0 -129.375,57.971 -129.375,129.375l0,1035.08c0,71.404 57.971,129.375 129.375,129.375l1391.33,0c71.404,0 129.375,-57.971 129.375,-129.375l0,-1035.08Z" style="fill:#e5ebed;stroke:#3c4249;stroke-width:20.83px;"/><path id="Rectangle-path1" serif:id="Rectangle-path" d="M2544.71,634.292c0,-35.346 -28.696,-64.042 -64.041,-64.042l-1321.5,0c-35.346,0 -64.042,28.696 -64.042,64.042l0,956.791c0,35.346 28.696,64.042 64.042,64.042l1321.5,0c35.345,0 64.041,-28.696 64.041,-64.042l0,-956.791Z" style="fill:#fff;"/><path id="Shape2" serif:id="Shape" d="M1302.25,670.083l0,870.834m1188.67,-653.125l-1340.75,0m1340.75,219.791l-1340.75,0m1340.75,219.792l-1340.75,0m359.208,-657.292l0,870.834m207.125,-870.834l0,870.834m207.167,-870.834l0,870.834m207.125,-870.834l0,870.834m207.166,-870.834l0,870.834" style="fill:none;stroke:#3c4249;stroke-width:11.63px;"/><path id="Rectangle-path2" serif:id="Rectangle-path" d="M1479.04,689.625c0,-7.934 -6.442,-14.375 -14.375,-14.375l-50.959,0c-7.933,0 -14.375,6.441 -14.375,14.375l0,30.333c0,7.934 6.442,14.375 14.375,14.375l50.959,0c7.933,0 14.375,-6.441 14.375,-14.375l0,-30.333Z" style="fill:#4d94cd;"/><path id="Rectangle-path3" serif:id="Rectangle-path" d="M1687.04,689.625c0,-7.934 -6.442,-14.375 -14.375,-14.375l-50.959,0c-7.933,0 -14.375,6.441 -14.375,14.375l0,30.333c0,7.934 6.442,14.375 14.375,14.375l50.959,0c7.933,0 14.375,-6.441 14.375,-14.375l0,-30.333Z" style="fill:#4d94cd;"/><path id="Rectangle-path4" serif:id="Rectangle-path" d="M1890.88,689.625c0,-7.934 -6.441,-14.375 -14.375,-14.375l-50.958,0c-7.934,0 -14.375,6.441 -14.375,14.375l0,30.333c0,7.934 6.441,14.375 14.375,14.375l50.958,0c7.934,0 14.375,-6.441 14.375,-14.375l0,-30.333Z" style="fill:#4d94cd;"/><path id="Rectangle-path5" serif:id="Rectangle-path" d="M2098.88,689.625c0,-7.934 -6.441,-14.375 -14.375,-14.375l-50.958,0c-7.934,0 -14.375,6.441 -14.375,14.375l0,30.333c0,7.934 6.441,14.375 14.375,14.375l50.958,0c7.934,0 14.375,-6.441 14.375,-14.375l0,-30.333Z" style="fill:#4d94cd;"/><path id="Rectangle-path6" serif:id="Rectangle-path" d="M2306.88,689.625c0,-7.934 -6.441,-14.375 -14.375,-14.375l-50.958,0c-7.934,0 -14.375,6.441 -14.375,14.375l0,30.333c0,7.934 6.441,14.375 14.375,14.375l50.958,0c7.934,0 14.375,-6.441 14.375,-14.375l0,-30.333Z" style="fill:#4d94cd;"/><path id="Rectangle-path7" serif:id="Rectangle-path" d="M2482.92,689.625c0,-7.934 -6.442,-14.375 -14.375,-14.375l-50.959,0c-7.933,0 -14.375,6.441 -14.375,14.375l0,30.333c0,7.934 6.442,14.375 14.375,14.375l50.959,0c7.933,0 14.375,-6.441 14.375,-14.375l0,-30.333Z" style="fill:#4d94cd;"/><path id="Rectangle-path8" serif:id="Rectangle-path" d="M1271.04,937.542c0,-7.934 -6.442,-14.375 -14.375,-14.375l-50.959,0c-7.933,0 -14.375,6.441 -14.375,14.375l0,30.333c0,7.934 6.442,14.375 14.375,14.375l50.959,0c7.933,0 14.375,-6.441 14.375,-14.375l0,-30.333Z" style="fill:#4d94cd;"/><path id="Rectangle-path9" serif:id="Rectangle-path" d="M1479.04,937.542c0,-7.934 -6.442,-14.375 -14.375,-14.375l-50.959,0c-7.933,0 -14.375,6.441 -14.375,14.375l0,30.333c0,7.934 6.442,14.375 14.375,14.375l50.959,0c7.933,0 14.375,-6.441 14.375,-14.375l0,-30.333Z" style="fill:#4d94cd;"/><path id="Rectangle-path10" serif:id="Rectangle-path" d="M1687.04,937.542c0,-7.934 -6.442,-14.375 -14.375,-14.375l-50.959,0c-7.933,0 -14.375,6.441 -14.375,14.375l0,30.333c0,7.934 6.442,14.375 14.375,14.375l50.959,0c7.933,0 14.375,-6.441 14.375,-14.375l0,-30.333Z" style="fill:#4d94cd;"/><path id="Rectangle-path11" serif:id="Rectangle-path" d="M1890.88,937.542c0,-7.934 -6.441,-14.375 -14.375,-14.375l-50.958,0c-7.934,0 -14.375,6.441 -14.375,14.375l0,30.333c0,7.934 6.441,14.375 14.375,14.375l50.958,0c7.934,0 14.375,-6.441 14.375,-14.375l0,-30.333Z" style="fill:#4d94cd;"/><path id="Rectangle-path12" serif:id="Rectangle-path" d="M2098.88,937.542c0,-7.934 -6.441,-14.375 -14.375,-14.375l-50.958,0c-7.934,0 -14.375,6.441 -14.375,14.375l0,30.333c0,7.934 6.441,14.375 14.375,14.375l50.958,0c7.934,0 14.375,-6.441 14.375,-14.375l0,-30.333Z" style="fill:#4d94cd;"/><path id="Rectangle-path13" serif:id="Rectangle-path" d="M2306.88,937.542c0,-7.934 -6.441,-14.375 -14.375,-14.375l-50.958,0c-7.934,0 -14.375,6.441 -14.375,14.375l0,30.333c0,7.934 6.441,14.375 14.375,14.375l50.958,0c7.934,0 14.375,-6.441 14.375,-14.375l0,-30.333Z" style="fill:#4d94cd;"/><path id="Rectangle-path14" serif:id="Rectangle-path" d="M2482.92,937.542c0,-7.934 -6.442,-14.375 -14.375,-14.375l-50.959,0c-7.933,0 -14.375,6.441 -14.375,14.375l0,30.333c0,7.934 6.442,14.375 14.375,14.375l50.959,0c7.933,0 14.375,-6.441 14.375,-14.375l0,-30.333Z" style="fill:#4d94cd;"/><path id="Rectangle-path15" serif:id="Rectangle-path" d="M1271.04,1157c0,-7.934 -6.442,-14.375 -14.375,-14.375l-50.959,0c-7.933,0 -14.375,6.441 -14.375,14.375l0,30.333c0,7.934 6.442,14.375 14.375,14.375l50.959,0c7.933,0 14.375,-6.441 14.375,-14.375l0,-30.333Z" style="fill:#4d94cd;"/><path id="Rectangle-path16" serif:id="Rectangle-path" d="M1479.04,1157c0,-7.934 -6.442,-14.375 -14.375,-14.375l-50.959,0c-7.933,0 -14.375,6.441 -14.375,14.375l0,30.333c0,7.934 6.442,14.375 14.375,14.375l50.959,0c7.933,0 14.375,-6.441 14.375,-14.375l0,-30.333Z" style="fill:#4d94cd;"/><path id="Rectangle-path17" serif:id="Rectangle-path" d="M1687.04,1157c0,-7.934 -6.442,-14.375 -14.375,-14.375l-50.959,0c-7.933,0 -14.375,6.441 -14.375,14.375l0,30.333c0,7.934 6.442,14.375 14.375,14.375l50.959,0c7.933,0 14.375,-6.441 14.375,-14.375l0,-30.333Z" style="fill:#4d94cd;"/><path id="Rectangle-path18" serif:id="Rectangle-path" d="M1890.88,1157c0,-7.934 -6.441,-14.375 -14.375,-14.375l-50.958,0c-7.934,0 -14.375,6.441 -14.375,14.375l0,30.333c0,7.934 6.441,14.375 14.375,14.375l50.958,0c7.934,0 14.375,-6.441 14.375,-14.375l0,-30.333Z" style="fill:#4d94cd;"/><path id="Rectangle-path19" serif:id="Rectangle-path" d="M2098.88,1157c0,-7.934 -6.441,-14.375 -14.375,-14.375l-50.958,0c-7.934,0 -14.375,6.441 -14.375,14.375l0,30.333c0,7.934 6.441,14.375 14.375,14.375l50.958,0c7.934,0 14.375,-6.441 14.375,-14.375l0,-30.333Z" style="fill:#4d94cd;"/><path id="Rectangle-path20" serif:id="Rectangle-path" d="M2306.88,1157c0,-7.934 -6.441,-14.375 -14.375,-14.375l-50.958,0c-7.934,0 -14.375,6.441 -14.375,14.375l0,30.333c0,7.934 6.441,14.375 14.375,14.375l50.958,0c7.934,0 14.375,-6.441 14.375,-14.375l0,-30.333Z" style="fill:#4d94cd;"/><path id="Rectangle-path21" serif:id="Rectangle-path" d="M2482.92,1157c0,-7.934 -6.442,-14.375 -14.375,-14.375l-50.959,0c-7.933,0 -14.375,6.441 -14.375,14.375l0,30.333c0,7.934 6.442,14.375 14.375,14.375l50.959,0c7.933,0 14.375,-6.441 14.375,-14.375l0,-30.333Z" style="fill:#4d94cd;"/><path id="Rectangle-path22" serif:id="Rectangle-path" d="M1271.04,1377.83c0,-7.933 -6.442,-14.375 -14.375,-14.375l-50.959,0c-7.933,0 -14.375,6.442 -14.375,14.375l0,30.334c0,7.933 6.442,14.375 14.375,14.375l50.959,0c7.933,0 14.375,-6.442 14.375,-14.375l0,-30.334Z" style="fill:#4d94cd;"/><path id="Rectangle-path23" serif:id="Rectangle-path" d="M1479.04,1377.83c0,-7.933 -6.442,-14.375 -14.375,-14.375l-50.959,0c-7.933,0 -14.375,6.442 -14.375,14.375l0,30.334c0,7.933 6.442,14.375 14.375,14.375l50.959,0c7.933,0 14.375,-6.442 14.375,-14.375l0,-30.334Z" style="fill:#4d94cd;"/><path id="Rectangle-path24" serif:id="Rectangle-path" d="M1687.04,1377.83c0,-7.933 -6.442,-14.375 -14.375,-14.375l-50.959,0c-7.933,0 -14.375,6.442 -14.375,14.375l0,30.334c0,7.933 6.442,14.375 14.375,14.375l50.959,0c7.933,0 14.375,-6.442 14.375,-14.375l0,-30.334Z" style="fill:#4d94cd;"/><path id="Rectangle-path25" serif:id="Rectangle-path" d="M1890.88,1377.83c0,-7.933 -6.441,-14.375 -14.375,-14.375l-50.958,0c-7.934,0 -14.375,6.442 -14.375,14.375l0,30.334c0,7.933 6.441,14.375 14.375,14.375l50.958,0c7.934,0 14.375,-6.442 14.375,-14.375l0,-30.334Z" style="fill:#4d94cd;"/><path id="Rectangle-path26" serif:id="Rectangle-path" d="M2098.88,1377.83c0,-7.933 -6.441,-14.375 -14.375,-14.375l-50.958,0c-7.934,0 -14.375,6.442 -14.375,14.375l0,30.334c0,7.933 6.441,14.375 14.375,14.375l50.958,0c7.934,0 14.375,-6.442 14.375,-14.375l0,-30.334Z" style="fill:#4d94cd;"/><path id="Shape3" serif:id="Shape" d="M1338.38,696.958l136.333,156.292c9,10.333 27.084,6.542 15.125,-7.208l-136.333,-156.292c-9,-10.333 -27.083,-6.542 -15.125,7.208Z" style="fill:#e2eaf0;fill-rule:nonzero;"/><path id="Shape4" serif:id="Shape" d="M1355.12,858.083l147.208,-141.666c1.792,-1.75 -20.833,-10.459 -25.666,-5.917l-147.209,141.667c-1.791,1.75 20.834,10.458 25.667,5.916Zm183.25,-161.125l136.333,156.292c9,10.333 27.084,6.542 15.125,-7.208l-136.333,-156.292c-9,-10.333 -27.083,-6.542 -15.125,7.208Z" style="fill:#e2eaf0;fill-rule:nonzero;"/><path id="Shape5" serif:id="Shape" d="M1555.12,858.083l147.208,-141.666c1.792,-1.75 -20.833,-10.459 -25.666,-5.917l-147.209,141.667c-1.791,1.75 20.834,10.458 25.667,5.916Zm191.583,-161.125l136.334,156.292c9,10.333 27.083,6.542 15.125,-7.208l-136.334,-156.292c-9,-10.333 -27.083,-6.542 -15.125,7.208Z" style="fill:#e2eaf0;fill-rule:nonzero;"/><path id="Shape6" serif:id="Shape" d="M1763.46,858.083l147.209,-141.666c1.791,-1.75 -20.834,-10.459 -25.667,-5.917l-147.208,141.667c-1.792,1.75 20.833,10.458 25.666,5.916Zm-625.083,53.334l136.333,156.291c9,10.334 27.084,6.542 15.125,-7.208l-136.333,-156.333c-9,-10.334 -27.083,-6.542 -15.125,7.208l0,0.042Z" style="fill:#e2eaf0;fill-rule:nonzero;"/><path id="Shape7" serif:id="Shape" d="M1155.12,1072.54l147.208,-141.667c1.792,-1.75 -20.833,-10.458 -25.666,-5.917l-147.209,141.667c-1.791,1.75 20.834,10.458 25.667,5.917Zm183.25,-161.125l136.333,156.291c9,10.334 27.084,6.542 15.125,-7.208l-136.333,-156.333c-9,-10.334 -27.083,-6.542 -15.125,7.208l0,0.042Z" style="fill:#e2eaf0;fill-rule:nonzero;"/><path id="Shape8" serif:id="Shape" d="M1355.12,1072.54l147.208,-141.667c1.792,-1.75 -20.833,-10.458 -25.666,-5.917l-147.209,141.667c-1.791,1.75 20.834,10.458 25.667,5.917Zm183.25,-161.125l136.333,156.291c9,10.334 27.084,6.542 15.125,-7.208l-136.333,-156.333c-9,-10.334 -27.083,-6.542 -15.125,7.208l0,0.042Z" style="fill:#e2eaf0;fill-rule:nonzero;"/><path id="Shape9" serif:id="Shape" d="M1555.12,1072.54l147.208,-141.667c1.792,-1.75 -20.833,-10.458 -25.666,-5.917l-147.209,141.667c-1.791,1.75 20.834,10.458 25.667,5.917Zm191.583,-161.125l136.334,156.291c9,10.334 27.083,6.542 15.125,-7.208l-136.334,-156.333c-9,-10.334 -27.083,-6.542 -15.125,7.208l0,0.042Z" style="fill:#e2eaf0;fill-rule:nonzero;"/><path id="Shape10" serif:id="Shape" d="M1763.46,1072.54l147.209,-141.667c1.791,-1.75 -20.834,-10.458 -25.667,-5.917l-147.208,141.667c-1.792,1.75 20.833,10.458 25.666,5.917Zm191.584,-375.584l136.333,156.292c9,10.333 27.083,6.542 15.125,-7.208l-136.333,-156.292c-9,-10.333 -27.084,-6.542 -15.125,7.208Z" style="fill:#e2eaf0;fill-rule:nonzero;"/><path id="Shape11" serif:id="Shape" d="M1971.79,858.083l147.208,-141.666c1.792,-1.75 -20.833,-10.459 -25.667,-5.917l-147.208,141.667c-1.792,1.75 20.833,10.458 25.667,5.916Zm191.583,-161.125l136.333,156.292c9,10.333 27.084,6.542 15.125,-7.208l-136.333,-156.292c-9,-10.333 -27.083,-6.542 -15.125,7.208Z" style="fill:#e2eaf0;fill-rule:nonzero;"/><path id="Shape12" serif:id="Shape" d="M2180.12,858.083l147.208,-141.666c1.792,-1.75 -20.833,-10.459 -25.666,-5.917l-147.209,141.667c-1.791,1.75 20.834,10.458 25.667,5.916Zm191.583,-161.125l136.334,156.292c9,10.333 27.083,6.542 15.125,-7.208l-136.334,-156.292c-9,-10.333 -27.083,-6.542 -15.125,7.208Z" style="fill:#e2eaf0;fill-rule:nonzero;"/><path id="Shape13" serif:id="Shape" d="M2388.46,858.083l147.209,-141.666c1.791,-1.75 -20.834,-10.459 -25.667,-5.917l-147.208,141.667c-1.792,1.75 20.833,10.458 25.666,5.916Z" style="fill:#e2eaf0;fill-rule:nonzero;"/><path id="Shape14" serif:id="Shape" d="M2141.08,989.375c-1,51.333 -32.416,102.458 -82.416,119c-48.834,16.167 -102.042,-6.125 -131.792,-46.417c-32.051,-43.585 -35.114,-102.055 -7.792,-148.75c26.084,-43.291 75.875,-67.375 125.709,-54.166c58.916,15.541 95.125,71.375 96.291,130.333c0.375,19.667 49.584,11.875 49.167,-9.625c-1.769,-69.32 -48.225,-129.513 -114.833,-148.792c-66.667,-19.416 -142.709,2.084 -187.5,55.792c-44.029,52.789 -48.702,128.045 -11.542,185.875c38.083,58.125 111.75,83.333 178.542,68.625c77.791,-17.125 133.791,-81.5 135.375,-161.458c0.333,-19.375 -48.625,-11.959 -49.209,9.583Z" style="fill:#e55a5a;fill-rule:nonzero;"/><path id="Shape15" serif:id="Shape" d="M1183.04,1432.29c3.541,18.333 8.333,40 14.75,63c23.5,84.708 55.708,145.25 95.833,179.958c2.353,1.99 5.612,2.52 8.473,1.377c2.862,-1.143 4.86,-3.772 5.194,-6.835c2.375,-24.167 3.625,-46.125 4.791,-67.375c3.75,-66.667 6.709,-119.417 42.834,-181.584c30.916,-53.208 80.958,-173.791 72.166,-288.416c-6.083,-79.459 -34.708,-171.209 -80.583,-258.334c-52.583,-100 -124.292,-156.958 -239.75,-191.125c-66.667,-19.625 -190.833,-12.875 -270.042,28.459c-102.21,53.779 -181.876,142.265 -224.666,249.541l-6.875,17c-48.25,119.417 -98.167,242.959 -16.667,403.625c36.5,72.042 65.292,98.959 90.667,122.584c26.291,24.5 48.041,44.833 70.833,112.5c-69.782,34.884 -116.55,103.388 -123.625,181.083l0,2.333c0,2.5 -0.417,5.042 -0.542,7.584c0,3.541 -0.25,7.041 -0.25,10.625l0,283.333c0,5.408 4.384,9.792 9.792,9.792l152.125,0l192.667,2.291l2.958,0l192.667,-2.291l152.25,0c5.407,0 9.791,-4.384 9.791,-9.792l0,-283.333c0,-3.667 0,-7.292 -0.291,-10.917c0,-1.583 -0.209,-3.167 -0.334,-4.75c-0.125,-1.583 -0.25,-3.583 -0.416,-5.333c-0.25,-2.917 -0.625,-5.792 -1,-8.667l0,-0.708c-15.222,-111.407 -110.35,-194.473 -222.792,-194.542l-34.583,0c-11.29,-0.023 -20.436,-9.169 -20.459,-20.458l0,-83.334c45.988,-7.827 89.118,-27.582 125.084,-57.291Zm-283.334,55.541l0,85.042c0,11.299 -9.159,20.458 -20.458,20.458l-30.708,0c-10.415,0.022 -20.816,0.774 -31.125,2.25c8.583,-22.5 15.833,-44.875 22.625,-65.916c6.208,-19.209 12.083,-37.5 18.375,-53.75c13.513,5.099 27.42,9.084 41.583,11.916l-0.292,0Z" style="fill:#3c4249;fill-opacity:0.15;fill-rule:nonzero;"/><path id="Shape16" serif:id="Shape" d="M1135.83,1758.79l0,296.625l-605.333,0l-41,-296.625c0,-123.792 20.833,-225 144.708,-225l32.125,0c17.466,0 31.625,-14.159 31.625,-31.625l0,-113.334l144.792,0l0,113.167c0,8.395 3.338,16.445 9.277,22.377c5.94,5.932 13.995,9.259 22.39,9.248l36.208,0c124.22,0.343 224.842,100.946 225.208,225.167Z" style="fill:#fbe4d7;fill-rule:nonzero;"/><path id="Shape17" serif:id="Shape" d="M772.292,1453.29c-54.875,0 -73.625,-29.875 -73.625,-29.875l0,-24.292l147.166,0l0,24.292c0,0 -18.708,29.875 -73.541,29.875Zm138.375,88.375l-1.459,0l0,6.25c1.959,50.625 -81.541,118 -134.375,134.208c-51.708,-23.25 -144.416,-78.083 -139.416,-134.208l0,-6.25l-1.5,0c-123.834,0 -64.084,224 -64.084,347.791l0,165.959l565.709,8.333l0,-296.75c-0.274,-124.156 -100.72,-224.807 -224.875,-225.333Z" style="fill:#d5b7a6;fill-rule:nonzero;"/><path id="Shape18" serif:id="Shape" d="M910.667,1533.62l-36.209,0c-8.394,0.011 -16.449,-3.316 -22.389,-9.248c-5.94,-5.932 -9.277,-13.982 -9.277,-22.377l0,-113.167l-144.792,0l0,113.167c0,17.466 -14.159,31.625 -31.625,31.625l-32.125,0c-123.833,0 -223.625,101.333 -223.625,225l0,296.792l725.208,0l0,-296.625c-0.366,-124.204 -100.962,-224.801 -225.166,-225.167Z" style="fill:none;stroke:#3c4249;stroke-width:20.5px;"/><path id="Shape19" serif:id="Shape" d="M606.5,1539.88c-15.593,2.57 -30.852,6.86 -45.5,12.792c0,111.291 94.667,201.541 211.458,201.541c116.792,0 211.459,-90.208 211.459,-201.541l0,-1.5c-13.473,-5.161 -27.433,-8.944 -41.667,-11.292c0,92.738 -75.179,167.917 -167.917,167.917c-92.737,0 -167.916,-75.179 -167.916,-167.917l0.083,0Z" style="fill:#b7dff2;fill-rule:nonzero;"/><path id="Shape20" serif:id="Shape" d="M613.542,1686.42c-7.735,-8.206 -14.825,-16.996 -21.209,-26.292m154.542,93.417c-35.646,-4.114 -69.718,-16.998 -99.167,-37.5m299.167,-47.959c-37.287,49.504 -93.875,80.806 -155.625,86.084m176.125,-118.959c-3,5.945 -6.264,11.736 -9.792,17.375m-384.291,-62c2.099,8.285 4.687,16.438 7.75,24.417m-5.375,16.333c-4.405,-9.128 -8.164,-18.554 -11.25,-28.208" style="fill:none;stroke:#3c4249;stroke-width:12.29px;"/><path id="Shape21" serif:id="Shape" d="M1135.83,1758.79l0,296.625l-565.708,0l0,-165.792l-160.75,-2.125l0,-152.792c0,0 18.125,-84.333 67.042,-135.791c45.041,-47.417 121.208,-62.209 121.208,-62.209c1,95.834 136.75,174.459 175,173.084c37.083,0 173.833,-77.334 175,-173.084c108.426,18.355 187.885,112.116 188.208,222.084Z" style="fill:#c1dfb3;fill-rule:nonzero;"/><path id="Shape22" serif:id="Shape" d="M947.292,1536.71c-0.917,95.084 -140.042,171.959 -174.042,173.042c-34,-1.083 -173.125,-77.958 -174.042,-173.042c-108.575,18.192 -188.229,111.996 -188.583,222.084l0,128.708l159.542,2.042l0,165.875l202.291,2.416l1.584,0l202.291,-2.416l0,-165.792l159.5,-2.125l0,-128.708c-0.351,-110.075 -79.983,-203.874 -188.541,-222.084Z" style="fill:none;stroke:#3c4249;stroke-width:20.5px;"/><path id="Shape23" serif:id="Shape" d="M976.333,1801.33l0,254.084m-403.041,-254.084l0,254.084" style="fill:#88bfe0;fill-rule:nonzero;stroke:#3c4249;stroke-width:20.5px;"/><path id="Shape24" serif:id="Shape" d="M976.333,1889.62l159.5,0l0,168.208l-159.5,0l0,-168.208Z" style="fill:#fbe4d7;fill-rule:nonzero;"/><path id="Shape25" serif:id="Shape" d="M976.333,1881.42l159.5,0l0,38.75l-159.5,0l0,-38.75Z" style="fill:#d5b7a6;fill-rule:nonzero;"/><path id="Shape26" serif:id="Shape" d="M976.333,1889.62l159.5,0l0,164.083l-159.5,0l0,-164.083Z" style="fill:none;stroke:#3c4249;stroke-width:19.92px;"/><path id="Shape27" serif:id="Shape" d="M411.292,1889.62l159.5,0l0,168.208l-159.5,0l0,-168.208Z" style="fill:#fbe4d7;fill-rule:nonzero;"/><path id="Shape28" serif:id="Shape" d="M411.292,1881.42l159.5,0l0,38.75l-159.5,0l0,-38.75Z" style="fill:#d5b7a6;fill-rule:nonzero;"/><path id="Shape29" serif:id="Shape" d="M411.292,1889.62l159.5,0l0,164.083l-159.5,0l0,-164.083Z" style="fill:none;stroke:#3c4249;stroke-width:19.92px;"/><path id="Shape30" serif:id="Shape" d="M721.792,1858.62c-14.913,33.94 -54.492,49.395 -88.459,34.542m306.917,-34.542c-7.162,16.332 -20.52,29.147 -37.134,35.626c-16.615,6.478 -35.123,6.088 -51.449,-1.084" style="fill:none;stroke:#000;stroke-opacity:0.07;stroke-width:16.38px;"/><path id="Shape31" serif:id="Shape" d="M449.375,1149.46l-65.375,73.625" style="fill:none;stroke:#fff;stroke-width:23.83px;"/><path id="Shape32" serif:id="Shape" d="M901.833,578.75c-70.5,-20.833 -198.333,-11.5 -276.208,29.167c-105.181,55.312 -187.157,146.361 -231.167,256.75c-52.791,131.541 -112.5,260.666 -25,433.333c87.5,172.667 132.625,93.625 186.042,304.167c62.5,-102.584 70.042,-231.25 123.25,-273.5c85.417,-23.292 305.042,-30.75 305.042,-30.75c0,0 23.75,219.666 121.666,304.625c10.417,-105.667 0,-176.375 51,-264.084c33.084,-56.916 83.334,-180.833 74.417,-296.875c-6.083,-79.166 -34.833,-175 -83.333,-267.041c-51.917,-98.709 -121.875,-159.167 -245.709,-195.792Z" style="fill:#665649;fill-rule:nonzero;stroke:#3c4249;stroke-width:17.33px;"/><path id="Shape33" serif:id="Shape" d="M1179.17,978.792c-0.209,2.333 13.541,6.375 -12.75,-65.584" style="fill:none;stroke:#77665b;stroke-width:17.33px;"/><g id="_Group_"><path id="Shape34" serif:id="Shape" d="M1076.08,959.75l0,178.833c-0.32,148.765 -120.777,269.315 -269.541,269.75l-63,0c-148.684,-0.434 -269.107,-120.858 -269.542,-269.541l0,-184.625c0,-25.25 12.75,-70.5 31.792,-109.5c19.041,-39 44.416,-71.667 69.625,-71.667c70.412,-9.896 141.398,-15.157 212.5,-15.75c68.961,0.814 137.799,6.075 206.083,15.75c50.458,-0.208 82.083,136.292 82.083,186.75Z" style="fill:#fbe4d7;fill-rule:nonzero;"/><path id="Shape35" serif:id="Shape" d="M472.25,968.667l69,-89.75c13.542,-17.625 -90.958,119.458 -69,122.958c0,0 90.417,-47.458 148.042,-65.75c88.333,-28 177.625,-64.833 225.833,-120.833c52.333,8.333 89.917,30.583 136.833,55.5c18.542,9.875 91.375,91.958 91.375,91.958c0,-25.25 -21.166,-53.333 -40.208,-92.333c-19.042,-39 -36,-55.625 -61.208,-55.625c0,0 -93.125,-46.375 -201.125,-46.375c-101.042,0 -225.584,43.166 -225.584,43.166c-50.375,0.125 -73.958,106.625 -73.958,157.084Zm303.5,384.25c255.542,0 300.333,-214.334 300.333,-214.334c-0.32,148.765 -120.777,269.315 -269.541,269.75l-63,0c-148.684,-0.434 -269.107,-120.858 -269.542,-269.541c0,0 45.417,214.125 301.75,214.125Z" style="fill:#d5b7a6;fill-rule:nonzero;"/><path id="Shape36" serif:id="Shape" d="M806.542,1408.33l-63,0c-148.684,-0.434 -269.107,-120.858 -269.542,-269.541l0,-184.625c0,-25.25 12.75,-70.5 31.792,-109.5c19.041,-39 44.416,-71.667 69.625,-71.667c70.412,-9.896 141.398,-15.157 212.5,-15.75c68.961,0.814 137.799,6.075 206.083,15.75c50.458,0 82.083,136.5 82.083,186.958l0,178.834c-0.434,148.683 -120.858,269.107 -269.541,269.541Z" style="fill:none;stroke:#3c4249;stroke-width:20.83px;"/></g><path id="Shape37" serif:id="Shape" d="M421.083,1147.21c3.25,-131.041 74.292,-216.416 253.459,-274.75c179.166,-58.333 181.25,-164.583 181.25,-164.583l-205.25,-38.833l-148.584,104.5l-81.125,105.333l-40.375,194.458l40.625,73.875Z" style="fill:#66564a;fill-rule:nonzero;"/><path id="Shape38" serif:id="Shape" d="M607.625,1016.67c8.049,-15.387 23.692,-25.313 41.041,-26.044c17.349,-0.73 33.77,7.847 43.084,22.502m168.333,-7.542c11.564,-12.962 29.165,-18.771 46.173,-15.239c17.008,3.532 30.84,15.869 36.286,32.364" style="fill:#fbe4d7;fill-rule:nonzero;stroke:#3c4249;stroke-width:16.67px;"/><path id="Shape39" serif:id="Shape" d="M753.333,1081.92c0,0 -7.5,33.333 -20,47.25c0,0 21.375,18.041 40.292,18.041m105.542,73.959c0,0 -11.125,44.458 -70.834,49.291" style="fill:none;stroke:#3c4249;stroke-width:16.67px;"/><path id="Shape40" serif:id="Shape" d="M747.25,1082.67c0,0 -16.125,20.625 -27.458,39.291c-3.271,5.389 -3.979,11.952 -1.935,17.915c2.044,5.963 6.629,10.711 12.518,12.96c13.083,4.875 30.417,7.959 46.042,0l-40.292,-24.166l11.125,-46Z" style="fill-opacity:0.07;fill-rule:nonzero;"/><circle id="Oval6" serif:id="Oval" cx="942.75" cy="1124.79" r="50.25" style="fill:#bc2132;fill-opacity:0.1;"/><circle id="Oval7" serif:id="Oval" cx="616.25" cy="1124.79" r="50.25" style="fill:#bc2132;fill-opacity:0.1;"/><path id="Shape41" serif:id="Shape" d="M831.125,774.042c0,0 108.333,33.333 171.208,84c45.834,37.041 92,95.833 92,95.833l22.334,0l4.166,-190.5l-145.833,-76.292l-123.208,-59.708l-79.834,106.958l59.167,39.709Z" style="fill:#66564a;fill-rule:nonzero;"/><path id="Shape42" serif:id="Shape" d="M860.667,707.875c0,0 -2.084,106.25 -181.25,164.583c-139.584,45.459 -263.542,119.875 -258.334,274.75" style="fill:none;stroke:#3c4249;stroke-width:17.33px;"/><path id="Shape43" serif:id="Shape" d="M831.125,774.042c0,0 108.333,33.333 171.208,84c45.834,37.041 107.459,132.5 107.459,132.5" style="fill:none;stroke:#3c4249;stroke-width:17.33px;"/><path id="Shape44" serif:id="Shape" d="M592.083,769.417c0,0 79.834,-28.875 145.834,-122.084m-68.875,122.084c0,0 43.833,-35.709 64.5,-57.75m23.625,-13c0,0 19.666,-16.667 30.75,-51.334m-53.667,122.084c0,0 57.833,-28.875 75.458,-82.167m-323.666,192.5c8.419,-8.414 17.885,-15.71 28.166,-21.708m-75.541,101.166c0,0 4.625,-24.25 30.333,-59.5m541.25,-196.916c0,0 -17.792,-17.125 -59.125,-31.084m-470.292,607.459c-4.086,-11.172 -6.718,-22.823 -7.833,-34.667m59.958,110.958c0,0 -20.041,-14.416 -41.208,-52.541m625.333,-4c4.185,-11.144 9.787,-21.703 16.667,-31.417m-27.042,123.375c0,0 -5.791,-24 3.084,-66.667m41.625,-439c-5.757,-10.404 -12.829,-20.025 -21.042,-28.625" style="fill:none;stroke:#77665b;stroke-width:17.33px;"/><path id="Rectangle-path27" serif:id="Rectangle-path" d="M474.458,981.271c0,-12.177 -9.886,-22.063 -22.062,-22.063c-12.177,0 -22.063,9.886 -22.063,22.063l0,147.667c0,12.176 9.886,22.062 22.063,22.062c12.176,0 22.062,-9.886 22.062,-22.062l0,-147.667Z" style="fill:#6e767d;stroke:#3c4249;stroke-width:20.5px;"/><path id="Rectangle-path28" serif:id="Rectangle-path" d="M1115.96,981.271c0,-12.177 -9.886,-22.063 -22.062,-22.063c-12.177,0 -22.063,9.886 -22.063,22.063l0,147.667c0,12.176 9.886,22.062 22.063,22.062c12.176,0 22.062,-9.886 22.062,-22.062l0,-147.667Z" style="fill:#6e767d;stroke:#3c4249;stroke-width:20.5px;"/><path id="Shape45" serif:id="Shape" d="M1096.33,1077.75c-5.416,-1.583 -10.875,3.625 -12.5,9.042c-0.25,0.875 -27.375,110.416 -144.625,187.291c-11.668,-12.409 -30.646,-14.446 -44.682,-4.795c-14.036,9.651 -18.927,28.102 -11.516,43.438c7.411,15.337 24.906,22.97 41.19,17.97c16.283,-4.999 26.481,-21.134 24.008,-37.988c125.959,-81.583 120.834,-155.166 122.084,-159c1.583,-5.458 31.458,-54.541 26.041,-55.958Z" style="fill:#d5b7a6;fill-rule:nonzero;"/><path id="Shape46" serif:id="Shape" d="M1093.92,1087.12c0,0 -27.792,94.458 -166.667,177.792" style="fill:none;stroke:#3c4249;stroke-width:20.5px;"/><circle id="Oval8" serif:id="Oval" cx="916.125" cy="1267.71" r="23.625" style="fill:#6e767d;stroke:#3c4249;stroke-width:20.5px;"/><path id="Shape47" serif:id="Shape" d="M452.417,959.208c0,0 1.25,-159.583 70.833,-275m570.667,275c0,0 -19.459,-219.291 -88.875,-334.583" style="fill:none;stroke:#3c4249;stroke-width:20.5px;"/><path id="Shape48" serif:id="Shape" d="M68.583,2073.88c6.959,3.458 19.917,10.458 32.417,11.958c10.458,1.25 20.5,1.334 30.958,1.584c12.875,0.333 27.459,1.25 41.875,2.583c35.25,3.25 69.667,10.875 104.667,15.667c37.511,5.013 75.322,7.449 113.167,7.291c7.554,15.364 20.416,27.472 36.208,34.084c21.167,18.291 45.833,18.416 74.458,12.208c3.723,-0.806 7.417,-1.667 11.084,-2.583c37.5,-4.584 74.791,-14.625 111.833,-21.167c43.542,-7.667 87.5,-13.5 131.417,-18.625c42.166,-4.958 88.5,-2.958 129.958,-13.417c107.083,14.25 215.417,16.667 323.625,19.375c139.542,3.25 280.25,-2.916 419.5,-11.25c139.25,-8.333 278.708,-22.166 418.083,-34.041c68.209,-5.834 136.959,-10.209 205.459,-7.042c67.541,3.125 133.583,18.25 200.833,23.833c76.292,6.334 150,-5.541 224.75,-19.208c35,-6.375 70.083,-12.5 105.542,-15.458c37.25,-3.292 74.583,-1.917 111.875,-4.75c43.416,-3.292 56.583,-67.625 15.25,-85.167c-63.417,-26.958 -133.959,-18.458 -200.542,-9.042c-65.375,9.25 -131,21.5 -197.25,21.542c-63.708,0 -127.042,-15.833 -190.333,-22.833c-71.709,-7.959 -144.209,-8 -216.209,-4.625c-141.041,6.666 -281.5,22.25 -422.583,29.166c-139.667,6.917 -279.472,11.57 -419.417,13.959c-102.791,1.75 -206.416,2.708 -309.291,9.833c-2.042,-1.5 -4.167,-3 -6.167,-4.375c-22.229,-14.493 -46.717,-25.181 -72.458,-31.625c-51.625,-13.542 -106.459,-10.792 -158.042,0.792c-39.259,9.412 -77.735,21.838 -115.083,37.166c-36.697,6.951 -73.825,11.392 -111.125,13.292c-34.211,1.64 -68.5,-0.217 -102.334,-5.542c-36.375,-6.25 -71.458,-17.041 -107.291,-25.458c-35.834,-8.417 -70.917,-17.792 -107.25,-21.167c-20.636,-2.459 -41.49,-2.459 -62.125,0c-10.196,1.039 -20.236,3.262 -29.917,6.625c-13.792,5.542 -21.042,15.459 -31.167,25c-22.375,21.167 -8.541,59.334 15.625,71.417Z" style="fill:#e1e8ee;fill-rule:nonzero;"/><path id="Shape49" serif:id="Shape" d="M2746.12,2046.38l136.125,0m-2872.38,3.5l136.125,0m2289.96,-3.5l250.459,0m-711.292,0l339.833,0m-787.333,0l136.125,0m-446.292,0l250.459,0" style="fill:none;stroke:#3c4249;stroke-width:17.54px;"/><path id="Shape50" serif:id="Shape" d="M278.042,2049.88l346.541,0" style="fill:none;stroke:#3c4249;stroke-width:17.71px;"/></g></svg>