<?xml version="1.0" encoding="UTF-8" standalone="no"?><!DOCTYPE svg PUBLIC "-//W3C//DTD SVG 1.1//EN" "http://www.w3.org/Graphics/SVG/1.1/DTD/svg11.dtd"><svg width="100%" height="100%" viewBox="0 0 2971 2163" version="1.1" xmlns="http://www.w3.org/2000/svg" xmlns:xlink="http://www.w3.org/1999/xlink" xml:space="preserve" xmlns:serif="http://www.serif.com/" style="fill-rule:evenodd;clip-rule:evenodd;stroke-linecap:round;stroke-linejoin:round;"><g id="plan-for-you-cc123bffdec1e344bdf0666c402ce5295bd56709c23be089cb388a0fab80bd0c"><path id="Shape" d="M2957.67,1198.04c-7.584,-42.209 -25,-82.125 -42.709,-120.834c-13.042,-28.206 -28.945,-54.999 -47.458,-79.958c-26.927,-37.187 -56.063,-72.723 -87.25,-106.417c-18.917,-20.208 -38.667,-39.583 -57,-60.291c-3.722,-5.556 -7.222,-11.236 -10.5,-17.042c-1.738,-6.001 -3.267,-12.06 -4.583,-18.167c-3.209,-48.333 2.375,-96.791 5.041,-145.125c4.167,-76.708 -3.416,-153.625 -33.333,-224.75c-18.583,-44.083 -40.042,-76.708 -70.542,-114.25c-24.291,-29.916 -53.916,-51.791 -85.166,-74.458c-63.125,-45.833 -146.75,-67.708 -223.917,-68.708c-88.375,-1.125 -172.167,26.375 -250.625,64.625c-43.625,21.25 -193.125,-50.584 -223.625,-88.125c-24.292,-29.917 -53.917,-51.792 -85.167,-74.459c-63.125,-45.833 -146.75,-67.708 -223.916,-68.708c-88.375,-1.125 -172.167,26.375 -250.625,64.625c-43.625,21.25 -83.917,48.292 -123.625,76.125c-10.366,-2.559 -20.933,-4.218 -31.584,-4.958c-46.416,-3.625 -90.291,-5.875 -136.791,-2.167c-60.625,4.833 -118.667,21.708 -175.542,43.042c-97.447,36.256 -192.021,79.81 -282.917,130.291c-86.493,49.097 -167.099,107.908 -240.25,175.292c-31.503,28.69 -60.938,59.573 -88.083,92.417c-34.583,42 -71.458,86.916 -94.625,136.708c-34.875,75 -48.042,157.333 -20.125,237.5c18.083,51.917 46.208,97.708 69.708,146.583c2,5.959 3.792,11.917 5.334,18c0.211,11.125 -0.192,22.253 -1.209,33.334c-3.291,20.041 -6.916,40 -9.791,60.125c-3.75,26.458 -8.334,53.541 -8.625,80.416c0.314,25.51 2.88,50.942 7.666,76c12.75,76.959 61.959,155.25 122.959,203.209c40.203,32.319 85.539,57.67 134.125,75c37.875,14.083 79.166,19.291 119.041,22.875c53.334,4.833 106.084,-8.917 159.084,-7.459c2.458,1.417 4.916,2.875 7.333,4.375c15.625,13.75 30.167,28.709 44.833,43.542c27.805,28.362 58.108,54.16 90.542,77.083c33.625,23.709 74.042,40.125 113.708,50.542c41.493,10.681 84.246,15.671 127.084,14.833c58.525,-1.568 116.668,-9.958 173.25,-25c22.375,4.167 45.125,6.875 67.458,8.917c53.333,4.833 106.083,-8.917 159.083,-7.458c2.459,1.416 4.917,2.875 7.334,4.375c15.625,13.75 30.166,28.708 44.833,43.541c27.825,28.306 58.141,54.049 90.583,76.917c33.625,23.708 74.042,40.125 113.709,50.542c41.493,10.681 84.245,15.671 127.083,14.833c78.25,-1.417 158.333,-17.75 232.625,-42.417c78.635,-25.524 153.88,-60.502 224.083,-104.166c69.125,-43.875 128.542,-99.292 191.667,-150.875c13.286,-9.709 27.206,-18.521 41.667,-26.375c10.181,-3.124 20.531,-5.67 31,-7.625c35.291,-3.709 70.583,-6.542 105.833,-11.875c41.782,-6.6 81.968,-20.928 118.5,-42.25c33.124,-18.965 62.52,-43.8 86.75,-73.292c31.668,-38.878 56.699,-82.717 74.083,-129.75c28.125,-73.333 27.209,-152.75 13.584,-228.708Z" style="fill:#2c9cf2;fill-rule:nonzero;"/><path id="Oval" d="M1994.53,570.631c5.224,-15.104 21.729,-23.125 36.833,-17.901c15.105,5.225 23.126,21.729 17.902,36.834c-5.225,15.104 -21.729,23.125 -36.834,17.901c-15.104,-5.225 -23.126,-21.729 -17.901,-36.834Z" style="fill:none;stroke:#fff;stroke-width:21.08px;"/><path id="Oval1" serif:id="Oval" d="M2020.34,1346.17c5.225,-15.105 21.729,-23.126 36.834,-17.902c15.104,5.225 23.126,21.729 17.901,36.834c-5.224,15.104 -21.729,23.126 -36.834,17.901c-15.104,-5.224 -23.125,-21.729 -17.901,-36.833Z" style="fill:none;stroke:#fff;stroke-width:21.08px;"/><path id="Oval2" serif:id="Oval" d="M757.828,1150.95c5.224,-15.105 21.729,-23.126 36.833,-17.902c15.105,5.225 23.126,21.729 17.901,36.834c-5.224,15.104 -21.729,23.126 -36.833,17.901c-15.105,-5.224 -23.126,-21.729 -17.901,-36.833Z" style="fill:none;stroke:#fff;stroke-width:21.08px;"/><path id="Oval3" serif:id="Oval" d="M1232.93,252.569c5.224,-15.105 21.729,-23.126 36.833,-17.902c15.105,5.225 23.126,21.73 17.901,36.834c-5.224,15.105 -21.729,23.126 -36.833,17.901c-15.105,-5.224 -23.126,-21.729 -17.901,-36.833Z" style="fill:none;stroke:#fff;stroke-width:21.08px;"/><path id="Oval4" serif:id="Oval" d="M349.022,643.554c5.224,-15.105 21.729,-23.126 36.833,-17.902c15.105,5.225 23.126,21.729 17.902,36.834c-5.225,15.104 -21.73,23.126 -36.834,17.901c-15.105,-5.224 -23.126,-21.729 -17.901,-36.833Z" style="fill:none;stroke:#fff;stroke-width:21.08px;"/><path id="Oval5" serif:id="Oval" d="M2266.8,322.03c5.224,-15.105 21.729,-23.126 36.833,-17.901c15.105,5.224 23.126,21.729 17.902,36.833c-5.225,15.105 -21.729,23.126 -36.834,17.901c-15.104,-5.224 -23.126,-21.729 -17.901,-36.833Z" style="fill:none;stroke:#fff;stroke-width:21.08px;"/><path id="Shape1" serif:id="Shape" d="M1643.71,213.125l-6.625,82.708m1173.29,858.959l-6.625,82.708m-1948.21,-777.708l58.541,58.75m-490.541,814.5l-47.792,67.791m-72.458,-495.833l50.458,65.833m1836.62,111.125l79.417,23.75" style="fill:none;stroke:#fff;stroke-width:20.08px;"/><path id="Shape2" serif:id="Shape" d="M2133.75,1182.21l0,869.75l-293.583,0l0,-957.166l206.166,0c48.26,0.046 87.371,39.156 87.417,87.416Z" style="fill:#fbe4d7;fill-rule:nonzero;stroke:#3d4349;stroke-width:22.04px;"/><path id="Shape3" serif:id="Shape" d="M1996.25,1196.88l-54.167,273.958l-10.416,-275l64.583,1.042Z" style="fill:#d4b7a6;fill-rule:nonzero;"/><path id="Shape4" serif:id="Shape" d="M70.417,2072.17c6.958,3.458 19.916,10.458 32.416,11.958c10.459,1.25 20.5,1.333 30.959,1.583c12.875,0.334 27.458,1.25 41.875,2.584c35.25,3.25 69.666,10.875 104.666,15.666c37.54,5.003 75.379,7.425 113.25,7.25c7.554,15.364 20.417,27.472 36.209,34.084c21.166,18.291 45.833,18.416 74.458,12.208c3.722,-0.806 7.417,-1.667 11.083,-2.583c37.5,-4.584 74.792,-14.625 111.834,-21.167c43.541,-7.667 87.5,-13.5 131.416,-18.625c42.167,-4.958 88.5,-2.958 129.959,-13.417c107.083,14.25 215.416,16.667 323.625,19.375c139.541,3.25 280.25,-2.916 419.5,-11.25c139.25,-8.333 278.708,-22.166 418.083,-34.041c68.208,-5.834 136.958,-10.209 205.458,-7.042c67.542,3.125 133.584,18.25 200.834,23.833c76.291,6.334 150,-5.541 224.75,-19.208c35,-6.375 70.083,-12.5 105.541,-15.458c37.25,-3.292 74.584,-1.917 111.875,-4.75c43.417,-3.292 56.584,-67.625 15.25,-85.167c-63.416,-26.958 -133.958,-18.458 -200.541,-9.042c-65.375,9.25 -131,21.5 -197.25,21.542c-63.709,0 -127.042,-15.833 -190.334,-22.833c-71.708,-7.959 -144.208,-8 -216.208,-4.625c-141.042,6.666 -281.5,22.25 -422.583,29.166c-139.667,6.917 -279.473,11.57 -419.417,13.959c-102.792,1.75 -206.417,2.708 -309.292,9.833c-2.041,-1.5 -4.166,-3 -6.166,-4.375c-22.244,-14.483 -46.747,-25.157 -72.5,-31.583c-51.625,-13.542 -106.459,-10.792 -158.042,0.791c-39.288,9.409 -77.791,21.835 -115.167,37.167c-36.696,6.951 -73.824,11.392 -111.125,13.292c-34.21,1.639 -68.499,-0.218 -102.333,-5.542c-36.375,-6.25 -71.458,-17.042 -107.292,-25.458c-35.833,-8.417 -71.041,-17.75 -107.291,-21.292c-20.636,-2.459 -41.49,-2.459 -62.125,0c-10.196,1.038 -20.236,3.262 -29.917,6.625c-13.792,5.542 -21.042,15.458 -31.167,25c-22.291,21.292 -8.5,59.458 15.709,71.542Z" style="fill:#e1e8ee;fill-rule:nonzero;"/><path id="Shape5" serif:id="Shape" d="M2747.96,2044.62l136.125,0m-2872.42,3.542l136.125,0m2289.96,-3.542l250.5,0m-711.292,0l339.792,0m-787.333,0l136.125,0m-446.292,0l250.5,0" style="fill:none;stroke:#3c4249;stroke-width:17.54px;"/><path id="Shape6" serif:id="Shape" d="M279.875,2048.17l346.5,0" style="fill:none;stroke:#3c4249;stroke-width:17.71px;"/><path id="Shape7" serif:id="Shape" d="M1852.5,1350l114.583,0l0,393.833c0,12.611 -10.223,22.834 -22.833,22.834l-91.667,0l0,-416.667l-0.083,0Z" style="fill:#d4b7a6;fill-rule:nonzero;"/><path id="Shape8" serif:id="Shape" d="M2093.46,1109.71c0,0 -77.791,-104.166 -283.333,-200l-27.792,254.167l311.125,-54.167Z" style="fill:#d4b7a6;fill-rule:nonzero;stroke:#3d4349;stroke-width:20.83px;"/><path id="Shape9" serif:id="Shape" d="M970.667,583.167l962.458,0l0,1156.21l-962.458,0l0,-1156.21Z" style="fill:#e5ebed;fill-rule:nonzero;stroke:#3c4249;stroke-width:20.83px;"/><path id="Rectangle-path" d="M1901.79,720.125c0,-31.804 -25.821,-57.625 -57.625,-57.625l-740.292,0c-31.804,0 -57.625,25.821 -57.625,57.625l0,920.875c0,31.804 25.821,57.625 57.625,57.625l740.292,0c31.804,0 57.625,-25.821 57.625,-57.625l0,-920.875Z" style="fill:#3c4249;fill-opacity:0.08;"/><path id="Rectangle-path1" serif:id="Rectangle-path" d="M1878.17,691.083c0,-27.273 -22.143,-49.416 -49.417,-49.416l-756.708,0c-27.274,0 -49.417,22.143 -49.417,49.416l0,937.292c0,27.274 22.143,49.417 49.417,49.417l756.708,0c27.274,0 49.417,-22.143 49.417,-49.417l0,-937.292Z" style="fill:#fff;"/><path id="Rectangle-path2" serif:id="Rectangle-path" d="M1391.04,692.708c0,-14.832 -12.043,-26.875 -26.875,-26.875l-204.584,0c-14.832,0 -26.875,12.043 -26.875,26.875l0,208.75c0,14.833 12.043,26.875 26.875,26.875l204.584,0c14.832,0 26.875,-12.042 26.875,-26.875l0,-208.75Z" style="fill:#3c4249;fill-opacity:0.15;"/><path id="Rectangle-path3" serif:id="Rectangle-path" d="M1379.58,681.042c0,-14.833 -12.042,-26.875 -26.875,-26.875l-204.583,0c-14.833,0 -26.875,12.042 -26.875,26.875l0,208.75c0,14.832 12.042,26.875 26.875,26.875l204.583,0c14.833,0 26.875,-12.043 26.875,-26.875l0,-208.75Z" style="fill:#4d94cd;"/><g id="Group"><g id="_Group_"><path id="Shape10" serif:id="Shape" d="M1329.17,888.667l0,30.666c0,11.92 -9.664,21.584 -21.584,21.584l-118.333,0c-5.731,0.011 -11.232,-2.258 -15.289,-6.307c-4.056,-4.049 -6.336,-9.545 -6.336,-15.277l0,-30.666c0,-8.334 7.458,-16.042 25.542,-23.959c2.833,-1.458 5.708,-2.625 8,-3.541c21.833,-9.167 28.833,-16.667 28.833,-33.334c0,-9.916 -6.667,-6.666 -9.625,-25c-1.208,-7.5 -7.083,0 -8.333,-17.291c0,-6.834 3.208,-8.334 3.208,-8.334c0,0 -1.625,-10.125 -2.292,-17.916c-0.791,-9.709 4.917,-34.792 35.209,-34.792l0.375,0c30.333,0 36,25 35.208,34.792c-0.625,7.791 -2.25,17.916 -2.25,17.916c0,0 3.208,1.709 3.208,8.334c-1.125,17.166 -7.041,9.791 -8.333,17.291c-2.917,18.125 -9.583,14.875 -9.583,25c0,16.667 6.958,24.167 28.833,33.334c2.25,0.916 5.167,2.083 7.958,3.541c18.292,7.917 25.584,15.75 25.584,23.959Z" style="fill:#fff;fill-rule:nonzero;"/><path id="Shape11" serif:id="Shape" d="M1251.17,902c26.508,-0.646 52.782,-5.138 78,-13.333l0,30.666c0,11.92 -9.664,21.584 -21.584,21.584l-118.333,0c-5.731,0.011 -11.232,-2.258 -15.289,-6.307c-4.056,-4.049 -6.336,-9.545 -6.336,-15.277l0,-30.666c27.133,8.129 55.226,12.613 83.542,13.333Z" style="fill:#e2eaf0;fill-rule:nonzero;"/><path id="Shape12" serif:id="Shape" d="M1307.75,940.917c11.92,0 21.583,-9.664 21.583,-21.584l0,-30.666c0,-8.334 -7.458,-16.042 -25.541,-23.959c-2.792,-1.458 -5.709,-2.625 -7.959,-3.541c-21.875,-9.167 -28.833,-16.667 -28.833,-33.334c0,-9.916 6.667,-6.666 9.583,-25c1.209,-7.5 7.125,0 8.334,-17.291c0,-6.834 -3.209,-8.334 -3.209,-8.334c0,0 1.625,-10.125 2.25,-17.916c0.792,-9.709 -4.875,-34.792 -35.208,-34.792l-0.375,0c-30.292,0 -36,25 -35.208,34.792c0.666,7.791 2.291,17.916 2.291,17.916c0,0 -3.208,1.709 -3.208,8.334c1.125,17.166 7,9.791 8.333,17.291c2.959,18.125 9.625,14.875 9.625,25c0,16.667 -7,24.167 -28.833,33.334c-2.292,0.916 -5.167,2.083 -8,3.541c-18.083,7.917 -25.542,15.75 -25.542,23.959l0,30.666c0,5.732 2.28,11.228 6.337,15.277c4.056,4.049 9.557,6.318 15.288,6.307l118.292,0Z" style="fill:none;stroke:#3d4349;stroke-width:12.5px;"/></g><circle id="Oval6" serif:id="Oval" cx="1258.88" cy="766.375" r="4.583" style="fill:#3c4249;"/><circle id="Oval7" serif:id="Oval" cx="1238.38" cy="766.375" r="4.583" style="fill:#3c4249;"/><path id="Shape13" serif:id="Shape" d="M1236.58,782.875c3.024,3.66 7.524,5.779 12.271,5.779c4.748,0 9.247,-2.119 12.271,-5.779" style="fill:none;stroke:#3c4249;stroke-width:7.33px;"/></g><g id="_Group_2_" serif:id="_Group_2"><path id="Shape14" serif:id="Shape" d="M1833.33,714.417l-762.5,0c0,-138.072 111.929,-250 250,-250l50.959,0c0,-37.084 -0.292,-72.667 -0.292,-74.125c-0.31,-43.448 33.914,-79.302 77.33,-81.012c43.415,-1.71 80.353,31.341 83.462,74.678l0,2.334c0,1.333 0.208,2.625 0.208,4.166c0,1.542 0,2.625 -0.208,4.167l0,70.167l51.041,0c138.072,0 250,111.928 250,250l0,-0.375Zm-352.041,-329.709c0,-16.108 -13.059,-29.166 -29.167,-29.166c-16.108,0 -29.167,13.058 -29.167,29.166c0,16.109 13.059,29.167 29.167,29.167c16.027,-0.114 28.959,-13.139 28.958,-29.167l0.209,0Z" style="fill:#e5ebed;fill-rule:nonzero;"/><path id="Shape15" serif:id="Shape" d="M1833.33,714.417l-762.5,0c-0.032,-29.516 5.173,-58.804 15.375,-86.5l725,-2.917c8.5,25.625 22.125,60.75 22.125,89.417Zm-352.041,-329.709c0,-16.108 -13.059,-29.166 -29.167,-29.166c-16.108,0 -29.167,13.058 -29.167,29.166c0,16.109 13.059,29.167 29.167,29.167c16.027,-0.114 28.959,-13.139 28.958,-29.167l0.209,0Z" style="fill:#d3dadd;fill-rule:nonzero;"/><path id="Shape16" serif:id="Shape" d="M1583.33,464.417l-51.083,0l0,-70.167c0,-1.333 0.208,-2.625 0.208,-4.167c0,-1.541 0,-2.666 -0.208,-4.166l0,-2.334c-3.109,-43.337 -40.047,-76.388 -83.462,-74.678c-43.415,1.71 -77.639,37.564 -77.33,81.012c0,1.458 0,37.041 0.292,74.125l-50.917,0c-138.071,0 -250,111.928 -250,250l762.5,0c0,-138.072 -111.928,-250 -250,-250l0,0.375Z" style="fill:none;stroke:#3c4249;stroke-width:20.17px;"/><path id="Shape17" serif:id="Shape" d="M1451.92,355.542c16.108,0 29.166,13.058 29.166,29.166c0,16.109 -13.058,29.167 -29.166,29.167c-16.109,0 -29.167,-13.058 -29.167,-29.167c0,-16.108 13.058,-29.166 29.167,-29.166Z" style="fill:none;stroke:#3c4249;stroke-width:20.17px;"/></g><path id="Shape18" serif:id="Shape" d="M1132.04,1105.67c-0.249,-1.933 0.413,-3.872 1.791,-5.25c1.378,-1.379 3.317,-2.04 5.25,-1.792l12.5,0l0,-38.208l0,-7.042l-0.25,0c-0.686,1.548 -1.646,2.959 -2.833,4.167l-1.167,1.041c-1.249,1.467 -3.102,2.281 -5.028,2.208c-1.926,-0.073 -3.712,-1.025 -4.847,-2.583l-3.333,-3.583c-1.514,-1.238 -2.371,-3.106 -2.322,-5.061c0.049,-1.955 0.998,-3.778 2.572,-4.939l15.917,-14.875c2.3,-2.306 5.452,-3.558 8.708,-3.458l7.292,0c1.933,-0.249 3.872,0.413 5.25,1.791c1.378,1.378 2.04,3.317 1.791,5.25l0,65.417l12.5,0c1.933,-0.248 3.872,0.413 5.25,1.792c1.379,1.378 2.04,3.317 1.792,5.25l0,5.125c0.248,1.933 -0.413,3.872 -1.792,5.25c-1.378,1.378 -3.317,2.04 -5.25,1.791l-46.708,0c-1.933,0.249 -3.872,-0.413 -5.25,-1.791c-1.378,-1.378 -2.04,-3.317 -1.792,-5.25l-0.041,-5.25Zm-0.5,156.333c0,-33.875 39.625,-39.917 39.625,-53.125c0.034,-2.564 -1.022,-5.022 -2.905,-6.763c-1.883,-1.74 -4.417,-2.599 -6.97,-2.362c-3.727,0.112 -7.248,1.737 -9.75,4.5c-3.209,3.083 -6.542,4.167 -10,1.542l-5,-4.167c-3.584,-2.833 -4.5,-6.042 -1.792,-9.5c6.762,-8.931 17.428,-14.038 28.625,-13.708c15,0 31.292,8.583 31.292,28.083c0,28.625 -37.084,34.125 -38.25,45.833l32.583,0c1.933,-0.248 3.872,0.414 5.25,1.792c1.378,1.378 2.04,3.317 1.792,5.25l0,5.125c0.248,1.933 -0.414,3.872 -1.792,5.25c-1.378,1.378 -3.317,2.04 -5.25,1.792l-50,0c-1.978,0.234 -3.96,-0.412 -5.42,-1.768c-1.459,-1.356 -2.25,-3.284 -2.163,-5.274l0.125,-2.5Zm0.75,147.833l3.458,-5.625c2.458,-4.166 5.625,-4.166 9.625,-1.791c3.959,2.387 8.463,3.721 13.083,3.875c8.334,0 13.084,-4.167 13.084,-9.125c0,-7.167 -7.167,-10.125 -17.042,-10.125l-0.333,0c-3.457,0.393 -6.738,-1.617 -7.959,-4.875l-0.625,-1.292c-1.512,-3.077 -0.836,-6.781 1.667,-9.125l8.333,-10.125c2.483,-3.015 5.14,-5.881 7.959,-8.583l0,-0.25c-2.876,0.486 -5.793,0.696 -8.709,0.625l-14.875,0c-1.933,0.248 -3.872,-0.414 -5.25,-1.792c-1.378,-1.378 -2.04,-3.317 -1.791,-5.25l0,-5.125c-0.249,-1.933 0.413,-3.872 1.791,-5.25c1.378,-1.378 3.317,-2.04 5.25,-1.792l43.375,0c1.909,-0.24 3.823,0.406 5.195,1.754c1.373,1.348 2.053,3.25 1.847,5.163l0,2.042c0.128,3.213 -1.026,6.346 -3.208,8.708l-15.417,17.708c12.869,2.304 22.231,13.51 22.208,26.584c0,15.666 -11.041,31.291 -34,31.291c-9.354,0.106 -18.52,-2.625 -26.291,-7.833c-1.593,-1.031 -2.66,-2.703 -2.924,-4.582c-0.264,-1.879 0.301,-3.78 1.549,-5.21Zm-3.584,140.792l0,-1.792c-0.13,-3.109 0.779,-6.173 2.584,-8.708l29.916,-47.333c1.688,-2.985 4.908,-4.772 8.334,-4.625l14.875,0c1.933,-0.249 3.872,0.413 5.25,1.791c1.378,1.378 2.04,3.317 1.791,5.25l0,43.875l3.834,0c1.933,-0.248 3.872,0.414 5.25,1.792c1.378,1.378 2.04,3.317 1.791,5.25l0,4.5c0,4.625 -1.916,7.042 -5.375,7.042l-5.291,0l0,15.125c0.248,1.933 -0.414,3.872 -1.792,5.25c-1.378,1.378 -3.317,2.04 -5.25,1.791l-8.083,0c-1.933,0.249 -3.872,-0.413 -5.25,-1.791c-1.379,-1.378 -2.04,-3.317 -1.792,-5.25l0,-15.125l-33.625,0c-1.953,0.291 -3.93,-0.351 -5.338,-1.735c-1.409,-1.384 -2.086,-3.349 -1.829,-5.307Zm40.667,-11.542l0,-20.541c0.037,-3.429 0.288,-6.853 0.75,-10.25l-0.25,0c-1.155,3.319 -2.664,6.504 -4.5,9.5l-13.875,21.041l0,0.25l17.875,0Z" style="fill:#3c4249;fill-rule:nonzero;"/><path id="Shape19" serif:id="Shape" d="M1244.88,1041.67l380.542,0" style="fill:none;stroke:#e2eaf0;stroke-width:17.54px;"/><path id="Shape20" serif:id="Shape" d="M1459.46,793.75l115.959,0m75.708,0l115.958,0" style="fill:none;stroke:#3d4349;stroke-width:20.83px;"/><path id="Shape21" serif:id="Shape" d="M1244.88,1091.67l200,0m10.417,-239.584l313.875,0m-313.875,50l200,0m-410.417,297.917l380.542,0m-380.542,50l200,0m-200,108.333l380.542,0m-380.542,50l200,0m-200,108.334l380.542,0m-380.542,50l200,0" style="fill:none;stroke:#e2eaf0;stroke-width:17.54px;"/><path id="Shape22" serif:id="Shape" d="M1724.04,586.125l-91.667,0m-327.792,0l-16.666,0m283.333,0l-216.667,0" style="fill:none;stroke:#fff;stroke-width:21.08px;"/><path id="Shape23" serif:id="Shape" d="M2028.21,1145.83c0,-27.5 -17.041,-50 -37.875,-50l-202.041,0c-32.667,0 -37.875,22.5 -37.875,50c0,27.5 2.083,50 37.875,50l199.208,0" style="fill:#fbe4d7;fill-rule:nonzero;stroke:#3d4349;stroke-width:20.83px;"/><path id="Shape24" serif:id="Shape" d="M1890,1095.83l157.208,0c23.11,-0.276 45.325,8.921 61.478,25.451c16.152,16.53 24.833,38.952 24.022,62.049l0,125.959" style="fill:#fbe4d7;fill-rule:nonzero;stroke:#3d4349;stroke-width:20.83px;"/><path id="Shape25" serif:id="Shape" d="M2042.08,1312.5l0,120.833m0,113.917l0,45.833m0,70.834l0,37.5" style="fill:none;stroke:#fff;stroke-width:21.08px;"/><path id="Shape26" serif:id="Shape" d="M1777.12,1100l102.458,0c0,20.135 -16.323,36.458 -36.458,36.458l-88.542,0l0,-13.916c0,-12.45 10.093,-22.542 22.542,-22.542Z" style="fill:#fef4ef;fill-rule:nonzero;stroke:#3d4349;stroke-width:20.83px;"/><path id="Shape27" serif:id="Shape" d="M1602.5,1060.42l30.208,30.208l38.542,-61.458m-68.75,189.583l30.208,30.208l38.542,-61.458m-68.75,196.667l30.208,30.208l38.542,-61.458" style="fill:none;stroke:#76c06a;stroke-width:20.83px;"/></g></svg>